<svg xmlns="http://www.w3.org/2000/svg" xmlns:xlink="http://www.w3.org/1999/xlink" viewBox="0 0 597.76 349.51"><defs><style>.cls-1{isolation:isolate;}.cls-2{fill:url(#Áåçûìÿííûé_ãðàäèåíò_13);}.cls-3{fill:url(#Áåçûìÿííûé_ãðàäèåíò_38);}.cls-4{fill:url(#Áåçûìÿííûé_ãðàäèåíò_36);}.cls-31,.cls-5,.cls-50{fill:#fff;}.cls-190,.cls-201,.cls-43,.cls-44,.cls-5{mix-blend-mode:soft-light;}.cls-182,.cls-6{fill:#540041;}.cls-182,.cls-33,.cls-54,.cls-6{opacity:0.3;}.cls-182,.cls-189,.cls-19,.cls-203,.cls-33,.cls-40,.cls-49,.cls-54,.cls-57,.cls-6{mix-blend-mode:multiply;}.cls-11,.cls-12,.cls-13,.cls-131,.cls-132,.cls-133,.cls-134,.cls-135,.cls-136,.cls-137,.cls-138,.cls-139,.cls-140,.cls-141,.cls-142,.cls-143,.cls-144,.cls-145,.cls-148,.cls-150,.cls-151,.cls-152,.cls-153,.cls-154,.cls-155,.cls-159,.cls-16,.cls-163,.cls-164,.cls-166,.cls-17,.cls-171,.cls-173,.cls-178,.cls-179,.cls-182,.cls-184,.cls-185,.cls-186,.cls-187,.cls-188,.cls-189,.cls-19,.cls-190,.cls-191,.cls-192,.cls-193,.cls-194,.cls-195,.cls-196,.cls-197,.cls-198,.cls-199,.cls-20,.cls-200,.cls-201,.cls-202,.cls-203,.cls-204,.cls-21,.cls-23,.cls-24,.cls-25,.cls-27,.cls-28,.cls-29,.cls-30,.cls-31,.cls-32,.cls-33,.cls-35,.cls-36,.cls-37,.cls-39,.cls-40,.cls-42,.cls-43,.cls-44,.cls-51,.cls-52,.cls-53,.cls-54,.cls-55,.cls-56,.cls-57,.cls-58,.cls-59,.cls-60,.cls-61,.cls-62,.cls-65,.cls-67,.cls-68,.cls-69,.cls-7,.cls-70{fill-rule:evenodd;}.cls-7{fill:url(#Áåçûìÿííûé_ãðàäèåíò_192);}.cls-8{fill:url(#Áåçûìÿííûé_ãðàäèåíò_50);}.cls-9{fill:url(#Áåçûìÿííûé_ãðàäèåíò_206);}.cls-10{fill:url(#Áåçûìÿííûé_ãðàäèåíò_206-2);}.cls-11{fill:url(#Áåçûìÿííûé_ãðàäèåíò_192-2);}.cls-12{fill:url(#Áåçûìÿííûé_ãðàäèåíò_192-3);}.cls-13{fill:url(#Áåçûìÿííûé_ãðàäèåíò_192-4);}.cls-14{fill:url(#Áåçûìÿííûé_ãðàäèåíò_143);}.cls-15{fill:url(#Áåçûìÿííûé_ãðàäèåíò_50-2);}.cls-16{fill:url(#Áåçûìÿííûé_ãðàäèåíò_115);}.cls-17{fill:url(#Áåçûìÿííûé_ãðàäèåíò_102);}.cls-18{fill:#8e003e;}.cls-19{fill:#791b36;opacity:0.45;}.cls-20{fill:url(#Áåçûìÿííûé_ãðàäèåíò_77);}.cls-21{fill:url(#Áåçûìÿííûé_ãðàäèåíò_99);}.cls-22{fill:url(#Áåçûìÿííûé_ãðàäèåíò_53);}.cls-23{fill:url(#Áåçûìÿííûé_ãðàäèåíò_43);}.cls-24{fill:url(#Áåçûìÿííûé_ãðàäèåíò_96);}.cls-25{fill:url(#Áåçûìÿííûé_ãðàäèåíò_43-2);}.cls-26{fill:#5e3075;}.cls-189,.cls-27,.cls-29,.cls-40,.cls-44,.cls-49,.cls-57{opacity:0.5;}.cls-149,.cls-154,.cls-155,.cls-171,.cls-178,.cls-183,.cls-200,.cls-27,.cls-29,.cls-32,.cls-56,.cls-60,.cls-63,.cls-64,.cls-65{mix-blend-mode:screen;}.cls-27{fill:url(#Áåçûìÿííûé_ãðàäèåíò_80);}.cls-28{fill:url(#Áåçûìÿííûé_ãðàäèåíò_64);}.cls-29{fill:#5656b1;}.cls-30{fill:#dedde7;}.cls-32{fill:url(#Áåçûìÿííûé_ãðàäèåíò_296);}.cls-33{fill:#792a7c;}.cls-34{fill:url(#Áåçûìÿííûé_ãðàäèåíò_50-3);}.cls-35{fill:url(#Áåçûìÿííûé_ãðàäèåíò_127);}.cls-36{fill:url(#Áåçûìÿííûé_ãðàäèåíò_150);}.cls-37{fill:url(#Áåçûìÿííûé_ãðàäèåíò_13-2);}.cls-38{fill:#fffb00;}.cls-39{fill:url(#Áåçûìÿííûé_ãðàäèåíò_50-4);}.cls-40{fill:#401734;}.cls-41{fill:url(#Áåçûìÿííûé_ãðàäèåíò_57);}.cls-42{fill:url(#Áåçûìÿííûé_ãðàäèåíò_13-3);}.cls-43,.cls-44{fill:#fbf9fa;}.cls-43{opacity:0.8;}.cls-45{fill:url(#Áåçûìÿííûé_ãðàäèåíò_32);}.cls-46{fill:url(#Áåçûìÿííûé_ãðàäèåíò_15);}.cls-47{fill:url(#Áåçûìÿííûé_ãðàäèåíò_20);}.cls-48{fill:url(#Áåçûìÿííûé_ãðàäèåíò_18);}.cls-189,.cls-203,.cls-49{fill:#601734;}.cls-51{fill:url(#Áåçûìÿííûé_ãðàäèåíò_135);}.cls-52{fill:url(#Áåçûìÿííûé_ãðàäèåíò_115-2);}.cls-53{fill:url(#Áåçûìÿííûé_ãðàäèåíò_135-2);}.cls-54{fill:#953345;}.cls-55{fill:url(#Áåçûìÿííûé_ãðàäèåíò_7);}.cls-56{fill:url(#Áåçûìÿííûé_ãðàäèåíò_299);}.cls-57,.cls-62{fill:#ac2a41;}.cls-58{fill:url(#Áåçûìÿííûé_ãðàäèåíò_13-4);}.cls-59{fill:url(#Áåçûìÿííûé_ãðàäèåíò_135-3);}.cls-60{fill:url(#Áåçûìÿííûé_ãðàäèåíò_225);}.cls-61{fill:url(#Áåçûìÿííûé_ãðàäèåíò_10);}.cls-63{fill:url(#Áåçûìÿííûé_ãðàäèåíò_296-2);}.cls-64{fill:url(#Áåçûìÿííûé_ãðàäèåíò_338);}.cls-65{fill:url(#Áåçûìÿííûé_ãðàäèåíò_343);}.cls-66{opacity:0.58;fill:url(#Áåçûìÿííûé_ãðàäèåíò_86);}.cls-67{fill:url(#Áåçûìÿííûé_ãðàäèåíò_50-5);}.cls-68{fill:url(#Áåçûìÿííûé_ãðàäèåíò_204);}.cls-69{fill:url(#Áåçûìÿííûé_ãðàäèåíò_50-6);}.cls-70{fill:url(#Áåçûìÿííûé_ãðàäèåíò_206-3);}.cls-71{fill:url(#Áåçûìÿííûé_ãðàäèåíò_280);}.cls-72{fill:url(#Áåçûìÿííûé_ãðàäèåíò_280-2);}.cls-73{fill:url(#Áåçûìÿííûé_ãðàäèåíò_280-3);}.cls-74{fill:url(#Áåçûìÿííûé_ãðàäèåíò_280-4);}.cls-75{fill:url(#Áåçûìÿííûé_ãðàäèåíò_280-5);}.cls-76{fill:url(#Áåçûìÿííûé_ãðàäèåíò_280-6);}.cls-77{fill:url(#Áåçûìÿííûé_ãðàäèåíò_280-7);}.cls-78{fill:url(#Áåçûìÿííûé_ãðàäèåíò_280-8);}.cls-79{fill:url(#Áåçûìÿííûé_ãðàäèåíò_280-9);}.cls-80{fill:url(#Áåçûìÿííûé_ãðàäèåíò_280-10);}.cls-81{fill:url(#Áåçûìÿííûé_ãðàäèåíò_280-11);}.cls-82{fill:url(#Áåçûìÿííûé_ãðàäèåíò_280-12);}.cls-83{fill:url(#Áåçûìÿííûé_ãðàäèåíò_280-13);}.cls-84{fill:url(#Áåçûìÿííûé_ãðàäèåíò_280-14);}.cls-85{fill:url(#Áåçûìÿííûé_ãðàäèåíò_280-15);}.cls-86{fill:url(#Áåçûìÿííûé_ãðàäèåíò_280-16);}.cls-87{fill:url(#Áåçûìÿííûé_ãðàäèåíò_280-17);}.cls-88{fill:url(#Áåçûìÿííûé_ãðàäèåíò_280-18);}.cls-89{fill:url(#Áåçûìÿííûé_ãðàäèåíò_280-19);}.cls-90{fill:url(#Áåçûìÿííûé_ãðàäèåíò_280-20);}.cls-91{fill:url(#Áåçûìÿííûé_ãðàäèåíò_280-21);}.cls-92{fill:url(#Áåçûìÿííûé_ãðàäèåíò_280-22);}.cls-93{fill:url(#Áåçûìÿííûé_ãðàäèåíò_280-23);}.cls-94{fill:url(#Áåçûìÿííûé_ãðàäèåíò_280-24);}.cls-95{fill:url(#Áåçûìÿííûé_ãðàäèåíò_280-25);}.cls-96{fill:url(#Áåçûìÿííûé_ãðàäèåíò_280-26);}.cls-97{fill:url(#Áåçûìÿííûé_ãðàäèåíò_280-27);}.cls-98{fill:url(#Áåçûìÿííûé_ãðàäèåíò_280-28);}.cls-99{fill:url(#Áåçûìÿííûé_ãðàäèåíò_280-29);}.cls-100{fill:url(#Áåçûìÿííûé_ãðàäèåíò_280-30);}.cls-101{fill:url(#Áåçûìÿííûé_ãðàäèåíò_280-31);}.cls-102{fill:url(#Áåçûìÿííûé_ãðàäèåíò_280-32);}.cls-103{fill:url(#Áåçûìÿííûé_ãðàäèåíò_280-33);}.cls-104{fill:url(#Áåçûìÿííûé_ãðàäèåíò_280-34);}.cls-105{fill:url(#Áåçûìÿííûé_ãðàäèåíò_280-35);}.cls-106{fill:url(#Áåçûìÿííûé_ãðàäèåíò_280-36);}.cls-107{fill:url(#Áåçûìÿííûé_ãðàäèåíò_280-37);}.cls-108{fill:url(#Áåçûìÿííûé_ãðàäèåíò_280-38);}.cls-109{fill:url(#Áåçûìÿííûé_ãðàäèåíò_280-39);}.cls-110{fill:url(#Áåçûìÿííûé_ãðàäèåíò_280-40);}.cls-111{fill:url(#Áåçûìÿííûé_ãðàäèåíò_280-41);}.cls-112{fill:url(#Áåçûìÿííûé_ãðàäèåíò_280-42);}.cls-113{fill:url(#Áåçûìÿííûé_ãðàäèåíò_280-43);}.cls-114{fill:url(#Áåçûìÿííûé_ãðàäèåíò_280-44);}.cls-115{fill:url(#Áåçûìÿííûé_ãðàäèåíò_280-45);}.cls-116{fill:url(#Áåçûìÿííûé_ãðàäèåíò_280-46);}.cls-117{fill:url(#Áåçûìÿííûé_ãðàäèåíò_280-47);}.cls-118{fill:url(#Áåçûìÿííûé_ãðàäèåíò_280-48);}.cls-119{fill:url(#Áåçûìÿííûé_ãðàäèåíò_280-49);}.cls-120{fill:url(#Áåçûìÿííûé_ãðàäèåíò_280-50);}.cls-121{fill:url(#Áåçûìÿííûé_ãðàäèåíò_280-51);}.cls-122{fill:url(#Áåçûìÿííûé_ãðàäèåíò_280-52);}.cls-123{fill:url(#Áåçûìÿííûé_ãðàäèåíò_280-53);}.cls-124{fill:url(#Áåçûìÿííûé_ãðàäèåíò_280-54);}.cls-125{fill:url(#Áåçûìÿííûé_ãðàäèåíò_280-55);}.cls-126{fill:url(#Áåçûìÿííûé_ãðàäèåíò_280-56);}.cls-127{fill:url(#Áåçûìÿííûé_ãðàäèåíò_280-57);}.cls-128{fill:url(#Áåçûìÿííûé_ãðàäèåíò_280-58);}.cls-129{fill:url(#Áåçûìÿííûé_ãðàäèåíò_280-59);}.cls-130{fill:url(#Áåçûìÿííûé_ãðàäèåíò_280-60);}.cls-131{fill:url(#Áåçûìÿííûé_ãðàäèåíò_50-7);}.cls-132{fill:url(#Áåçûìÿííûé_ãðàäèåíò_206-4);}.cls-133{fill:url(#Áåçûìÿííûé_ãðàäèåíò_206-5);}.cls-134{fill:url(#Áåçûìÿííûé_ãðàäèåíò_206-6);}.cls-135{fill:url(#Áåçûìÿííûé_ãðàäèåíò_206-7);}.cls-136{fill:url(#Áåçûìÿííûé_ãðàäèåíò_50-8);}.cls-137{fill:url(#Áåçûìÿííûé_ãðàäèåíò_50-9);}.cls-138{fill:url(#Áåçûìÿííûé_ãðàäèåíò_206-8);}.cls-139{fill:url(#Áåçûìÿííûé_ãðàäèåíò_50-10);}.cls-140{fill:url(#Áåçûìÿííûé_ãðàäèåíò_112);}.cls-141{fill:url(#Áåçûìÿííûé_ãðàäèåíò_192-5);}.cls-142{fill:url(#Áåçûìÿííûé_ãðàäèåíò_192-6);}.cls-143{fill:url(#Áåçûìÿííûé_ãðàäèåíò_192-7);}.cls-144{fill:url(#Áåçûìÿííûé_ãðàäèåíò_192-8);}.cls-145{fill:url(#Áåçûìÿííûé_ãðàäèåíò_206-9);}.cls-146{fill:#d1bfe8;}.cls-147{fill:#3492ff;}.cls-148{fill:url(#Áåçûìÿííûé_ãðàäèåíò_50-11);}.cls-149{fill:url(#Áåçûìÿííûé_ãðàäèåíò_108);}.cls-150{fill:url(#Áåçûìÿííûé_ãðàäèåíò_50-12);}.cls-151{fill:url(#Áåçûìÿííûé_ãðàäèåíò_244);}.cls-152{fill:#8b0c42;}.cls-153{fill:url(#Áåçûìÿííûé_ãðàäèåíò_204-2);}.cls-154{fill:url(#Áåçûìÿííûé_ãðàäèåíò_225-2);}.cls-155{fill:url(#Áåçûìÿííûé_ãðàäèåíò_129);}.cls-156{fill:url(#Áåçûìÿííûé_ãðàäèåíò_13-5);}.cls-157{fill:url(#Áåçûìÿííûé_ãðàäèåíò_38-2);}.cls-158{fill:url(#Áåçûìÿííûé_ãðàäèåíò_36-2);}.cls-159{fill:url(#Áåçûìÿííûé_ãðàäèåíò_192-9);}.cls-160{fill:url(#Áåçûìÿííûé_ãðàäèåíò_13-6);}.cls-161{fill:url(#Áåçûìÿííûé_ãðàäèåíò_38-3);}.cls-162{fill:url(#Áåçûìÿííûé_ãðàäèåíò_36-3);}.cls-163{fill:url(#Áåçûìÿííûé_ãðàäèåíò_192-10);}.cls-164{fill:url(#Áåçûìÿííûé_ãðàäèåíò_192-11);}.cls-165{fill:url(#Áåçûìÿííûé_ãðàäèåíò_50-13);}.cls-166{fill:url(#Áåçûìÿííûé_ãðàäèåíò_50-14);}.cls-167{fill:url(#Áåçûìÿííûé_ãðàäèåíò_59);}.cls-168{fill:url(#Áåçûìÿííûé_ãðàäèåíò_204-3);}.cls-169{fill:url(#Áåçûìÿííûé_ãðàäèåíò_192-12);}.cls-170{fill:url(#Áåçûìÿííûé_ãðàäèåíò_192-13);}.cls-171,.cls-178,.cls-183,.cls-203{opacity:0.2;}.cls-171{fill:url(#Áåçûìÿííûé_ãðàäèåíò_65);}.cls-172{fill:url(#Áåçûìÿííûé_ãðàäèåíò_50-15);}.cls-173{fill:url(#Áåçûìÿííûé_ãðàäèåíò_50-16);}.cls-174{fill:url(#Áåçûìÿííûé_ãðàäèåíò_59-2);}.cls-175{fill:url(#Áåçûìÿííûé_ãðàäèåíò_204-4);}.cls-176{fill:url(#Áåçûìÿííûé_ãðàäèåíò_192-14);}.cls-177{fill:url(#Áåçûìÿííûé_ãðàäèåíò_192-15);}.cls-178{fill:url(#Áåçûìÿííûé_ãðàäèåíò_65-2);}.cls-179{fill:url(#Áåçûìÿííûé_ãðàäèåíò_113);}.cls-180{fill:url(#Áåçûìÿííûé_ãðàäèåíò_105);}.cls-181{fill:url(#Áåçûìÿííûé_ãðàäèåíò_110);}.cls-183{fill:url(#Áåçûìÿííûé_ãðàäèåíò_65-3);}.cls-184{fill:url(#Áåçûìÿííûé_ãðàäèåíò_192-16);}.cls-185{fill:#028bff;}.cls-186{fill:url(#Áåçûìÿííûé_ãðàäèåíò_10-2);}.cls-187{fill:url(#Áåçûìÿííûé_ãðàäèåíò_10-3);}.cls-188{fill:url(#Áåçûìÿííûé_ãðàäèåíò_135-4);}.cls-190{fill:#fbd99a;}.cls-191{fill:url(#Áåçûìÿííûé_ãðàäèåíò_3);}.cls-192{fill:url(#Áåçûìÿííûé_ãðàäèåíò_3-2);}.cls-193{fill:url(#Áåçûìÿííûé_ãðàäèåíò_3-3);}.cls-194{fill:url(#Áåçûìÿííûé_ãðàäèåíò_152);}.cls-195{fill:url(#Áåçûìÿííûé_ãðàäèåíò_152-2);}.cls-196{fill:url(#Áåçûìÿííûé_ãðàäèåíò_152-3);}.cls-197{fill:#b870a1;}.cls-198{fill:url(#Áåçûìÿííûé_ãðàäèåíò_57-2);}.cls-199{fill:url(#Áåçûìÿííûé_ãðàäèåíò_13-7);}.cls-200{fill:url(#Áåçûìÿííûé_ãðàäèåíò_329);}.cls-201{fill:#d1d8b3;}.cls-202{fill:url(#Áåçûìÿííûé_ãðàäèåíò_57-3);}.cls-204{fill:url(#Áåçûìÿííûé_ãðàäèåíò_57-4);}.cls-205{fill:#0d47a1;}.cls-206,.cls-208,.cls-210,.cls-211,.cls-213{fill:none;stroke:#fff;stroke-linecap:round;stroke-miterlimit:10;}.cls-206{stroke-width:0.8px;}.cls-207{fill:#4f88db;}.cls-208{stroke-width:1.04px;}.cls-209{fill:#f29141;}.cls-210{stroke-width:1.21px;}.cls-211{stroke-width:0.74px;}.cls-212{fill:#f9357c;}.cls-213{stroke-width:1.17px;}.cls-214{fill:#ffbe88;}</style><radialGradient id="Áåçûìÿííûé_ãðàäèåíò_13" cx="716.2" cy="339.43" r="32.41" gradientTransform="matrix(0.82, 0.57, -0.57, 0.82, 339.84, -460.22)" gradientUnits="userSpaceOnUse"><stop offset="0" stop-color="#ebd7e3"/><stop offset="0.98" stop-color="#bdafd2"/></radialGradient><linearGradient id="Áåçûìÿííûé_ãðàäèåíò_38" x1="716.2" y1="363.28" x2="716.2" y2="315.58" gradientTransform="matrix(0.82, 0.57, -0.57, 0.82, 339.84, -460.22)" gradientUnits="userSpaceOnUse"><stop offset="0.02" stop-color="#ede9f3"/><stop offset="1" stop-color="#f3e6ee"/></linearGradient><linearGradient id="Áåçûìÿííûé_ãðàäèåíò_36" x1="716.2" y1="361.36" x2="716.2" y2="317.51" gradientTransform="matrix(0.82, 0.57, -0.57, 0.82, 339.84, -460.22)" gradientUnits="userSpaceOnUse"><stop offset="0.02" stop-color="#d4cbe2"/><stop offset="1" stop-color="#f3e6ee"/></linearGradient><radialGradient id="Áåçûìÿííûé_ãðàäèåíò_192" cx="716.2" cy="338.06" r="15.57" gradientTransform="matrix(0.82, 0.57, -0.57, 0.82, 339.84, -460.22)" gradientUnits="userSpaceOnUse"><stop offset="0" stop-color="aqua"/><stop offset="0.99" stop-color="#26a9ff"/></radialGradient><linearGradient id="Áåçûìÿííûé_ãðàäèåíò_50" x1="634.2" y1="46.46" x2="675.11" y2="46.46" gradientTransform="translate(13.65 -53.67) rotate(9.35)" gradientUnits="userSpaceOnUse"><stop offset="0" stop-color="#603082"/><stop offset="0.99" stop-color="#2a0e51"/></linearGradient><radialGradient id="Áåçûìÿííûé_ãðàäèåíò_206" cx="655.1" cy="59.11" r="20.44" gradientTransform="translate(13.65 -53.67) rotate(9.35)" gradientUnits="userSpaceOnUse"><stop offset="0" stop-color="#6d47d3"/><stop offset="0.99" stop-color="#713592"/></radialGradient><radialGradient id="Áåçûìÿííûé_ãðàäèåíò_206-2" cx="654.66" cy="46.46" r="14.02" xlink:href="#Áåçûìÿííûé_ãðàäèåíò_206"/><radialGradient id="Áåçûìÿííûé_ãðàäèåíò_192-2" cx="646.08" cy="46.91" r="6.26" gradientTransform="translate(-165.6 -78.05) rotate(9.35)" xlink:href="#Áåçûìÿííûé_ãðàäèåíò_192"/><radialGradient id="Áåçûìÿííûé_ãðàäèåíò_192-3" cx="-270.18" cy="46.64" r="6.26" gradientTransform="matrix(-0.99, -0.16, -0.16, 0.99, 222.18, -13.92)" xlink:href="#Áåçûìÿííûé_ãðàäèåíò_192"/><radialGradient id="Áåçûìÿííûé_ãðàäèåíò_192-4" cx="654.66" cy="46.91" r="6.59" gradientTransform="translate(-165.6 -78.05) rotate(9.35)" xlink:href="#Áåçûìÿííûé_ãðàäèåíò_192"/><radialGradient id="Áåçûìÿííûé_ãðàäèåíò_143" cx="228.44" cy="163.52" r="142.23" gradientUnits="userSpaceOnUse"><stop offset="0" stop-color="#00e0ff"/><stop offset="0.99" stop-color="#1f84ff"/></radialGradient><linearGradient id="Áåçûìÿííûé_ãðàäèåíò_50-2" x1="510.48" y1="229.88" x2="501.52" y2="175.52" gradientTransform="matrix(1, 0, 0, 1, 0, 0)" xlink:href="#Áåçûìÿííûé_ãðàäèåíò_50"/><linearGradient id="Áåçûìÿííûé_ãðàäèåíò_115" x1="539.64" y1="250.6" x2="684.69" y2="250.6" gradientTransform="matrix(0.99, 0.11, -0.11, 0.99, 40.39, -60.79)" gradientUnits="userSpaceOnUse"><stop offset="0" stop-color="#ff6e27"/><stop offset="1" stop-color="#e03347"/></linearGradient><linearGradient id="Áåçûìÿííûé_ãðàäèåíò_102" x1="556.09" y1="251.96" x2="686.84" y2="251.96" gradientTransform="matrix(0.99, 0.11, -0.11, 0.99, 40.39, -60.79)" gradientUnits="userSpaceOnUse"><stop offset="0" stop-color="#c73e27"/><stop offset="1" stop-color="#a4152c"/></linearGradient><linearGradient id="Áåçûìÿííûé_ãðàäèåíò_77" x1="573.49" y1="229.17" x2="645.42" y2="229.17" gradientUnits="userSpaceOnUse"><stop offset="0" stop-color="#ebd7e3"/><stop offset="0.89" stop-color="#9c87bb"/><stop offset="1" stop-color="#b7a8ce"/></linearGradient><linearGradient id="Áåçûìÿííûé_ãðàäèåíò_99" x1="573.49" y1="222.82" x2="645.41" y2="222.82" gradientUnits="userSpaceOnUse"><stop offset="0" stop-color="#7f36bb"/><stop offset="0.99" stop-color="#2a0e51"/></linearGradient><linearGradient id="Áåçûìÿííûé_ãðàäèåíò_53" x1="589.44" y1="212.85" x2="610.59" y2="211.89" gradientUnits="userSpaceOnUse"><stop offset="0.01" stop-color="#2a0e51"/><stop offset="1" stop-color="#2f174c"/></linearGradient><linearGradient id="Áåçûìÿííûé_ãðàäèåíò_43" x1="589.65" y1="211.47" x2="612.35" y2="211.47" gradientUnits="userSpaceOnUse"><stop offset="0" stop-color="#2f174c"/><stop offset="0.99" stop-color="#2a0e51"/></linearGradient><linearGradient id="Áåçûìÿííûé_ãðàäèåíò_96" x1="593.24" y1="211.51" x2="609.38" y2="210.77" gradientUnits="userSpaceOnUse"><stop offset="0" stop-color="#688eff"/><stop offset="0.99" stop-color="#4c346c"/></linearGradient><linearGradient id="Áåçûìÿííûé_ãðàäèåíò_43-2" x1="592.4" y1="211.15" x2="605.5" y2="211.15" xlink:href="#Áåçûìÿííûé_ãðàäèåíò_43"/><linearGradient id="Áåçûìÿííûé_ãðàäèåíò_80" x1="622.81" y1="243.97" x2="622.81" y2="231" gradientUnits="userSpaceOnUse"><stop offset="0"/><stop offset="1" stop-color="#bdb3b1"/></linearGradient><linearGradient id="Áåçûìÿííûé_ãðàäèåíò_64" x1="573.54" y1="226.17" x2="645.41" y2="226.17" gradientUnits="userSpaceOnUse"><stop offset="0" stop-color="#9f6bf1"/><stop offset="0.99" stop-color="#000024"/></linearGradient><radialGradient id="Áåçûìÿííûé_ãðàäèåíò_296" cx="680.06" cy="104.36" r="5.28" gradientTransform="matrix(0.68, 0.12, -0.06, 0.34, 154, 99.15)" gradientUnits="userSpaceOnUse"><stop offset="0" stop-color="#ff7e00"/><stop offset="0.01" stop-color="#fc7c00"/><stop offset="0.23" stop-color="#b15700"/><stop offset="0.43" stop-color="#723800"/><stop offset="0.62" stop-color="#412000"/><stop offset="0.78" stop-color="#1d0f00"/><stop offset="0.91" stop-color="#080400"/><stop offset="1"/></radialGradient><linearGradient id="Áåçûìÿííûé_ãðàäèåíò_50-3" x1="255.64" y1="289.73" x2="483.84" y2="289.73" gradientTransform="matrix(1, 0, 0, 1, 0, 0)" xlink:href="#Áåçûìÿííûé_ãðàäèåíò_50"/><linearGradient id="Áåçûìÿííûé_ãðàäèåíò_127" x1="336.09" y1="229.59" x2="336.09" y2="109.12" gradientUnits="userSpaceOnUse"><stop offset="0.01" stop-color="#2a0e45"/><stop offset="1" stop-color="#561f7d"/></linearGradient><linearGradient id="Áåçûìÿííûé_ãðàäèåíò_150" x1="157.51" y1="191.78" x2="157.51" y2="90.61" gradientUnits="userSpaceOnUse"><stop offset="0.01" stop-color="#4bffff"/><stop offset="1" stop-color="#2fc5ff"/></linearGradient><radialGradient id="Áåçûìÿííûé_ãðàäèåíò_13-2" cx="366.82" cy="-1799.08" r="59.04" gradientTransform="translate(0 2612.74) scale(1 1.33)" xlink:href="#Áåçûìÿííûé_ãðàäèåíò_13"/><linearGradient id="Áåçûìÿííûé_ãðàäèåíò_50-4" x1="155.24" y1="225.98" x2="155.24" y2="205.21" gradientTransform="matrix(1, 0, 0, 1, 0, 0)" xlink:href="#Áåçûìÿííûé_ãðàäèåíò_50"/><radialGradient id="Áåçûìÿííûé_ãðàäèåíò_57" cx="154.54" cy="227.96" r="22.52" gradientUnits="userSpaceOnUse"><stop offset="0" stop-color="#b3819d"/><stop offset="1" stop-color="#785ca6"/></radialGradient><radialGradient id="Áåçûìÿííûé_ãðàäèåíò_13-3" cx="154.54" cy="224.92" r="22.49" gradientTransform="matrix(1, 0, 0, 1, 0, 0)" xlink:href="#Áåçûìÿííûé_ãðàäèåíò_13"/><linearGradient id="Áåçûìÿííûé_ãðàäèåíò_32" x1="322.22" y1="198.75" x2="322.22" y2="143.24" gradientUnits="userSpaceOnUse"><stop offset="0" stop-color="#ff7547"/><stop offset="1" stop-color="#ff8627"/></linearGradient><linearGradient id="Áåçûìÿííûé_ãðàäèåíò_15" x1="274.8" y1="175.7" x2="375.49" y2="175.7" gradientUnits="userSpaceOnUse"><stop offset="0" stop-color="#e03347"/><stop offset="1" stop-color="#ff6e27"/></linearGradient><linearGradient id="Áåçûìÿííûé_ãðàäèåíò_20" x1="349.97" y1="198.75" x2="349.97" y2="143.24" gradientUnits="userSpaceOnUse"><stop offset="0" stop-color="#ff8131"/><stop offset="1" stop-color="#fcff27"/></linearGradient><linearGradient id="Áåçûìÿííûé_ãðàäèåíò_18" x1="297" y1="175.7" x2="397.39" y2="175.7" gradientUnits="userSpaceOnUse"><stop offset="0" stop-color="#ff7d00"/><stop offset="1" stop-color="#ffd328"/></linearGradient><linearGradient id="Áåçûìÿííûé_ãðàäèåíò_135" x1="431.74" y1="128.37" x2="458.26" y2="128.37" gradientUnits="userSpaceOnUse"><stop offset="0" stop-color="#ffa700"/><stop offset="1" stop-color="#ffd328"/></linearGradient><linearGradient id="Áåçûìÿííûé_ãðàäèåíò_115-2" x1="277.17" y1="122.43" x2="252.86" y2="125.6" gradientTransform="matrix(1, 0, 0, 1, 0, 0)" xlink:href="#Áåçûìÿííûé_ãðàäèåíò_115"/><linearGradient id="Áåçûìÿííûé_ãðàäèåíò_135-2" x1="435.2" y1="183.24" x2="462.64" y2="183.24" xlink:href="#Áåçûìÿííûé_ãðàäèåíò_135"/><linearGradient id="Áåçûìÿííûé_ãðàäèåíò_7" x1="11.37" y1="241.46" x2="301.24" y2="241.46" gradientUnits="userSpaceOnUse"><stop offset="0" stop-color="#ff8647"/><stop offset="1" stop-color="#ffb934"/></linearGradient><radialGradient id="Áåçûìÿííûé_ãðàäèåíò_299" cx="359.03" cy="259.61" r="9.01" gradientTransform="translate(285.36) scale(0.38 1)" gradientUnits="userSpaceOnUse"><stop offset="0" stop-color="#ffef00"/><stop offset="0.01" stop-color="#fcec00"/><stop offset="0.23" stop-color="#b1a500"/><stop offset="0.43" stop-color="#726b00"/><stop offset="0.62" stop-color="#413d00"/><stop offset="0.78" stop-color="#1d1c00"/><stop offset="0.91" stop-color="#080700"/><stop offset="1"/></radialGradient><radialGradient id="Áåçûìÿííûé_ãðàäèåíò_13-4" cx="379.94" cy="-1755.5" r="81.47" gradientTransform="translate(-179.25 2588.35) scale(1 1.33)" xlink:href="#Áåçûìÿííûé_ãðàäèåíò_13"/><linearGradient id="Áåçûìÿííûé_ãðàäèåíò_135-3" x1="77.26" y1="241.71" x2="301.24" y2="241.71" xlink:href="#Áåçûìÿííûé_ãðàäèåíò_135"/><linearGradient id="Áåçûìÿííûé_ãðàäèåíò_225" x1="150.06" y1="247.49" x2="149.28" y2="232.61" gradientUnits="userSpaceOnUse"><stop offset="0"/><stop offset="1" stop-color="#bd9f65"/></linearGradient><linearGradient id="Áåçûìÿííûé_ãðàäèåíò_10" x1="11.37" y1="249.26" x2="301.24" y2="249.26" gradientUnits="userSpaceOnUse"><stop offset="0" stop-color="#c93347"/><stop offset="1" stop-color="#ff7527"/></linearGradient><radialGradient id="Áåçûìÿííûé_ãðàäèåíò_296-2" cx="421.5" cy="224.98" r="9.01" gradientTransform="translate(282.54 -232.15) rotate(45)" xlink:href="#Áåçûìÿííûé_ãðàäèåíò_296"/><radialGradient id="Áåçûìÿííûé_ãðàäèåíò_338" cx="450.85" cy="317.59" r="9.01" gradientTransform="matrix(0, 2.83, -1, 0, 750.44, -962.31)" gradientUnits="userSpaceOnUse"><stop offset="0" stop-color="#0097ff"/><stop offset="0.01" stop-color="#0095fc"/><stop offset="0.23" stop-color="#0069b1"/><stop offset="0.43" stop-color="#004372"/><stop offset="0.62" stop-color="#002641"/><stop offset="0.78" stop-color="#00111d"/><stop offset="0.91" stop-color="#000508"/><stop offset="1"/></radialGradient><radialGradient id="Áåçûìÿííûé_ãðàäèåíò_343" cx="392.05" cy="315.07" r="5.65" gradientTransform="matrix(3.78, 0.26, -0.07, 1, -1200.4, -113.89)" gradientUnits="userSpaceOnUse"><stop offset="0" stop-color="#ff2a13"/><stop offset="0.01" stop-color="#fc2913"/><stop offset="0.23" stop-color="#b11d0d"/><stop offset="0.43" stop-color="#721308"/><stop offset="0.62" stop-color="#410b05"/><stop offset="0.78" stop-color="#1d0502"/><stop offset="0.91" stop-color="#080101"/><stop offset="1"/></radialGradient><linearGradient id="Áåçûìÿííûé_ãðàäèåíò_86" x1="381" y1="285.33" x2="381" y2="286.43" gradientUnits="userSpaceOnUse"><stop offset="0" stop-color="#f8f0f4"/><stop offset="0.98" stop-color="#cec4de"/></linearGradient><linearGradient id="Áåçûìÿííûé_ãðàäèåíò_50-5" x1="224.96" y1="313.21" x2="463.04" y2="313.21" gradientTransform="translate(-152.43 -51.18) rotate(4.24)" xlink:href="#Áåçûìÿííûé_ãðàäèåíò_50"/><radialGradient id="Áåçûìÿííûé_ãðàäèåíò_204" cx="280.24" cy="292.4" r="108.23" gradientTransform="translate(-152.43 -51.18) rotate(4.24)" xlink:href="#Áåçûìÿííûé_ãðàäèåíò_206"/><linearGradient id="Áåçûìÿííûé_ãðàäèåíò_50-6" x1="234.69" y1="298.67" x2="456.25" y2="298.67" gradientTransform="translate(-152.43 -51.18) rotate(4.24)" xlink:href="#Áåçûìÿííûé_ãðàäèåíò_50"/><radialGradient id="Áåçûìÿííûé_ãðàäèåíò_206-3" cx="345.47" cy="296.07" r="78.58" gradientTransform="translate(-152.43 -51.18) rotate(4.24)" xlink:href="#Áåçûìÿííûé_ãðàäèåíò_206"/><linearGradient id="Áåçûìÿííûé_ãðàäèåíò_280" x1="258.6" y1="299.47" x2="444.87" y2="299.7" gradientTransform="translate(-152.43 -51.18) rotate(4.24)" gradientUnits="userSpaceOnUse"><stop offset="0.02" stop-color="#ff4c06"/><stop offset="0.17" stop-color="#ff0e59"/><stop offset="0.54" stop-color="#ff12c3"/><stop offset="1" stop-color="#00b3ff"/></linearGradient><linearGradient id="Áåçûìÿííûé_ãðàäèåíò_280-2" x1="258.61" y1="295.57" x2="444.87" y2="295.8" xlink:href="#Áåçûìÿííûé_ãðàäèåíò_280"/><linearGradient id="Áåçûìÿííûé_ãðàäèåíò_280-3" x1="258.61" y1="292.96" x2="444.87" y2="293.2" xlink:href="#Áåçûìÿííûé_ãðàäèåíò_280"/><linearGradient id="Áåçûìÿííûé_ãðàäèåíò_280-4" x1="258.62" y1="289.9" x2="444.88" y2="290.13" xlink:href="#Áåçûìÿííûé_ãðàäèåíò_280"/><linearGradient id="Áåçûìÿííûé_ãðàäèåíò_280-5" x1="258.62" y1="287.89" x2="444.88" y2="288.12" xlink:href="#Áåçûìÿííûé_ãðàäèåíò_280"/><linearGradient id="Áåçûìÿííûé_ãðàäèåíò_280-6" x1="258.61" y1="293.93" x2="444.88" y2="294.17" xlink:href="#Áåçûìÿííûé_ãðàäèåíò_280"/><linearGradient id="Áåçûìÿííûé_ãðàäèåíò_280-7" x1="258.62" y1="288.93" x2="444.88" y2="289.17" gradientTransform="translate(165.15 -101.19) rotate(26.86)" xlink:href="#Áåçûìÿííûé_ãðàäèåíò_280"/><linearGradient id="Áåçûìÿííûé_ãðàäèåíò_280-8" x1="258.6" y1="300.54" x2="444.87" y2="300.77" xlink:href="#Áåçûìÿííûé_ãðàäèåíò_280"/><linearGradient id="Áåçûìÿííûé_ãðàäèåíò_280-9" x1="258.62" y1="287.54" x2="444.87" y2="287.78" gradientTransform="matrix(0.86, 0.52, -0.52, 0.86, 195.47, -114.69)" xlink:href="#Áåçûìÿííûé_ãðàäèåíò_280"/><linearGradient id="Áåçûìÿííûé_ãðàäèåíò_280-10" x1="258.61" y1="297.08" x2="444.87" y2="297.32" xlink:href="#Áåçûìÿííûé_ãðàäèåíò_280"/><linearGradient id="Áåçûìÿííûé_ãðàäèåíò_280-11" x1="258.61" y1="291.37" x2="444.88" y2="291.6" xlink:href="#Áåçûìÿííûé_ãðàäèåíò_280"/><linearGradient id="Áåçûìÿííûé_ãðàäèåíò_280-12" x1="258.61" y1="294.65" x2="444.87" y2="294.89" gradientTransform="translate(397.75 -222.95) rotate(51.48)" xlink:href="#Áåçûìÿííûé_ãðàäèåíò_280"/><linearGradient id="Áåçûìÿííûé_ãðàäèåíò_280-13" x1="258.62" y1="288.97" x2="444.88" y2="289.21" gradientTransform="translate(391.25 -220.03) rotate(51.5)" xlink:href="#Áåçûìÿííûé_ãðàäèåíò_280"/><linearGradient id="Áåçûìÿííûé_ãðàäèåíò_280-14" x1="258.6" y1="302.34" x2="444.86" y2="302.58" xlink:href="#Áåçûìÿííûé_ãðàäèåíò_280"/><linearGradient id="Áåçûìÿííûé_ãðàäèåíò_280-15" x1="258.62" y1="291.51" x2="444.88" y2="291.75" gradientTransform="translate(345.05 -210.18) rotate(46.32)" xlink:href="#Áåçûìÿííûé_ãðàäèåíò_280"/><linearGradient id="Áåçûìÿííûé_ãðàäèåíò_280-16" x1="258.61" y1="298.01" x2="444.87" y2="298.25" xlink:href="#Áåçûìÿííûé_ãðàäèåíò_280"/><linearGradient id="Áåçûìÿííûé_ãðàäèåíò_280-17" x1="258.62" y1="287.58" x2="444.88" y2="287.81" gradientTransform="matrix(0.69, 0.72, -0.72, 0.69, 342.24, -208.86)" xlink:href="#Áåçûìÿííûé_ãðàäèåíò_280"/><linearGradient id="Áåçûìÿííûé_ãðàäèåíò_280-18" x1="258.61" y1="294.62" x2="444.87" y2="294.86" xlink:href="#Áåçûìÿííûé_ãðàäèåíò_280"/><linearGradient id="Áåçûìÿííûé_ãðàäèåíò_280-19" x1="258.62" y1="288.96" x2="444.88" y2="289.2" xlink:href="#Áåçûìÿííûé_ãðàäèåíò_280"/><linearGradient id="Áåçûìÿííûé_ãðàäèåíò_280-20" x1="258.61" y1="302.08" x2="444.86" y2="302.32" xlink:href="#Áåçûìÿííûé_ãðàäèåíò_280"/><linearGradient id="Áåçûìÿííûé_ãðàäèåíò_280-21" x1="258.62" y1="287.57" x2="444.88" y2="287.81" xlink:href="#Áåçûìÿííûé_ãðàäèåíò_280"/><linearGradient id="Áåçûìÿííûé_ãðàäèåíò_280-22" x1="258.62" y1="297.92" x2="444.87" y2="298.16" gradientTransform="translate(179.15 -148.03) rotate(26.45)" xlink:href="#Áåçûìÿííûé_ãðàäèåíò_280"/><linearGradient id="Áåçûìÿííûé_ãðàäèåíò_280-23" x1="258.62" y1="291.56" x2="444.87" y2="291.8" xlink:href="#Áåçûìÿííûé_ãðàäèåíò_280"/><linearGradient id="Áåçûìÿííûé_ãðàäèåíò_280-24" x1="258.61" y1="294.5" x2="444.87" y2="294.74" gradientTransform="translate(145.62 -127.21) rotate(22.31)" xlink:href="#Áåçûìÿííûé_ãðàäèåíò_280"/><linearGradient id="Áåçûìÿííûé_ãðàäèåíò_280-25" x1="258.62" y1="288.96" x2="444.88" y2="289.2" xlink:href="#Áåçûìÿííûé_ãðàäèåíò_280"/><linearGradient id="Áåçûìÿííûé_ãðàäèåíò_280-26" x1="258.61" y1="301.93" x2="444.86" y2="302.17" xlink:href="#Áåçûìÿííûé_ãðàäèåíò_280"/><linearGradient id="Áåçûìÿííûé_ãðàäèåíò_280-27" x1="258.61" y1="291.47" x2="444.88" y2="291.71" xlink:href="#Áåçûìÿííûé_ãðàäèåíò_280"/><linearGradient id="Áåçûìÿííûé_ãðàäèåíò_280-28" x1="258.63" y1="287.9" x2="444.88" y2="288.13" gradientTransform="translate(99.92 -95.37) rotate(16.16)" xlink:href="#Áåçûìÿííûé_ãðàäèåíò_280"/><linearGradient id="Áåçûìÿííûé_ãðàäèåíò_280-29" x1="258.61" y1="297.81" x2="444.86" y2="298.05" gradientTransform="translate(99.04 -93.33) rotate(15.72)" xlink:href="#Áåçûìÿííûé_ãðàäèåíò_280"/><linearGradient id="Áåçûìÿííûé_ãðàäèåíò_280-30" x1="258.63" y1="288.96" x2="444.87" y2="289.19" gradientTransform="translate(41.97 -43.12) rotate(6.92)" xlink:href="#Áåçûìÿííûé_ãðàäèåíò_280"/><linearGradient id="Áåçûìÿííûé_ãðàäèåíò_280-31" x1="258.61" y1="301.78" x2="444.86" y2="302.02" gradientTransform="translate(42.68 -43.24) rotate(6.93)" xlink:href="#Áåçûìÿííûé_ãðàäèåíò_280"/><linearGradient id="Áåçûìÿííûé_ãðàäèåíò_280-32" x1="258.63" y1="294.43" x2="444.86" y2="294.66" gradientTransform="matrix(0.99, 0.12, -0.12, 0.99, 42.52, -43.42)" xlink:href="#Áåçûìÿííûé_ãðàäèåíò_280"/><linearGradient id="Áåçûìÿííûé_ãðàäèåíò_280-33" x1="258.62" y1="288.57" x2="444.88" y2="288.8" gradientTransform="translate(231.98 -125.73) rotate(36.11)" xlink:href="#Áåçûìÿííûé_ãðàäèåíò_280"/><linearGradient id="Áåçûìÿííûé_ãðàäèåíò_280-34" x1="258.6" y1="300.9" x2="444.86" y2="301.14" gradientTransform="translate(235.13 -114.71) rotate(36.11)" xlink:href="#Áåçûìÿííûé_ãðàäèåíò_280"/><linearGradient id="Áåçûìÿííûé_ãðàäèåíò_280-35" x1="258.61" y1="294.04" x2="444.88" y2="294.28" gradientTransform="matrix(0.81, 0.59, -0.59, 0.81, 233.42, -120.85)" xlink:href="#Áåçûìÿííûé_ãðàäèåíò_280"/><linearGradient id="Áåçûìÿííûé_ãðàäèåíò_280-36" x1="258.61" y1="291.37" x2="444.88" y2="291.61" gradientTransform="translate(271.28 -133.66) rotate(41.12)" xlink:href="#Áåçûìÿííûé_ãðàäèåíò_280"/><linearGradient id="Áåçûìÿííûé_ãðàäèåíò_280-37" x1="258.62" y1="287.9" x2="444.88" y2="288.14" xlink:href="#Áåçûìÿííûé_ãðàäèåíò_280"/><linearGradient id="Áåçûìÿííûé_ãðàäèåíò_280-38" x1="258.61" y1="297.23" x2="444.87" y2="297.47" xlink:href="#Áåçûìÿííûé_ãðàäèåíò_280"/><linearGradient id="Áåçûìÿííûé_ãðàäèåíò_280-39" x1="258.62" y1="288.99" x2="444.88" y2="289.23" gradientTransform="translate(289.72 -142.33) rotate(43.42)" xlink:href="#Áåçûìÿííûé_ãðàäèåíò_280"/><linearGradient id="Áåçûìÿííûé_ãðàäèåíò_280-40" x1="258.6" y1="301.09" x2="444.87" y2="301.33" gradientTransform="matrix(0.66, 0.75, -0.75, 0.66, 335.15, -130.77)" xlink:href="#Áåçûìÿííûé_ãðàäèåíò_280"/><linearGradient id="Áåçûìÿííûé_ãðàäèåíò_280-41" x1="258.61" y1="294.13" x2="444.87" y2="294.37" gradientTransform="matrix(0.73, 0.69, -0.69, 0.73, 291.4, -137.62)" xlink:href="#Áåçûìÿííûé_ãðàäèåíò_280"/><linearGradient id="Áåçûìÿííûé_ãðàäèåíò_280-42" x1="258.61" y1="291.4" x2="444.88" y2="291.63" gradientTransform="translate(343.61 -145.83) rotate(50.15)" xlink:href="#Áåçûìÿííûé_ãðàäèåíò_280"/><linearGradient id="Áåçûìÿííûé_ãðàäèåíò_280-43" x1="258.61" y1="297.48" x2="444.87" y2="297.72" xlink:href="#Áåçûìÿííûé_ãðàäèåíò_280"/><linearGradient id="Áåçûìÿííûé_ãðàäèåíò_280-44" x1="258.61" y1="294.2" x2="444.88" y2="294.44" gradientTransform="translate(405.59 -143.86) rotate(57.67)" xlink:href="#Áåçûìÿííûé_ãðàäèåíò_280"/><linearGradient id="Áåçûìÿííûé_ãðàäèåíò_280-45" x1="258.6" y1="299.3" x2="444.88" y2="299.54" xlink:href="#Áåçûìÿííûé_ãðàäèåíò_280"/><linearGradient id="Áåçûìÿííûé_ãðàäèåíò_280-46" x1="258.62" y1="288.95" x2="444.88" y2="289.18" xlink:href="#Áåçûìÿííûé_ãðàäèåíò_280"/><linearGradient id="Áåçûìÿííûé_ãðàäèåíò_280-47" x1="258.62" y1="287.96" x2="444.88" y2="288.2" gradientTransform="translate(447.65 -148.8) rotate(63.03)" xlink:href="#Áåçûìÿííûé_ãðàäèåíò_280"/><linearGradient id="Áåçûìÿííûé_ãðàäèåíò_280-48" x1="258.6" y1="297.39" x2="444.87" y2="297.63" gradientTransform="matrix(0.42, 0.91, -0.91, 0.42, 468.1, -135.89)" xlink:href="#Áåçûìÿííûé_ãðàäèåíò_280"/><linearGradient id="Áåçûìÿííûé_ãðàäèåíò_280-49" x1="258.62" y1="291.42" x2="444.87" y2="291.65" xlink:href="#Áåçûìÿííûé_ãðàäèåíò_280"/><linearGradient id="Áåçûìÿííûé_ãðàäèåíò_280-50" x1="258.61" y1="294.28" x2="444.88" y2="294.52" xlink:href="#Áåçûìÿííûé_ãðàäèåíò_280"/><linearGradient id="Áåçûìÿííûé_ãðàäèåíò_280-51" x1="258.61" y1="288.9" x2="444.89" y2="289.14" xlink:href="#Áåçûìÿííûé_ãðàäèåíò_280"/><linearGradient id="Áåçûìÿííûé_ãðàäèåíò_280-52" x1="258.61" y1="291.44" x2="444.88" y2="291.67" gradientTransform="translate(583.13 -112.2) rotate(79.66)" xlink:href="#Áåçûìÿííûé_ãðàäèåíò_280"/><linearGradient id="Áåçûìÿííûé_ãðàäèåíò_280-53" x1="258.61" y1="287.97" x2="444.89" y2="288.2" gradientTransform="translate(580.49 -115.6) rotate(79.66)" xlink:href="#Áåçûìÿííûé_ãðàäèåíò_280"/><linearGradient id="Áåçûìÿííûé_ãðàäèåíò_280-54" x1="258.6" y1="297.58" x2="444.87" y2="297.82" xlink:href="#Áåçûìÿííûé_ãðàäèåíò_280"/><linearGradient id="Áåçûìÿííûé_ãðàäèåíò_280-55" x1="258.64" y1="288.89" x2="444.86" y2="289.13" gradientTransform="translate(657.99 -76.07) rotate(90)" xlink:href="#Áåçûìÿííûé_ãðàäèåíò_280"/><linearGradient id="Áåçûìÿííûé_ãðàäèåíò_280-56" x1="258.61" y1="294.36" x2="444.87" y2="294.59" gradientTransform="translate(663.06 -70.61) rotate(90)" xlink:href="#Áåçûìÿííûé_ãðàäèåíò_280"/><linearGradient id="Áåçûìÿííûé_ãðàäèåíò_280-57" x1="258.62" y1="287.97" x2="444.88" y2="288.21" gradientTransform="translate(687.39 -66.35) rotate(93.48)" xlink:href="#Áåçûìÿííûé_ãðàäèåíò_280"/><linearGradient id="Áåçûìÿííûé_ãðàäèåíò_280-58" x1="258.62" y1="297.62" x2="444.86" y2="297.86" gradientTransform="translate(695.82 -57.65) rotate(93.31)" xlink:href="#Áåçûìÿííûé_ãðàäèåíò_280"/><linearGradient id="Áåçûìÿííûé_ãðàäèåíò_280-59" x1="258.63" y1="291.46" x2="444.87" y2="291.69" gradientTransform="translate(690.25 -63.36) rotate(93.39)" xlink:href="#Áåçûìÿííûé_ãðàäèåíò_280"/><linearGradient id="Áåçûìÿííûé_ãðàäèåíò_280-60" x1="237.25" y1="309.79" x2="452.83" y2="309.79" xlink:href="#Áåçûìÿííûé_ãðàäèåíò_280"/><linearGradient id="Áåçûìÿííûé_ãðàäèåíò_50-7" x1="433.7" y1="558.79" x2="433.7" y2="476.06" gradientTransform="translate(-296.9 40.3) rotate(-29.6)" xlink:href="#Áåçûìÿííûé_ãðàäèåíò_50"/><radialGradient id="Áåçûìÿííûé_ãðàäèåíò_206-4" cx="536.3" cy="476.34" r="2.63" gradientTransform="matrix(0.7, -0.4, 0.49, 0.87, -292.38, 38.42)" xlink:href="#Áåçûìÿííûé_ãðàäèåíò_206"/><radialGradient id="Áåçûìÿííûé_ãðàäèåíò_206-5" cx="539.51" cy="517.7" r="28.68" gradientTransform="matrix(0.7, -0.4, 0.49, 0.87, -292.38, 38.42)" xlink:href="#Áåçûìÿííûé_ãðàäèåíò_206"/><radialGradient id="Áåçûìÿííûé_ãðàäèåíò_206-6" cx="-417.68" cy="26.31" r="29.65" gradientTransform="matrix(-0.87, -0.5, -0.5, 0.87, 92.02, 32.99)" xlink:href="#Áåçûìÿííûé_ãðàäèåíò_206"/><radialGradient id="Áåçûìÿííûé_ãðàäèåíò_206-7" cx="-521.02" cy="-14.97" r="2.63" gradientTransform="matrix(-0.7, -0.4, -0.5, 0.87, 88.11, 31.2)" xlink:href="#Áåçûìÿííûé_ãðàäèåíò_206"/><linearGradient id="Áåçûìÿííûé_ãðàäèåíò_50-8" x1="-518.15" y1="67.74" x2="-518.15" y2="-14.07" gradientTransform="matrix(-0.7, -0.4, -0.5, 0.87, 88.11, 31.2)" xlink:href="#Áåçûìÿííûé_ãðàäèåíò_50"/><linearGradient id="Áåçûìÿííûé_ãðàäèåíò_50-9" x1="477.07" y1="440.15" x2="577.74" y2="447.62" gradientTransform="translate(-217.97 1.04) rotate(-12.84)" xlink:href="#Áåçûìÿííûé_ãðàäèåíò_50"/><radialGradient id="Áåçûìÿííûé_ãðàäèåíò_206-8" cx="528.13" cy="429.18" r="36.6" gradientTransform="translate(-217.97 1.04) rotate(-12.84)" xlink:href="#Áåçûìÿííûé_ãðàäèåíò_206"/><linearGradient id="Áåçûìÿííûé_ãðàäèåíò_50-10" x1="490.01" y1="429.31" x2="564.56" y2="434.85" gradientTransform="translate(-217.97 1.04) rotate(-12.84)" xlink:href="#Áåçûìÿííûé_ãðàäèåíò_50"/><radialGradient id="Áåçûìÿííûé_ãðàäèåíò_112" cx="527.25" cy="424.82" r="27.14" gradientTransform="translate(-217.97 1.04) rotate(-12.84)" gradientUnits="userSpaceOnUse"><stop offset="0" stop-color="#8461d3"/><stop offset="0.99" stop-color="#7138b6"/></radialGradient><radialGradient id="Áåçûìÿííûé_ãðàäèåíò_192-5" cx="517.77" cy="430.98" r="0.74" gradientTransform="translate(-38.72 25.42) rotate(-12.84)" xlink:href="#Áåçûìÿííûé_ãðàäèåíò_192"/><radialGradient id="Áåçûìÿííûé_ãðàäèåíò_192-6" cx="528.26" cy="431.18" r="0.74" gradientTransform="translate(-38.72 25.42) rotate(-12.84)" xlink:href="#Áåçûìÿííûé_ãðàäèåíò_192"/><radialGradient id="Áåçûìÿííûé_ãðàäèåíò_192-7" cx="531.98" cy="431.31" r="0.74" gradientTransform="translate(-38.72 25.42) rotate(-12.84)" xlink:href="#Áåçûìÿííûé_ãðàäèåíò_192"/><radialGradient id="Áåçûìÿííûé_ãðàäèåíò_192-8" cx="536.43" cy="431.45" r="0.74" gradientTransform="translate(-38.72 25.42) rotate(-12.84)" xlink:href="#Áåçûìÿííûé_ãðàäèåíò_192"/><radialGradient id="Áåçûìÿííûé_ãðàäèåíò_206-9" cx="527.94" cy="448.14" r="31.93" gradientTransform="translate(-217.97 1.04) rotate(-12.84)" xlink:href="#Áåçûìÿííûé_ãðàäèåíò_206"/><linearGradient id="Áåçûìÿííûé_ãðàäèåíò_50-11" x1="387.44" y1="110.72" x2="387.44" y2="58.29" gradientTransform="matrix(-0.98, -0.2, 0.2, -0.98, 815.42, 232.33)" xlink:href="#Áåçûìÿííûé_ãðàäèåíò_50"/><radialGradient id="Áåçûìÿííûé_ãðàäèåíò_108" cx="387.9" cy="83.19" r="21.88" gradientTransform="translate(482.87 467.84) rotate(-106.51)" gradientUnits="userSpaceOnUse"><stop offset="0.23"/><stop offset="0.52" stop-color="#010102"/><stop offset="0.62" stop-color="#040509"/><stop offset="0.69" stop-color="#0a0d14"/><stop offset="0.75" stop-color="#131725"/><stop offset="0.81" stop-color="#1e243b"/><stop offset="0.85" stop-color="#2c3557"/><stop offset="0.89" stop-color="#3c4977"/><stop offset="0.93" stop-color="#4f609d"/><stop offset="0.96" stop-color="#657ac8"/><stop offset="0.99" stop-color="#7c96f6"/><stop offset="1" stop-color="#819cff"/></radialGradient><linearGradient id="Áåçûìÿííûé_ãðàäèåíò_50-12" x1="366.42" y1="110.72" x2="366.42" y2="101.19" gradientTransform="matrix(-0.98, -0.2, 0.2, -0.98, 815.42, 232.33)" xlink:href="#Áåçûìÿííûé_ãðàäèåíò_50"/><linearGradient id="Áåçûìÿííûé_ãðàäèåíò_244" x1="318.64" y1="101.62" x2="355.37" y2="101.62" gradientTransform="translate(791.39 235.11) rotate(-163.49)" gradientUnits="userSpaceOnUse"><stop offset="0" stop-color="#ff3363"/><stop offset="1" stop-color="#ff6e27"/></linearGradient><radialGradient id="Áåçûìÿííûé_ãðàäèåíò_204-2" cx="387.9" cy="83.19" r="26.21" gradientTransform="matrix(-0.98, -0.2, 0.2, -0.98, 815.42, 232.33)" xlink:href="#Áåçûìÿííûé_ãðàäèåíò_206"/><linearGradient id="Áåçûìÿííûé_ãðàäèåíò_225-2" x1="340.37" y1="123.34" x2="369.08" y2="123.34" gradientTransform="matrix(-0.98, -0.2, 0.2, -0.98, 815.42, 232.33)" xlink:href="#Áåçûìÿííûé_ãðàäèåíò_225"/><linearGradient id="Áåçûìÿííûé_ãðàäèåíò_129" x1="385.89" y1="104.96" x2="385.89" y2="61.29" gradientTransform="matrix(-0.98, -0.2, 0.2, -0.98, 815.42, 232.33)" gradientUnits="userSpaceOnUse"><stop offset="0"/><stop offset="1" stop-color="#959f9a"/></linearGradient><radialGradient id="Áåçûìÿííûé_ãðàäèåíò_13-5" cx="223.79" cy="104.52" r="20.65" gradientTransform="translate(-11.78 26.42) rotate(-11.53)" xlink:href="#Áåçûìÿííûé_ãðàäèåíò_13"/><linearGradient id="Áåçûìÿííûé_ãðàäèåíò_38-2" x1="223.79" y1="119.71" x2="223.79" y2="89.32" gradientTransform="translate(-11.78 26.42) rotate(-11.53)" xlink:href="#Áåçûìÿííûé_ãðàäèåíò_38"/><linearGradient id="Áåçûìÿííûé_ãðàäèåíò_36-2" x1="223.78" y1="118.49" x2="223.78" y2="90.55" gradientTransform="translate(-11.78 26.42) rotate(-11.53)" xlink:href="#Áåçûìÿííûé_ãðàäèåíò_36"/><radialGradient id="Áåçûìÿííûé_ãðàäèåíò_192-9" cx="223.78" cy="103.64" r="9.92" gradientTransform="translate(-11.78 26.42) rotate(-11.53)" xlink:href="#Áåçûìÿííûé_ãðàäèåíò_192"/><radialGradient id="Áåçûìÿííûé_ãðàäèåíò_13-6" cx="385.12" cy="65.02" r="23.73" gradientTransform="translate(22.14 -51.42) rotate(12.84)" xlink:href="#Áåçûìÿííûé_ãðàäèåíò_13"/><linearGradient id="Áåçûìÿííûé_ãðàäèåíò_38-3" x1="385.12" y1="82.48" x2="385.12" y2="47.55" gradientTransform="translate(22.14 -51.42) rotate(12.84)" xlink:href="#Áåçûìÿííûé_ãðàäèåíò_38"/><linearGradient id="Áåçûìÿííûé_ãðàäèåíò_36-3" x1="385.12" y1="81.07" x2="385.12" y2="48.96" gradientTransform="translate(22.14 -51.42) rotate(12.84)" xlink:href="#Áåçûìÿííûé_ãðàäèåíò_36"/><radialGradient id="Áåçûìÿííûé_ãðàäèåíò_192-10" cx="376.12" cy="64.65" r="7.56" gradientTransform="translate(-157.11 -75.81) rotate(12.84)" xlink:href="#Áåçûìÿííûé_ãðàäèåíò_192"/><radialGradient id="Áåçûìÿííûé_ãðàäèåíò_192-11" cx="95.3" cy="64.45" r="7.56" gradientTransform="matrix(-0.97, -0.22, -0.22, 0.97, 320.24, 33.24)" xlink:href="#Áåçûìÿííûé_ãðàäèåíò_192"/><linearGradient id="Áåçûìÿííûé_ãðàäèåíò_50-13" x1="200.94" y1="253.63" x2="259.22" y2="253.63" gradientTransform="matrix(1, 0, 0, 1, 0, 0)" xlink:href="#Áåçûìÿííûé_ãðàäèåíò_50"/><linearGradient id="Áåçûìÿííûé_ãðàäèåíò_50-14" x1="21.77" y1="226.93" x2="79.96" y2="226.93" gradientTransform="matrix(1, 0, 0, 1, 0, 0)" xlink:href="#Áåçûìÿííûé_ãðàäèåíò_50"/><linearGradient id="Áåçûìÿííûé_ãðàäèåíò_59" x1="231.16" y1="247.94" x2="231.16" y2="234.41" gradientTransform="matrix(1, 0, 0, 1, 0, 0)" xlink:href="#Áåçûìÿííûé_ãðàäèåíò_206"/><radialGradient id="Áåçûìÿííûé_ãðàäèåíò_204-3" cx="230.95" cy="240.94" r="16.25" gradientTransform="matrix(1, 0, 0, 1, 0, 0)" xlink:href="#Áåçûìÿííûé_ãðàäèåíò_206"/><radialGradient id="Áåçûìÿííûé_ãðàäèåíò_192-12" cx="96.24" cy="113.11" r="6.55" gradientTransform="translate(337.76 143.31) rotate(90)" xlink:href="#Áåçûìÿííûé_ãðàäèåíò_192"/><radialGradient id="Áåçûìÿííûé_ãðàäèåíò_192-13" cx="98.63" cy="103.3" r="7.38" gradientTransform="translate(337.76 143.31) rotate(90)" xlink:href="#Áåçûìÿííûé_ãðàäèåíò_192"/><linearGradient id="Áåçûìÿííûé_ãðàäèåíò_65" x1="226.71" y1="263.99" x2="226.71" y2="247.63" gradientUnits="userSpaceOnUse"><stop offset="0"/><stop offset="1" stop-color="#fff"/></linearGradient><linearGradient id="Áåçûìÿííûé_ãðàäèåíò_50-15" x1="291.67" y1="274.38" x2="359.09" y2="274.38" gradientTransform="matrix(-0.21, 0.98, 0.98, 0.21, 302.19, -242.95)" xlink:href="#Áåçûìÿííûé_ãðàäèåíò_50"/><linearGradient id="Áåçûìÿííûé_ãðàäèåíò_50-16" x1="291.76" y1="271.73" x2="359.08" y2="271.73" gradientTransform="matrix(-0.21, 0.98, 0.98, 0.21, 122.95, -267.34)" xlink:href="#Áåçûìÿííûé_ãðàäèåíò_50"/><linearGradient id="Áåçûìÿííûé_ãðàäèåíò_59-2" x1="328.16" y1="265.31" x2="328.16" y2="249.8" gradientTransform="matrix(-0.21, 0.98, 0.98, 0.21, 302.19, -242.95)" xlink:href="#Áåçûìÿííûé_ãðàäèåíò_206"/><radialGradient id="Áåçûìÿííûé_ãðàäèåíò_204-4" cx="327.92" cy="257.28" r="18.63" gradientTransform="matrix(-0.21, 0.98, 0.98, 0.21, 302.19, -242.95)" xlink:href="#Áåçûìÿííûé_ãðàäèåíò_206"/><radialGradient id="Áåçûìÿííûé_ãðàäèåíò_192-14" cx="-83.14" cy="18.01" r="7.5" gradientTransform="translate(398.03 124.03) rotate(-167.03)" xlink:href="#Áåçûìÿííûé_ãðàäèåíò_192"/><radialGradient id="Áåçûìÿííûé_ãðàäèåíò_192-15" cx="-86.01" cy="6.8" r="8.46" gradientTransform="translate(398.03 124.03) rotate(-167.03)" xlink:href="#Áåçûìÿííûé_ãðàäèåíò_192"/><linearGradient id="Áåçûìÿííûé_ãðàäèåíò_65-2" x1="321.94" y1="288.81" x2="321.94" y2="264.94" gradientTransform="matrix(-0.21, 0.98, 0.98, 0.21, 302.19, -242.95)" xlink:href="#Áåçûìÿííûé_ãðàäèåíò_65"/><linearGradient id="Áåçûìÿííûé_ãðàäèåíò_113" x1="160.44" y1="195" x2="196.38" y2="195" gradientTransform="matrix(-0.05, -1, 1, -0.05, 126.71, 248.53)" gradientUnits="userSpaceOnUse"><stop offset="0" stop-color="#95699e"/><stop offset="1" stop-color="#784aa6"/></linearGradient><radialGradient id="Áåçûìÿííûé_ãðàäèåíò_105" cx="182.23" cy="194.2" r="17.25" gradientTransform="matrix(-0.05, -1, 1, -0.05, 126.71, 248.53)" gradientUnits="userSpaceOnUse"><stop offset="0" stop-color="#dcc5d9"/><stop offset="1" stop-color="#b3a9e4"/></radialGradient><radialGradient id="Áåçûìÿííûé_ãðàäèåíò_110" cx="183.28" cy="191.77" r="21.83" gradientTransform="matrix(-0.05, -1, 1, -0.05, 126.71, 248.53)" gradientUnits="userSpaceOnUse"><stop offset="0" stop-color="#caa7c5"/><stop offset="1" stop-color="#9a8ed5"/></radialGradient><linearGradient id="Áåçûìÿííûé_ãðàäèåíò_65-3" x1="318.1" y1="126.52" x2="318.1" y2="107.08" gradientTransform="translate(-12.56 68.51) rotate(-20.12)" xlink:href="#Áåçûìÿííûé_ãðàäèåíò_65"/><radialGradient id="Áåçûìÿííûé_ãðàäèåíò_192-16" cx="130.42" cy="26.46" r="10.85" gradientTransform="matrix(1, 0, 0, 1, 0, 0)" xlink:href="#Áåçûìÿííûé_ãðàäèåíò_192"/><linearGradient id="Áåçûìÿííûé_ãðàäèåíò_10-2" x1="486.49" y1="212.77" x2="479.57" y2="153.37" gradientTransform="matrix(0.97, 0.26, -0.26, 0.97, 67.07, -80.68)" xlink:href="#Áåçûìÿííûé_ãðàäèåíò_10"/><linearGradient id="Áåçûìÿííûé_ãðàäèåíò_10-3" x1="479.78" y1="213" x2="479.78" y2="152.13" gradientTransform="matrix(0.97, 0.26, -0.26, 0.97, 67.07, -80.68)" xlink:href="#Áåçûìÿííûé_ãðàäèåíò_10"/><linearGradient id="Áåçûìÿííûé_ãðàäèåíò_135-4" x1="435.47" y1="250.7" x2="431" y2="212.28" gradientTransform="matrix(0.94, 0.33, -0.52, 1.49, 186.96, -268.97)" xlink:href="#Áåçûìÿííûé_ãðàäèåíò_135"/><linearGradient id="Áåçûìÿííûé_ãðàäèåíò_3" x1="489.59" y1="366.86" x2="489.59" y2="293.78" gradientTransform="matrix(-1, 0, 0, 1, 1031.88, -24.38)" xlink:href="#Áåçûìÿííûé_ãðàäèåíò_15"/><linearGradient id="Áåçûìÿííûé_ãðàäèåíò_3-2" x1="515.43" y1="366.86" x2="515.43" y2="317.58" gradientTransform="matrix(-1, 0, 0, 1, 1031.88, -24.38)" xlink:href="#Áåçûìÿííûé_ãðàäèåíò_15"/><linearGradient id="Áåçûìÿííûé_ãðàäèåíò_3-3" x1="540.99" y1="366.86" x2="540.99" y2="339.6" gradientTransform="matrix(-1, 0, 0, 1, 1031.88, -24.38)" xlink:href="#Áåçûìÿííûé_ãðàäèåíò_15"/><linearGradient id="Áåçûìÿííûé_ãðàäèåíò_152" x1="530.69" y1="342.33" x2="530.69" y2="269.4" gradientUnits="userSpaceOnUse"><stop offset="0" stop-color="#a4152c"/><stop offset="1" stop-color="#c73e27"/></linearGradient><linearGradient id="Áåçûìÿííûé_ãðàäèåíò_152-2" x1="507.38" y1="342.15" x2="507.38" y2="293.2" xlink:href="#Áåçûìÿííûé_ãðàäèåíò_152"/><linearGradient id="Áåçûìÿííûé_ãðàäèåíò_152-3" x1="482.7" y1="342.15" x2="482.7" y2="315.22" xlink:href="#Áåçûìÿííûé_ãðàäèåíò_152"/><radialGradient id="Áåçûìÿííûé_ãðàäèåíò_57-2" cx="446.31" cy="-42.11" r="34.59" gradientTransform="translate(176.91 -105.27) rotate(39.39)" xlink:href="#Áåçûìÿííûé_ãðàäèåíò_57"/><radialGradient id="Áåçûìÿííûé_ãðàäèåíò_13-7" cx="443.63" cy="-42.32" r="34.51" gradientTransform="translate(176.91 -105.27) rotate(39.39)" xlink:href="#Áåçûìÿííûé_ãðàäèåíò_13"/><linearGradient id="Áåçûìÿííûé_ãðàäèåíò_329" x1="430.47" y1="-8.33" x2="430.47" y2="-19.61" gradientTransform="matrix(0.67, 0.75, -0.75, 0.67, 282.05, -175.55)" gradientUnits="userSpaceOnUse"><stop offset="0" stop-color="#683b55"/><stop offset="0.19" stop-color="#4f2d40"/><stop offset="0.55" stop-color="#24151e"/><stop offset="0.83" stop-color="#0a0608"/><stop offset="1"/></linearGradient><radialGradient id="Áåçûìÿííûé_ãðàäèåíò_57-3" cx="377.69" cy="110.56" r="5.47" xlink:href="#Áåçûìÿííûé_ãðàäèåíò_57"/><radialGradient id="Áåçûìÿííûé_ãðàäèåíò_57-4" cx="532.68" cy="153.11" r="18.66" xlink:href="#Áåçûìÿííûé_ãðàäèåíò_57"/></defs><g class="cls-1"><g id="devops"><path class="cls-2" d="M739,267l-43.46-30.22a6.79,6.79,0,0,1-1.85-9.22l24.69-38.72a6.8,6.8,0,0,1,9.61-1.93L774.1,219a6.8,6.8,0,0,1,1.57,9.63l-27.35,36.86A6.78,6.78,0,0,1,739,267Z" transform="translate(-179.25 -24.38)"/><path class="cls-3" d="M738,259.13l-34.85-24.24a5.45,5.45,0,0,1-1.49-7.4l19.81-31.06a5.44,5.44,0,0,1,7.7-1.54l37,25.72a5.45,5.45,0,0,1,1.27,7.72L745.5,257.9A5.45,5.45,0,0,1,738,259.13Z" transform="translate(-179.25 -24.38)"/><path class="cls-4" d="M737.69,256.56l-32-22.28a5,5,0,0,1-1.36-6.81l18.2-28.55a5,5,0,0,1,7.08-1.41l34,23.64a5,5,0,0,1,1.17,7.1l-20.17,27.18A5,5,0,0,1,737.69,256.56Z" transform="translate(-179.25 -24.38)"/><polygon class="cls-5" points="548.73 162.5 549.93 170.5 586.92 196.23 594.85 194.57 548.73 162.5"/><polygon class="cls-6" points="559.74 242.59 558.76 234.74 523.91 210.51 516.28 212.37 559.74 242.59"/><path class="cls-7" d="M745.61,237.75l3.79-5.2-3.3-1.79A12.44,12.44,0,0,0,747,227l3.66-.24-1-6.36L746,221.47a11.82,11.82,0,0,0-2-3.27l2.43-2.76-5.2-3.79-1.8,3.3a11.81,11.81,0,0,0-3.76-.86l-.23-3.67-6.36,1,1.06,3.6a12.1,12.1,0,0,0-3.26,2l-2.77-2.42-3.79,5.2,3.3,1.79a12.13,12.13,0,0,0-.85,3.76l-3.67.24,1,6.36,3.6-1.06a12,12,0,0,0,2.05,3.26L723.29,237l5.2,3.79,1.8-3.29a12.07,12.07,0,0,0,3.76.85l.24,3.67,6.35-1-1.06-3.6a12.31,12.31,0,0,0,3.27-2Zm-14.42-6.3a6.4,6.4,0,1,1,8.91-1.6A6.4,6.4,0,0,1,731.19,231.45Z" transform="translate(-179.25 -24.38)"/><path class="cls-8" d="M664.65,118.31l-30.63-5a4,4,0,0,1-3.31-4.42L634,82.12a4,4,0,0,1,4.61-3.44L671.13,84a4,4,0,0,1,3.26,4.7l-5.18,26.41A4,4,0,0,1,664.65,118.31Z" transform="translate(-179.25 -24.38)"/><path class="cls-9" d="M662.15,114.4l-24.56-4.05a3.19,3.19,0,0,1-2.66-3.54l2.66-21.44a3.19,3.19,0,0,1,3.69-2.76l26.08,4.29A3.2,3.2,0,0,1,670,90.67l-4.16,21.19A3.19,3.19,0,0,1,662.15,114.4Z" transform="translate(-179.25 -24.38)"/><path class="cls-10" d="M661.34,113.12l-22.59-3.72a2.93,2.93,0,0,1-2.43-3.26l2.44-19.71a2.93,2.93,0,0,1,3.39-2.53l24,3.95a2.92,2.92,0,0,1,2.4,3.46l-3.82,19.48A2.94,2.94,0,0,1,661.34,113.12Z" transform="translate(-179.25 -24.38)"/><polygon class="cls-5" points="459.38 54.29 462.03 58.23 488.11 62.52 491.88 59.65 459.38 54.29"/><polygon class="cls-6" points="485.4 93.92 482.9 90.02 458.34 85.97 454.77 88.88 485.4 93.92"/><polygon class="cls-11" points="467.96 65.57 463.27 64.43 460.5 81.23 465.35 81.39 465.59 79.94 462.25 79.2 464.07 66.34 467.73 66.95 467.96 65.57"/><polygon class="cls-12" points="480.14 67.58 484.94 68 482.18 84.8 477.53 83.39 477.77 81.95 481.17 82.31 483.57 69.56 479.91 68.95 480.14 67.58"/><polygon class="cls-13" points="466.36 81.42 476.53 67.39 479.09 67.81 468.11 81.7 466.36 81.42"/><circle class="cls-14" cx="228.44" cy="163.52" r="142.23"/><path class="cls-15" d="M510,220.7a115.88,115.88,0,0,1-27.45-3.8c-12.81-3.27-36.48-11.42-51-29.29l.83-.68c24.83,30.48,80.33,36.63,91,30.42a34.31,34.31,0,0,0,9.73-8.4l-.27-.12c-8.77-4.06-12.59-10.64-10.22-17.62,1.86-5.5,7.32-9.67,11.45-8.73,3.18.72,5.37,3.53,6,7.72.83,5.33-.88,12.18-5.31,18.32,19.57,8.47,45.39,8.76,45.66,8.76v1.07c-.27,0-26.5-.29-46.31-8.95a35.16,35.16,0,0,1-10.19,8.88C521.09,219.9,516.16,220.7,510,220.7Zm22.77-37.29c-3.47,0-7.63,3.58-9.18,8.15-1,3.07-2.19,10.82,9.66,16.3l.49.22c4.35-5.94,6-12.57,5.25-17.71-.58-3.74-2.47-6.23-5.19-6.84A4.4,4.4,0,0,0,532.78,183.41Z" transform="translate(-179.25 -24.38)"/><path class="cls-16" d="M565.38,254.18c-6.4-3.25-10.68-5-15.69-9.6,0,0,45.4,7.22,75.84,2.77l69,7.58S643.58,274.67,565.38,254.18Z" transform="translate(-179.25 -24.38)"/><path class="cls-17" d="M565.38,254.18s75,18.85,129.1.75a6,6,0,0,1,1.53,5.53S633.8,275,565,257.31A6.67,6.67,0,0,1,565.38,254.18Z" transform="translate(-179.25 -24.38)"/><path class="cls-18" d="M549.69,244.58a9.19,9.19,0,0,0-.5,4.54L565,257.31l.34-3.13S554.31,248.57,549.69,244.58Z" transform="translate(-179.25 -24.38)"/><path class="cls-19" d="M584.38,248.22a163.69,163.69,0,0,0,37.71,12s15.51,1.1,23-.78l-33.71-10.86S589.43,248.42,584.38,248.22Z" transform="translate(-179.25 -24.38)"/><path class="cls-20" d="M645.42,233.25a17,17,0,0,1-4.43,8.52s-6.25,5.24-26.12.24C595.64,237.18,576,222.76,576,222.76L573.49,216s16.44-4.84,30.54,1.11S637.68,234.12,645.42,233.25Z" transform="translate(-179.25 -24.38)"/><path class="cls-21" d="M637.87,237.28c-16.22.8-28.52-16.52-43.19-20A57.2,57.2,0,0,0,573.54,216h0c7-4.39,29.72-11.61,49.44-5.11,11.94,3.93,21.24,13.1,22.37,19.53,0,.21.07.42.09.62a2.17,2.17,0,0,1,0,.26C645.6,234.63,643.37,237,637.87,237.28Z" transform="translate(-179.25 -24.38)"/><path class="cls-22" d="M589.7,216.34l-.11-.18c6.48-3.91,14.66-7,20.82-7.77l0,.21C604.3,209.41,596.16,212.45,589.7,216.34Z" transform="translate(-179.25 -24.38)"/><path class="cls-23" d="M589.65,210.92s9.87-1.08,17.49,2.38l5.21-1.77a42.47,42.47,0,0,0-19.88-1.27Z" transform="translate(-179.25 -24.38)"/><path class="cls-24" d="M607.14,213.3l2.32-.79s-6.11-6.82-16.26-2l12.3,2.15Z" transform="translate(-179.25 -24.38)"/><path class="cls-25" d="M605.5,212.63s-4.5-5.16-13.1-1.86Z" transform="translate(-179.25 -24.38)"/><path class="cls-26" d="M635.11,239.47c-9.15,0-18.12-6.26-26.28-11.94a86.15,86.15,0,0,0-12-7.51c-10.39-4.84-22.78-2.79-22.9-2.77l0-.21c.12,0,12.58-2.08,23,2.79a87.79,87.79,0,0,1,12,7.52c10.81,7.54,23.06,16.09,35.2,9.62l.1.19A19.19,19.19,0,0,1,635.11,239.47Z" transform="translate(-179.25 -24.38)"/><path class="cls-27" d="M614.87,242l4.52-11a39.14,39.14,0,0,0,11.35,5.51L625.9,244A57,57,0,0,1,614.87,242Z" transform="translate(-179.25 -24.38)"/><path class="cls-28" d="M637.87,237.28c-16.22.8-28.52-16.52-43.19-20A57.2,57.2,0,0,0,573.54,216,52,52,0,0,1,598,217.08c14.32,4.3,23,18.18,36.63,19.32,10.59.9,10.74-3.22,10.74-5.07C645.6,234.63,643.37,237,637.87,237.28Z" transform="translate(-179.25 -24.38)"/><path class="cls-29" d="M591.72,216.6v-.95a39.41,39.41,0,0,1,12.19,3.82L603,220.6S597.32,217.11,591.72,216.6Z" transform="translate(-179.25 -24.38)"/><path class="cls-30" d="M573.54,216a54.93,54.93,0,0,1,22.46,2.1c12,3.95,22.31,15.31,33.91,18.15,0,0-6.85-1.84-15.26-8.1S597.16,213.3,573.54,216Z" transform="translate(-179.25 -24.38)"/><path class="cls-31" d="M612.14,212.43c.63.16,1.06.55,1,.89s-.65.48-1.27.33-1.06-.55-1-.89S611.52,212.28,612.14,212.43Z" transform="translate(-179.25 -24.38)"/><path class="cls-32" d="M615.6,213.65c-.17,1-1.92,1.53-3.91,1.2s-3.47-1.42-3.3-2.42,1.92-1.53,3.91-1.2S615.77,212.65,615.6,213.65Z" transform="translate(-179.25 -24.38)"/><path class="cls-33" d="M479.33,361.23l-1.49,0-12.44-.32-.8.06-17.46-.4.45-1.16h0l-15.1-9.86c.07-.16-.42-.31-1.27-.43a38.38,38.38,0,0,0-4.75-.25l-180.42.34c-3.4,0-6.14.3-6,.67L225.15,358l1.37,4.73a6.68,6.68,0,0,0,1.69.33l-44.73,2.49,3.14,1.68,2.11.82,52-.52-6.7.4-.24.57-10.61.79,1.92.94,226.44,3.34,6.72.1,14.12.21,1.17-.71L466.48,372l.52-.4-6.44-.89h0l-.74-.11h0L454,369.8h0l-.73-.1h0l-4.29-.6-4.21-.7-.12,0-1.78-.29-1.31,0h0l1.31,0-1.29-.07h-.39l-1.39-.19-13.93-.19-.18,0-.19,0-13.08-.18-.05,0-.24,0-68.1-.92,145.34-1.45v-3.53Z" transform="translate(-179.25 -24.38)"/><path class="cls-34" d="M453.76,343.17c-.64,0-1.29,0-1.94,0-15.22-.59-27.5-5.89-36.51-15.74-8.81-9.64-14.26-23.47-16.12-40.63a159.15,159.15,0,0,0-26.68,6.76l-.64-1.67A161.81,161.81,0,0,1,399,285a139.1,139.1,0,0,1-.34-19.94c.46-9.07-3.86-16-12.85-20.64-28-14.46-98-2.46-129.07,22.13l-1.11-1.4c14.47-11.45,39-21.14,65.59-25.9,27.57-4.94,51.41-3.64,65.41,3.58,9.66,5,14.31,12.49,13.81,22.31a138.38,138.38,0,0,0,.32,19.57c15.38-2.4,34.78-3.25,52.73,2.3,23.71,7.32,32.16,23.24,30,35.76S469.79,343.17,453.76,343.17ZM401,286.47c1.8,16.82,7.1,30.34,15.67,39.71s20.54,14.59,35.27,15.16c16.06.62,27.8-6.78,29.87-18.88,2-11.75-6.11-26.75-28.79-33.76C435.28,283.23,416.13,284.09,401,286.47Z" transform="translate(-179.25 -24.38)"/><path class="cls-35" d="M444.25,115.11l-3.35,80.65-1.19,28.38a5.71,5.71,0,0,1-5.7,5.45H237.11a5.7,5.7,0,0,1-5.7-5.51l-3.48-109a5.72,5.72,0,0,1,5.7-5.91H438.55A5.72,5.72,0,0,1,444.25,115.11Z" transform="translate(-179.25 -24.38)"/><polygon class="cls-36" points="56.55 91.02 58.3 191.78 254.87 191.59 258.47 90.61 56.55 91.02"/><path class="cls-37" d="M231.41,224.08v-2.5l208.48-1.21-.18,3.77s.06,5.05-5.7,5.45H237.12S231.59,229.28,231.41,224.08Z" transform="translate(-179.25 -24.38)"/><circle class="cls-38" cx="242.25" cy="200.6" r="1.7"/><polygon class="cls-39" points="137.88 205.21 142.29 225.98 168.33 225.98 172.6 205.21 137.88 205.21"/><polygon class="cls-40" points="139.41 212.43 170.47 215.59 172.6 205.21 137.88 205.21 139.41 212.43"/><rect class="cls-41" x="122.76" y="225.98" width="63.57" height="3.97"/><polygon class="cls-42" points="186.33 225.98 168.77 223.86 141.84 223.86 122.76 225.98 186.33 225.98"/><polygon class="cls-43" points="171.34 229.95 171.34 225.98 185.21 225.98 184.36 229.95 171.34 229.95"/><path class="cls-43" d="M444.26,115.1l-3.36,80.66-1,8.19-3.57-4.61,3-85.53H334.62L330,109.13h108.6A5.71,5.71,0,0,1,444.26,115.1Z" transform="translate(-179.25 -24.38)"/><polygon class="cls-44" points="161.65 90.81 255.95 158.85 258.47 90.61 161.65 90.81"/><path class="cls-43" d="M230.07,182.12l5.73,4,1,30.72h49.48l11.49,12.75H237.12a5.79,5.79,0,0,1-5.71-4.61Z" transform="translate(-179.25 -24.38)"/><polygon class="cls-44" points="57.83 164.75 97.82 191.74 58.3 191.78 57.83 164.75"/><path class="cls-45" d="M369.63,198.75c-18,0-30.21-13-41-24.52-8.65-9.25-16.83-18-26.1-18a14.75,14.75,0,0,0,0,29.5v13c-15.31,0-27.76-7.75-27.76-23.05,0-18.68,12.45-32.46,27.76-32.46,14.91,0,25.43,11.24,35.6,22.1,9.82,10.5,19.1,20.41,31.47,20.41Z" transform="translate(-179.25 -24.38)"/><path class="cls-46" d="M369.63,203.45c-18,0-30.21-13-41-24.52-8.65-9.25-16.83-18-26.1-18a14.75,14.75,0,0,0,0,29.5v13a27.76,27.76,0,1,1,0-55.51c14.91,0,25.43,11.24,35.6,22.1,9.82,10.5,19.1,20.41,31.47,20.41l5.86,6.93Z" transform="translate(-179.25 -24.38)"/><path class="cls-47" d="M375.49,197.38l-5.86-6.93v-4.7a14.75,14.75,0,0,0,0-29.5c-9.85,0-19.87,10-29.55,19.64-11.28,11.24-22.95,22.86-37.52,22.86v-13c9.2,0,18.49-9.27,28.33-19.07,11.56-11.52,23.51-23.44,38.74-23.44S397.39,157,397.39,175.7C397.39,186.27,390.79,197.38,375.49,197.38Z" transform="translate(-179.25 -24.38)"/><path class="cls-48" d="M369.63,203.45l5.86-6.07-5.86-6.93a14.75,14.75,0,0,0,0-29.5c-9.85,0-19.87,10-29.55,19.64-11.28,11.24-22.95,22.86-37.52,22.86L297,197.26l5.56-6.81c9.2,0,18.49-9.27,28.33-19.07,11.56-11.52,23.51-23.44,38.74-23.44a27.76,27.76,0,1,1,0,55.51Z" transform="translate(-179.25 -24.38)"/><polygon class="cls-49" points="160.97 166.15 169.11 156 170.03 152.12 167.43 149.74 155.77 161.2 160.97 166.15"/><path class="cls-5" d="M363.13,148.68l2.29-5.13a26.65,26.65,0,0,1,14.39,1.86l.81,4.81S374.17,146.41,363.13,148.68Z" transform="translate(-179.25 -24.38)"/><path class="cls-5" d="M294.91,149l4.29-5.55a30.94,30.94,0,0,1,17.31,3.27v4.7S306,146.51,294.91,149Z" transform="translate(-179.25 -24.38)"/><rect class="cls-50" x="66.04" y="104.01" width="25.42" height="2.33"/><rect class="cls-50" x="66.04" y="108.29" width="38.35" height="2.33"/><rect class="cls-50" x="66.04" y="99.9" width="25.42" height="2.33"/><rect class="cls-50" x="66.04" y="95.23" width="15.25" height="2.33"/><rect class="cls-50" x="93.08" y="103.87" width="3.25" height="2.33"/><rect class="cls-50" x="66.04" y="117.01" width="25.42" height="2.33"/><rect class="cls-50" x="66.04" y="121.29" width="21.7" height="2.33"/><rect class="cls-50" x="88.46" y="121.29" width="21.7" height="2.33"/><rect class="cls-50" x="66.04" y="112.9" width="25.42" height="2.33"/><rect class="cls-50" x="93.08" y="116.87" width="3.25" height="2.33"/><rect class="cls-50" x="83.22" y="95.23" width="15.25" height="2.33"/><rect class="cls-50" x="66.04" y="134.7" width="25.42" height="2.33"/><rect class="cls-50" x="66.04" y="138.98" width="38.35" height="2.33"/><rect class="cls-50" x="66.04" y="130.59" width="25.42" height="2.33"/><rect class="cls-50" x="66.04" y="125.92" width="15.25" height="2.33"/><rect class="cls-50" x="93.08" y="134.56" width="3.25" height="2.33"/><rect class="cls-50" x="66.04" y="147.7" width="25.42" height="2.33"/><rect class="cls-50" x="66.04" y="151.98" width="21.7" height="2.33"/><rect class="cls-50" x="88.46" y="151.98" width="21.7" height="2.33"/><rect class="cls-50" x="66.04" y="143.59" width="25.42" height="2.33"/><rect class="cls-50" x="93.08" y="147.56" width="3.25" height="2.33"/><rect class="cls-50" x="66.04" y="178.32" width="25.42" height="2.33"/><rect class="cls-50" x="66.04" y="182.6" width="21.7" height="2.33"/><rect class="cls-50" x="88.46" y="182.6" width="21.7" height="2.33"/><rect class="cls-50" x="66.04" y="174.21" width="25.42" height="2.33"/><rect class="cls-50" x="93.08" y="178.18" width="3.25" height="2.33"/><rect class="cls-50" x="66.04" y="157.09" width="17.7" height="2.33"/><rect class="cls-50" x="66.04" y="165.81" width="12.71" height="2.33"/><rect class="cls-50" x="66.04" y="170.09" width="21.7" height="2.33"/><rect class="cls-50" x="88.46" y="170.09" width="21.7" height="2.33"/><rect class="cls-50" x="66.04" y="161.7" width="25.42" height="2.33"/><rect class="cls-50" x="81.29" y="165.67" width="15.05" height="2.33"/><rect class="cls-50" x="93.08" y="157.09" width="3.25" height="2.33"/><rect class="cls-50" x="83.22" y="125.92" width="15.25" height="2.33"/><polygon class="cls-50" points="120.84 100.28 121.39 105.73 193.63 105.63 194.88 100.28 120.84 100.28"/><path class="cls-51" d="M431.74,129.43l6.07-5.54s13.43-.08,20.45-1.07v9.23a88.6,88.6,0,0,1-19.94,1.82Z" transform="translate(-179.25 -24.38)"/><polygon class="cls-52" points="252.5 122.77 257.72 118.64 276.83 119.83 275.03 129.04 257.36 127.29 252.5 122.77"/><path class="cls-53" d="M437.28,172.78l-2.08,16.29s13,.92,24.08,4.67l3.36-18.22S453.67,172.34,437.28,172.78Z" transform="translate(-179.25 -24.38)"/><polygon class="cls-54" points="262.61 148.29 261.9 165.27 255.95 164.69 258.04 148.39 262.61 148.29"/><polygon class="cls-54" points="263.46 127.9 263.82 119.02 257.72 118.64 252.5 122.77 257.36 127.29 263.46 127.9"/><polygon class="cls-54" points="264.64 99.42 264.22 109.6 259.07 109.48 252.5 105.05 258.56 99.51 264.64 99.42"/><polygon class="cls-55" points="11.37 255.34 53.85 242.41 245.38 227.57 301.24 234.5 11.37 255.34"/><path class="cls-56" d="M424.63,263.31c0,5-1.53,9-3.41,9s-3.41-4-3.41-9,1.53-9,3.41-9S424.63,258.33,424.63,263.31Z" transform="translate(-179.25 -24.38)"/><polygon class="cls-57" points="194.12 231.55 115.19 244.98 41.07 246.3 53.85 242.41 194.12 231.55"/><polygon class="cls-58" points="14.35 264.02 16.35 268.3 301.24 252.79 301.24 247.38 14.35 264.02"/><polygon class="cls-59" points="77.26 250.6 291.72 232.82 301.24 234.5 77.26 250.6"/><polygon class="cls-60" points="245.38 227.57 245.38 238.51 53.95 252.52 53.85 242.41 245.38 227.57"/><polygon class="cls-61" points="14.35 264.02 11.37 255.34 301.24 234.5 301.24 247.38 14.35 264.02"/><polygon class="cls-44" points="258.04 249.88 255.95 237.54 293.68 234.49 292.42 247.49 258.04 249.88"/><polygon class="cls-62" points="23.9 263.46 21.36 254.62 46.74 252.79 47.49 262.1 23.9 263.46"/><circle class="cls-63" cx="421.5" cy="224.98" r="9.01" transform="translate(-214.88 339.56) rotate(-45)"/><ellipse class="cls-64" cx="432.86" cy="314.78" rx="9.01" ry="25.51" transform="translate(-89.73 700.98) rotate(-86.12)"/><path class="cls-65" d="M280.83,302.34c-.22,3.11-9.94,5-21.71,4.19s-21.16-4-21-7.08,9.93-5,21.71-4.19S281,299.23,280.83,302.34Z" transform="translate(-179.25 -24.38)"/><polygon class="cls-33" points="330.5 339.05 326 347.05 592.66 345.82 481 339.14 330.5 339.05"/><circle class="cls-66" cx="381" cy="285.88" r="0.55"/><polygon class="cls-67" points="50.8 279.59 48.98 274.73 286.23 294.82 285.12 298.49 50.8 279.59"/><polygon class="cls-68" points="48.98 274.73 94.29 256.3 257.18 268.39 286.23 294.82 48.98 274.73"/><polygon class="cls-69" points="58.84 273.31 278.81 291.8 280.03 286.66 254.27 267.03 97.45 255.39 59.26 267.66 58.84 273.31"/><polygon class="cls-70" points="59.26 267.66 280.03 286.66 254.27 267.03 97.45 255.39 59.26 267.66"/><polygon class="cls-71" points="273.93 282.01 67.85 264.9 69.03 264.52 273.23 281.47 273.93 282.01"/><polygon class="cls-72" points="267.73 277.28 76.94 261.98 78.01 261.63 267.03 276.75 267.73 277.28"/><polygon class="cls-73" points="263.62 274.25 83.21 259.96 84.3 259.61 263.05 273.73 263.62 274.25"/><polygon class="cls-74" points="259.43 270.44 89.79 257.85 90.99 257.46 258.87 269.92 259.43 270.44"/><polygon class="cls-75" points="257.18 268.39 95.56 255.99 96.4 255.72 255.96 268.06 257.18 268.39"/><polygon class="cls-76" points="90.08 263.05 89.9 262.62 95.12 260.47 95.11 260.72 95.19 260.92 90.08 263.05"/><rect class="cls-77" x="279.68" y="281.66" width="4.66" height="0.47" transform="translate(-265.96 105.73) rotate(-22.61)"/><polygon class="cls-78" points="75.76 269.02 74.61 268.98 82.57 265.67 82.75 266.11 75.76 269.02"/><rect class="cls-79" x="294.02" y="281.22" width="1.37" height="0.47" transform="translate(-274.76 139.6) rotate(-26.93)"/><polygon class="cls-80" points="96.07 267.24 96 267.24 96.01 266.98 95.91 266.79 102.18 263.58 102.25 263.59 102.23 263.83 102.34 264.04 96.07 267.24"/><polygon class="cls-81" points="106.62 261.85 106.55 261.84 106.57 261.6 106.46 261.39 111.19 258.99 111.4 259.41 106.62 261.85"/><rect class="cls-82" x="436.36" y="297.04" width="0.47" height="4.51" transform="translate(-258.83 392.2) rotate(-47.23)"/><rect class="cls-83" x="429.65" y="291.77" width="0.47" height="2.66" transform="translate(-256.39 385.49) rotate(-47.26)"/><polygon class="cls-84" points="268.41 285.84 263.69 281.1 264.02 280.76 269.56 285.88 268.41 285.84"/><rect class="cls-85" x="424.11" y="292.76" width="0.47" height="4.95" transform="translate(-267.72 336.04) rotate(-42.07)"/><polygon class="cls-86" points="253.26 280.22 249.3 275.84 249.47 275.69 249.48 275.45 249.57 275.46 249.65 275.53 253.61 279.9 253.26 280.22"/><rect class="cls-87" x="420.27" y="290.2" width="0.47" height="1.59" transform="translate(-265.73 333.41) rotate(-42.19)"/><polygon class="cls-88" points="240.28 275.17 240.15 275.16 238.35 272.16 238.75 271.91 240.5 274.81 240.3 274.94 240.28 275.17"/><polygon class="cls-89" points="236.22 268.61 235.15 266.82 235.55 266.58 236.63 268.37 236.22 268.61"/><polygon class="cls-90" points="245.19 283.67 242.64 279.31 243.04 279.07 245.85 283.72 245.19 283.67"/><polygon class="cls-91" points="228.29 266.26 227.84 265.17 228.27 264.99 228.72 266.08 228.29 266.26"/><rect class="cls-92" x="411.66" y="298.48" width="0.47" height="4.48" transform="translate(-262.35 153.57) rotate(-22.2)"/><polygon class="cls-93" points="230.63 271.65 230.47 271.64 229.01 268.04 229.45 267.87 230.85 271.32 230.64 271.41 230.63 271.65"/><rect class="cls-94" x="401.7" y="295.05" width="0.47" height="2.97" transform="translate(-251.41 114.92) rotate(-18.07)"/><polygon class="cls-95" points="220.89 267.43 220.31 265.64 220.76 265.49 221.34 267.28 220.89 267.43"/><polygon class="cls-96" points="225.63 281.97 224.26 277.74 224.71 277.59 226.34 282.04 225.63 281.97"/><polygon class="cls-97" points="213.51 270.12 212.83 266.8 213.3 266.71 213.97 270.02 213.51 270.12"/><rect class="cls-98" x="391.68" y="288.97" width="0.47" height="0.38" transform="translate(-230.5 62.76) rotate(-11.91)"/><rect class="cls-99" x="393.73" y="297.19" width="0.47" height="4.12" transform="translate(-230.92 59.99) rotate(-11.48)"/><rect class="cls-100" x="383.88" y="288.72" width="0.47" height="1.81" transform="translate(-192.34 -6.15) rotate(-2.67)"/><rect class="cls-101" x="384.49" y="300.46" width="0.47" height="4.16" transform="translate(-193.03 -5.99) rotate(-2.69)"/><rect class="cls-102" x="384.13" y="293.77" width="0.47" height="2.73" transform="translate(-192.84 -5.79) rotate(-2.72)"/><rect class="cls-103" x="300.34" y="282.86" width="4.72" height="0.47" transform="translate(-283.08 178.06) rotate(-31.86)"/><rect class="cls-104" x="281.71" y="293.89" width="6.49" height="0.47" transform="translate(-291.57 170.36) rotate(-31.86)"/><rect class="cls-105" x="292.67" y="287.75" width="4.32" height="0.47" transform="translate(-286.86 174.69) rotate(-31.87)"/><rect class="cls-106" x="307.16" y="286.17" width="4.33" height="0.47" transform="translate(-289.23 218.53) rotate(-36.87)"/><polygon class="cls-107" points="134.33 259.13 134.24 259.12 134.25 258.88 134.12 258.69 134.26 258.59 134.54 258.97 134.33 259.13"/><polygon class="cls-108" points="120.88 269.24 120.57 268.88 125.08 265.49 125.36 265.87 120.88 269.24"/><rect class="cls-109" x="319.26" y="284.64" width="2.74" height="0.47" transform="translate(-287.13 242.17) rotate(-39.17)"/><rect class="cls-110" x="304.8" y="295.77" width="5.14" height="0.47" transform="translate(-298.56 277.55) rotate(-44.72)"/><rect class="cls-111" x="312.97" y="289.35" width="3.76" height="0.47" transform="translate(-291.41 239.57) rotate(-39.17)"/><rect class="cls-112" x="323.83" y="287.43" width="3.82" height="0.47" transform="translate(-286.77 297.07) rotate(-45.91)"/><polygon class="cls-113" points="139.32 271.02 138.98 270.68 139.23 270.43 142.63 266.93 142.97 267.26 139.32 271.02"/><rect class="cls-114" x="330.96" y="290.76" width="3.1" height="0.47" transform="translate(-278.56 360.27) rotate(-53.43)"/><polygon class="cls-115" points="149.43 271.44 149.43 271.43 149.9 271.47 149.43 271.44"/><polygon class="cls-116" points="156.47 262.68 156.09 262.4 157.47 260.56 157.68 260.67 157.86 260.82 156.47 262.68"/><rect class="cls-117" x="345.49" y="285.48" width="0.06" height="0.47" transform="matrix(0.52, -0.86, 0.86, 0.52, -257.15, 408.77)"/><rect class="cls-118" x="338.43" y="294.55" width="4.03" height="0.47" transform="translate(-262.24 423.71) rotate(-60.79)"/><polygon class="cls-119" points="163.8 266.23 163.39 266 165.02 263.09 165.43 263.32 163.8 266.23"/><polygon class="cls-120" points="171.59 269.48 171.15 269.31 172.14 266.72 172.58 266.88 171.59 269.48"/><polygon class="cls-121" points="173.73 263.9 173.28 263.74 174.02 261.8 174.45 262 174.42 262.07 173.73 263.9"/><rect class="cls-122" x="358.63" y="290.08" width="3.16" height="0.47" transform="translate(-190.72 541.41) rotate(-75.41)"/><rect class="cls-123" x="361.04" y="286.66" width="0.11" height="0.47" transform="matrix(0.25, -0.97, 0.97, 0.25, -186.75, 539.71)"/><polygon class="cls-124" points="179.14 273.94 178.67 273.87 179.67 270.02 180.13 270.13 179.14 273.94"/><rect class="cls-125" x="367.95" y="288.18" width="1.97" height="0.47" transform="translate(-125.23 610.63) rotate(-85.76)"/><rect class="cls-126" x="367.19" y="293.63" width="2.68" height="0.47" transform="matrix(0.07, -1, 1, 0.07, -131.03, 615.28)"/><rect class="cls-127" x="377.07" y="287.88" width="0.15" height="0.47" transform="translate(-95.19 637.03) rotate(-89.24)"/><rect class="cls-128" x="375.11" y="297.55" width="3.76" height="0.47" transform="matrix(0.02, -1, 1, 0.02, -106.15, 645.48)"/><rect class="cls-129" x="375.5" y="291.37" width="3.19" height="0.47" transform="translate(-99.34 639.93) rotate(-89.15)"/><polygon class="cls-130" points="61.4 273.53 61.41 274.94 275.12 293.01 276.23 291.61 61.4 273.53"/><polygon class="cls-44" points="257.35 290 259.17 284.86 275.63 286.28 272.44 291.16 257.35 290"/><polygon class="cls-44" points="251.77 291.9 250.64 295.71 271.74 297.41 273.32 293.73 251.77 291.9"/><polygon class="cls-131" points="358.98 310.39 352.81 312.49 315 240.23 318.68 240.22 358.98 310.39"/><polygon class="cls-132" points="315 240.23 320.93 238.93 318.68 240.22 315 240.23"/><polygon class="cls-133" points="320.93 238.93 359.77 303.3 358.98 310.39 318.68 240.22 320.93 238.93"/><polygon class="cls-134" points="418.04 297.88 424.2 300 462.28 226.86 458.61 226.84 418.04 297.88"/><polygon class="cls-135" points="462.28 226.86 456.35 225.55 458.61 226.84 462.28 226.86"/><polygon class="cls-136" points="456.35 225.55 418.72 288.39 418.04 297.88 458.61 226.84 456.35 225.55"/><polygon class="cls-137" points="343.99 317.35 350.02 329.86 396.73 329.13 443.13 308.99 442.94 296.51 343.99 317.35"/><polygon class="cls-138" points="365.64 296.81 343.99 317.35 393.12 313.27 442.94 296.51 413.77 285.84 365.64 296.81"/><polygon class="cls-139" points="355.62 313.27 391.42 302.57 428.91 297.99 355.62 313.27"/><polygon class="cls-140" points="428.91 297.99 405.74 287.67 388.06 289.89 370.23 295.77 355.62 313.27 391.42 302.57 428.91 297.99"/><polygon class="cls-44" points="391.42 302.57 388.06 289.89 405.74 287.67 428.91 297.99 391.42 302.57"/><path class="cls-141" d="M562.63,330.37a.74.74,0,1,1-.88-.56A.74.74,0,0,1,562.63,330.37Z" transform="translate(-179.25 -24.38)"/><path class="cls-142" d="M572.9,328.22a.74.74,0,1,1-.88-.55A.73.73,0,0,1,572.9,328.22Z" transform="translate(-179.25 -24.38)"/><path class="cls-143" d="M576.56,327.53a.74.74,0,1,1-.89-.55A.73.73,0,0,1,576.56,327.53Z" transform="translate(-179.25 -24.38)"/><path class="cls-144" d="M580.93,326.67a.74.74,0,1,1-.88-.55A.73.73,0,0,1,580.93,326.67Z" transform="translate(-179.25 -24.38)"/><polygon class="cls-44" points="393.12 313.27 396.73 329.13 443.13 308.99 442.94 296.51 393.12 313.27"/><polygon class="cls-40" points="351.71 326.51 348.18 319.51 394.14 317.74 440.48 300.04 439.63 308.38 395.98 325.83 351.71 326.51"/><polygon class="cls-145" points="351.71 326.51 353.02 325.37 395.36 323.51 437.31 307.82 439.63 308.38 395.98 325.83 351.71 326.51"/><path class="cls-146" d="M555.46,307.05,554,304.42a35.85,35.85,0,0,1,9.83-3.84,36.31,36.31,0,0,1,11-.75l-.25,3a33.16,33.16,0,0,0-10.07.69A32.53,32.53,0,0,0,555.46,307.05Z" transform="translate(-179.25 -24.38)"/><path class="cls-146" d="M558.06,311.51l-1.56-2.58A29.27,29.27,0,0,1,574.34,305l-.33,3a26.2,26.2,0,0,0-16,3.5Z" transform="translate(-179.25 -24.38)"/><path class="cls-146" d="M552.85,302.57,551.34,300a40.31,40.31,0,0,1,11.32-4.43,40.75,40.75,0,0,1,12.57-.87l-.25,3a37.69,37.69,0,0,0-11.66.8A37.19,37.19,0,0,0,552.85,302.57Z" transform="translate(-179.25 -24.38)"/><circle class="cls-147" cx="452.4" cy="72.28" r="21.88" transform="translate(-4.31 412.46) rotate(-61.8)"/><path class="cls-148" d="M447.82,96.75a26.21,26.21,0,1,0-20.37-31A26.2,26.2,0,0,0,447.82,96.75Zm9.74-47.09a21.88,21.88,0,1,1-25.86,17A21.87,21.87,0,0,1,457.56,49.66Z" transform="translate(-179.25 -24.38)"/><circle class="cls-149" cx="452.4" cy="72.28" r="21.88" transform="translate(-4.31 412.46) rotate(-61.8)"/><path class="cls-150" d="M475.85,58.74l7.07-3.84-4-5.25L473,54.49S473.34,57.7,475.85,58.74Z" transform="translate(-179.25 -24.38)"/><path class="cls-151" d="M482.32,58s-5.67-.61-6.64-8.3L507.5,24.38l10.09,13.17Z" transform="translate(-179.25 -24.38)"/><path class="cls-152" d="M517.59,37.55s.32-8.12-10.09-13.17A66.24,66.24,0,0,0,517.59,37.55Z" transform="translate(-179.25 -24.38)"/><path class="cls-153" d="M447.1,97.94a26.21,26.21,0,1,0-20.37-31A26.2,26.2,0,0,0,447.1,97.94Zm9.74-47.09a21.88,21.88,0,1,1-25.86,17A21.88,21.88,0,0,1,456.84,50.85Z" transform="translate(-179.25 -24.38)"/><path class="cls-43" d="M447,97.81a25.22,25.22,0,0,0,3.07.44l.29-3.07a23.34,23.34,0,0,1-2.73-.4,22.49,22.49,0,0,1-16.26-13.5l-2.78,1.36A25.59,25.59,0,0,0,447,97.81Z" transform="translate(-179.25 -24.38)"/><path class="cls-43" d="M470.39,91.07l-2-2.36a22.57,22.57,0,0,1-14.73,6.47l-.13,3.1A25.64,25.64,0,0,0,470.39,91.07Z" transform="translate(-179.25 -24.38)"/><path class="cls-154" d="M509.17,32.49,476.48,52.72a3.32,3.32,0,0,1-.52-1.41l31.59-25.1A24.41,24.41,0,0,0,509.17,32.49Z" transform="translate(-179.25 -24.38)"/><path class="cls-155" d="M466.84,88.71,454.76,50.53a21.67,21.67,0,0,0-12,2.12l-1.53,38.42s7.17,4.53,15,2.75S466.84,88.71,466.84,88.71Z" transform="translate(-179.25 -24.38)"/><path class="cls-156" d="M248.81,99.28l-33,6.73a4.33,4.33,0,0,1-5.07-3.2l-7-28.41a4.32,4.32,0,0,1,3.33-5.27L242.12,62a4.33,4.33,0,0,1,5.13,3.5l5,28.82A4.34,4.34,0,0,1,248.81,99.28Z" transform="translate(-179.25 -24.38)"/><path class="cls-157" d="M244.76,96.28l-26.5,5.4a3.47,3.47,0,0,1-4.06-2.57l-5.61-22.79a3.48,3.48,0,0,1,2.68-4.23l28.13-5.73a3.47,3.47,0,0,1,4.11,2.81l4,23.12A3.48,3.48,0,0,1,244.76,96.28Z" transform="translate(-179.25 -24.38)"/><path class="cls-158" d="M243.44,95.29l-24.36,5a3.2,3.2,0,0,1-3.74-2.36l-5.15-21a3.2,3.2,0,0,1,2.46-3.89l25.86-5.27a3.19,3.19,0,0,1,3.78,2.59L246,91.63A3.18,3.18,0,0,1,243.44,95.29Z" transform="translate(-179.25 -24.38)"/><polygon class="cls-5" points="27.8 44.74 32.02 47.71 60.15 41.97 62.87 37.59 27.8 44.74"/><polygon class="cls-6" points="69.56 74.89 65.51 71.89 39.01 77.29 36.52 81.63 69.56 74.89"/><path class="cls-159" d="M238.25,83.37l-.73-4-2.28.73a7.67,7.67,0,0,0-1.35-2l1.5-1.79L232,73.89,230.93,76a7.5,7.5,0,0,0-2.41-.49l-.2-2.33-4,.73L225,76.2a8,8,0,0,0-2,1.36l-1.79-1.5-2.34,3.37L221,80.52a7.5,7.5,0,0,0-.49,2.41l-2.33.2.73,4,2.27-.73a7.73,7.73,0,0,0,1.36,2l-1.5,1.8,3.37,2.34,1.09-2.13a7.77,7.77,0,0,0,2.41.49l.2,2.33,4-.73-.73-2.28A7.67,7.67,0,0,0,233.43,89l1.79,1.5,2.34-3.37L235.43,86a7.77,7.77,0,0,0,.49-2.41ZM229,87.25a4.08,4.08,0,1,1,3.18-4.81A4.08,4.08,0,0,1,229,87.25Z" transform="translate(-179.25 -24.38)"/><path class="cls-6" d="M395.49,128.87l-35.13-8a4.62,4.62,0,0,1-3.52-5.35l5.73-30.73a4.62,4.62,0,0,1,5.57-3.66l37.28,8.5a4.63,4.63,0,0,1,3.45,5.67L401,125.53A4.62,4.62,0,0,1,395.49,128.87Z" transform="translate(-179.25 -24.38)"/><path class="cls-160" d="M397.39,123.15l-37.79-8.62a5,5,0,0,1-3.78-5.76l6.15-33a5,5,0,0,1,6-3.94l40.1,9.14A5,5,0,0,1,411.78,87l-8.48,32.52A5,5,0,0,1,397.39,123.15Z" transform="translate(-179.25 -24.38)"/><path class="cls-161" d="M394.57,118.09l-30.3-6.91a4,4,0,0,1-3-4.62L366.17,80A4,4,0,0,1,371,76.88l32.17,7.34a4,4,0,0,1,3,4.9l-6.8,26.09A4,4,0,0,1,394.57,118.09Z" transform="translate(-179.25 -24.38)"/><path class="cls-162" d="M393.66,116.43l-27.87-6.35a3.67,3.67,0,0,1-2.79-4.25l4.54-24.37A3.67,3.67,0,0,1,372,78.55l29.58,6.75a3.67,3.67,0,0,1,2.73,4.5l-6.25,24A3.65,3.65,0,0,1,393.66,116.43Z" transform="translate(-179.25 -24.38)"/><polygon class="cls-5" points="188.72 47.4 191.73 52.5 223.9 59.84 228.82 56.54 188.72 47.4"/><polygon class="cls-6" points="218.14 98.77 215.32 93.71 185.02 86.79 180.35 90.15 218.14 98.77"/><polygon class="cls-163" points="201.2 62.72 190 69.57 197.78 80.89 198.96 78.75 194.08 70.14 201.92 64.08 201.2 62.72"/><polygon class="cls-164" points="211.13 64.99 218.26 76.01 206.34 82.84 206.2 80.4 214.33 74.75 209.89 65.9 211.13 64.99"/><path class="cls-165" d="M202,251.12l24.45-7.68a8.29,8.29,0,0,1,3-.05l28.73,8.48a1.29,1.29,0,0,1,.2,2.49l-28.9,9.19a8.48,8.48,0,0,1-6.13-.3l-21.61-9.7A1.28,1.28,0,0,1,202,251.12Z" transform="translate(-179.25 -24.38)"/><polygon class="cls-166" points="21.77 227.45 27.83 215.43 76.18 215.75 79.96 228.6 49.55 238.43 21.77 227.45"/><path class="cls-167" d="M207.71,239.44l20-4.9a7.14,7.14,0,0,1,2.44,0l24.46,5.32c1.09.17,1.18,1.26.14,1.61l-24.62,6.16a6.91,6.91,0,0,1-5-.25l-17.62-5.91A1,1,0,0,1,207.71,239.44Z" transform="translate(-179.25 -24.38)"/><path class="cls-168" d="M209.59,239.4l18.21-4.54a6.13,6.13,0,0,1,2.22,0l22.28,5c1,.15,1.06,1.07.11,1.39L230,246.82a6.28,6.28,0,0,1-4.57-.23l-16-5.38A1,1,0,0,1,209.59,239.4Z" transform="translate(-179.25 -24.38)"/><polygon class="cls-6" points="44.73 239.13 46.63 223.24 28.23 217.04 22.97 229.4 44.73 239.13"/><path class="cls-169" d="M230.47,238.18a4.26,4.26,0,0,0-.76,0q-.44.06-1.2.24l-1.86.42a10.78,10.78,0,0,1-1.88.27,13,13,0,0,1-1.65,0c.2.31-.16.56-1.06.77l-2.15.48c-.51.12-.86.21-1,.28s-.27.12-.25.18.15.11.37.17l.65.2-1.69.39-1.05-.34a8.73,8.73,0,0,1-1.07-.38c-.21-.09-.25-.2-.13-.33a3.24,3.24,0,0,1,1.2-.42l2.65-.59a2.59,2.59,0,0,0,1-.39c.16-.15,0-.27-.4-.39l1.54-.34a5.84,5.84,0,0,0,1.62.11,10.19,10.19,0,0,0,1.75-.22l2.68-.6a10.22,10.22,0,0,1,1.75-.25,8.06,8.06,0,0,1,1.35,0c.38,0,.88.13,1.51.24l1.31.24-1.71.4-.77-.16A4.05,4.05,0,0,0,230.47,238.18Z" transform="translate(-179.25 -24.38)"/><path class="cls-170" d="M227.48,243.51a3.54,3.54,0,0,0,.8-.07c.33-.05.78-.15,1.37-.29l2.29-.55a13,13,0,0,1,2-.32,15.17,15.17,0,0,1,1.74,0c-.09-.34.38-.63,1.4-.88l2.47-.59c.59-.15,1-.25,1.21-.33s.3-.14.26-.19a1.11,1.11,0,0,0-.47-.15l-.77-.15,1.88-.45,1.32.24c.63.12,1.08.21,1.34.29s.34.17.24.3a3.39,3.39,0,0,1-1.33.48l-3.21.78a5.12,5.12,0,0,0-1.43.51c-.29.18-.21.32.24.44l-2,.47a5.51,5.51,0,0,0-1.81,0,13.6,13.6,0,0,0-2.09.35l-3.11.75a11.5,11.5,0,0,1-2,.33,5.47,5.47,0,0,1-1.29-.07c-.32-.07-.73-.19-1.23-.34l-1.05-.34,1.87-.44.65.19A2.56,2.56,0,0,0,227.48,243.51Z" transform="translate(-179.25 -24.38)"/><path class="cls-171" d="M229.1,247.94l.34,15.61a8.4,8.4,0,0,1-5.46,0l1.9-15.88A4.18,4.18,0,0,0,229.1,247.94Z" transform="translate(-179.25 -24.38)"/><path class="cls-172" d="M507,101.9l-20,26.19a9.79,9.79,0,0,0-.8,3.32L491.17,165a1.47,1.47,0,0,0,2.74.83l20.27-30.08a9.7,9.7,0,0,0,1.17-6.94l-5.53-26.58A1.48,1.48,0,0,0,507,101.9Z" transform="translate(-179.25 -24.38)"/><polygon class="cls-173" points="328.81 76.61 308.47 81.16 296.93 135.35 312.92 142.05 334.27 110.42 328.81 76.61"/><path class="cls-174" d="M487.14,106.15l-10.39,21.18a7.74,7.74,0,0,0-.65,2.72L476,158.74c-.07,1.26,1.13,1.63,1.77.54l13-26a8,8,0,0,0,.95-5.67l-2.28-21.19A1.21,1.21,0,0,0,487.14,106.15Z" transform="translate(-179.25 -24.38)"/><path class="cls-175" d="M486.63,108.25l-9.56,19.26a7.32,7.32,0,0,0-.59,2.48l.12,26.17c-.07,1.15.94,1.46,1.53.47l11.79-23.71a7.2,7.2,0,0,0,.87-5.17l-2.08-19.29A1.1,1.1,0,0,0,486.63,108.25Z" transform="translate(-179.25 -24.38)"/><polygon class="cls-6" points="336.23 105.2 312.59 104.12 310.18 82 330.7 78.45 336.23 105.2"/><path class="cls-176" d="M480.13,131.32a5.75,5.75,0,0,1,.25-.84c.12-.31.31-.74.56-1.28l.93-2a14.29,14.29,0,0,0,.77-2,18.5,18.5,0,0,0,.41-1.84c.29.29.66,0,1.11-1l1.08-2.28a11.24,11.24,0,0,1,.56-1.1c.12-.2.21-.28.26-.24s.09.19.11.46l.06.77.85-1.8-.12-1.26a12.18,12.18,0,0,0-.16-1.29c-.05-.25-.16-.33-.34-.23a3.68,3.68,0,0,0-.77,1.25l-1.31,2.82a2.83,2.83,0,0,1-.69,1q-.3.21-.33-.54l-.76,1.64a7,7,0,0,1-.28,1.84,11.4,11.4,0,0,1-.68,1.9l-1.33,2.85a11.23,11.23,0,0,0-.7,1.9,9.82,9.82,0,0,0-.29,1.53c0,.44-.07,1-.1,1.75l-.05,1.53.86-1.82,0-.9A6.15,6.15,0,0,1,480.13,131.32Z" transform="translate(-179.25 -24.38)"/><path class="cls-177" d="M486.84,129.28a4.48,4.48,0,0,1-.27.89c-.14.35-.36.83-.67,1.45l-1.18,2.44a14.32,14.32,0,0,0-.85,2.15,17.11,17.11,0,0,0-.48,1.95c-.35-.19-.79.26-1.32,1.34l-1.27,2.63c-.31.61-.53,1-.66,1.26s-.23.31-.28.25a1.38,1.38,0,0,1-.05-.57l0-.9-1,2-.05,1.52c0,.75,0,1.27,0,1.58s.11.42.28.34a3.8,3.8,0,0,0,.86-1.37l1.67-3.4a5.89,5.89,0,0,1,.92-1.48c.27-.28.41-.16.43.38l1-2.06a6.45,6.45,0,0,1,.38-2,15.9,15.9,0,0,1,.91-2.26l1.61-3.3a11.9,11.9,0,0,0,.85-2.14,5.84,5.84,0,0,0,.24-1.46,14.55,14.55,0,0,0-.08-1.46l-.11-1.26-1,2,.06.78A3.08,3.08,0,0,1,486.84,129.28Z" transform="translate(-179.25 -24.38)"/><path class="cls-178" d="M491.4,132.19l22.78,3.52a9.63,9.63,0,0,0,1.3-6.12l-23.64-1.08A10.83,10.83,0,0,1,491.4,132.19Z" transform="translate(-179.25 -24.38)"/><path class="cls-179" d="M331.19,42.4,340.87,51a2.23,2.23,0,0,1,.26,2.77l-8.4,20.56a7.35,7.35,0,0,1-7.18,4.25L288,75.92a3.28,3.28,0,0,1-3-3.69l1.92-14.38Z" transform="translate(-179.25 -24.38)"/><path class="cls-180" d="M287.66,56.88l12.41-12a5.47,5.47,0,0,1,3.54-1.53L330,42.14c1.76-.08,1.41,1,.55,2.53l-7.22,14.82a4.46,4.46,0,0,1-3.77,2l-30.54-.77A2.24,2.24,0,0,1,287.66,56.88Z" transform="translate(-179.25 -24.38)"/><path class="cls-181" d="M288.67,56.06l11.71-11.3a5.16,5.16,0,0,1,3.34-1.44l24.93-1.17c1.66-.07,1.33,1,.52,2.39l-6.82,14a4.22,4.22,0,0,1-3.55,1.89L290,59.69A2.11,2.11,0,0,1,288.67,56.06Z" transform="translate(-179.25 -24.38)"/><polygon class="cls-182" points="144.11 35.1 153.48 49.96 161.88 29.4 151.33 20.28 144.11 35.1"/><path class="cls-183" d="M319.59,61.49l6,17.1s4.05,1.14,7.18-4.25l-9.37-14.85A4.81,4.81,0,0,1,319.59,61.49Z" transform="translate(-179.25 -24.38)"/><polygon class="cls-184" points="115.91 31.01 121.82 31.43 144.93 21.84 141.1 21.49 115.91 31.01"/><path class="cls-185" d="M558,197.56c-3.9.46-6.07-16.78-5.58-21.85.6-6.18,2.27-13,6.17-13.44s8.3,9.58,9.06,16S561.94,197.1,558,197.56Z" transform="translate(-179.25 -24.38)"/><path class="cls-186" d="M490,209.85l-4.05,11.61C488.17,215,491.39,210.88,490,209.85Zm-4.05,11.61-4.07,11.61C482.88,232.77,483.68,227.88,485.93,221.46ZM490,209.85l-4.05,11.61C488.17,215,491.39,210.88,490,209.85Zm-4.05,11.61-4.07,11.61C482.88,232.77,483.68,227.88,485.93,221.46Zm11.72,10.06,3.94,2.24,4.26-11.62-4.57-.76c.09-.43.17-.87.22-1.29a29.67,29.67,0,0,0,.39-5.79l4.77-3-2.17-10.23-4.58,4.37a13.34,13.34,0,0,0-2.33-3.41,8.29,8.29,0,0,0-.8-.77l2.8-6.46-7.44-2.42h0l-1.79,6.51a12.23,12.23,0,0,0-5,1.18l-.83-6.15-8.19,6.2,1.9,5.45a30.62,30.62,0,0,0-4,5.82l-3.95-2.23L466,220.78l4.57.76a31.21,31.21,0,0,0-.61,7.08l-4.77,3,2.17,10.23,4.58-4.37a12.68,12.68,0,0,0,3.13,4.17l-2.8,6.47,7.32,2.85,1.14-4.12.77-2.82a12.46,12.46,0,0,0,5.05-1.17l.81,6.14,8.19-6.2-1.89-5.45a30.21,30.21,0,0,0,3.22-4.45C497.14,232.45,497.39,232,497.65,231.52Zm-11.72-10.06c-2.25,6.42,0,13-4.07,11.61s-5.57-7.78-3.32-14.19,7.37-10.46,11.44-9S488.17,215,485.93,221.46ZM490,209.85l-4.05,11.61C488.17,215,491.39,210.88,490,209.85Zm-4.05,11.61-4.07,11.61C482.88,232.77,483.68,227.88,485.93,221.46Z" transform="translate(-179.25 -24.38)"/><path class="cls-187" d="M501.59,233.76l4.26-11.62-4.35-2-.7-.33.46-6.4,4.82-2.35-1.59-9.94L494,197.65l1.93,4.61,3.66-7.46-7.44-2.42-3.06-1-7.33-2.85-1.37,5-6.38-3-8.19,6.2,2.48,6.7-7.66,21.24-3.78,13.79,7.27.8-2.37,5.46,7.34,2.86L479.58,251l-1.68-3.37-1.06-2,3.88,1.27,6.63,2.15,8.19-6.2-5.07-6,6.4-3.94Zm-23-14.88c2.25-6.42,7.37-10.46,11.44-9l-4.05,11.61-4.07,11.61C477.78,231.64,476.29,225.29,478.54,218.88Z" transform="translate(-179.25 -24.38)"/><path class="cls-188" d="M491.09,230.33l4.26-11.62-4.57-.76a31.65,31.65,0,0,0,.61-7.07l4.77-3L494,197.65,489.41,202a12.72,12.72,0,0,0-3.13-4.18l2.8-6.46-7.33-2.85-1.9,6.93a12.43,12.43,0,0,0-5,1.18L474,190.5l-8.19,6.19,1.88,5.45a31.47,31.47,0,0,0-4,5.83l-3.95-2.23-4.26,11.62,4.57.77a31.65,31.65,0,0,0-.61,7.07l-4.77,3,2.17,10.24,4.58-4.37a12.68,12.68,0,0,0,3.13,4.17l-2.8,6.46,7.33,2.86,1.9-6.94a12.58,12.58,0,0,0,5-1.17l.81,6.14,8.19-6.2-1.88-5.45a31.91,31.91,0,0,0,4-5.82Zm-19.74-.68c-4.07-1.43-5.55-7.78-3.31-14.2s7.37-10.45,11.45-9,5.56,7.78,3.31,14.19S475.43,231.08,471.35,229.65Z" transform="translate(-179.25 -24.38)"/><polygon class="cls-189" points="327.41 186.92 316.91 183.5 312.14 186.49 322.64 189.91 327.41 186.92"/><polygon class="cls-190" points="316.29 218.42 305.79 215 303.9 209.55 314.4 212.97 316.29 218.42"/><polygon class="cls-189" points="307.03 173.46 312.79 175.12 314.74 173.26 318.56 174.51 320.33 170.42 309.83 167 307.03 173.46"/><path class="cls-189" d="M471,240.61l5.5,2.29-.46-3.46S473.07,241,471,240.61Z" transform="translate(-179.25 -24.38)"/><path class="cls-189" d="M471.84,209.13l9.26,4.9a14.26,14.26,0,0,1,2.38-2.52S481.06,201.3,471.84,209.13Z" transform="translate(-179.25 -24.38)"/><polygon class="cls-191" points="547.57 342.47 553.34 269.4 531.24 269.4 532.82 342.09 547.57 342.47"/><polygon class="cls-192" points="523.59 342.47 525.13 293.2 507.77 293.2 510.91 342.15 523.59 342.47"/><polygon class="cls-193" points="497.87 342.47 498.49 315.22 483.3 315.22 485.19 342.15 497.87 342.47"/><polygon class="cls-194" points="531.24 269.4 528.57 274.83 528.57 342.32 532.82 342.09 531.24 269.4"/><polygon class="cls-195" points="507.77 293.2 503.84 298.13 505.08 341.97 510.91 342.15 507.77 293.2"/><polygon class="cls-196" points="483.3 315.22 480.21 317.83 480.21 341.44 485.19 342.15 483.3 315.22"/><polygon class="cls-197" points="558.55 342.15 473.33 341.44 473.33 344.27 558.55 344.27 558.55 342.15"/><path class="cls-198" d="M587.58,124.71l-4.51-5-8.44,11.83L568,127.78l-2.29-7.31,12.36-7.6-4.6-5.08c-10.13.67-17.2,8.87-17.2,8.87-2.63,4.91-2.3,14.21-2.3,14.21L508.07,164a9.38,9.38,0,0,0,2.23,6.79s5.56,7.34,9.52,7.8L562,140.83s9,2.3,14.37.78C576.33,141.61,584.77,134.47,587.58,124.71Z" transform="translate(-179.25 -24.38)"/><path class="cls-199" d="M585.61,122.89l-2.9-3.59-10.05,10.45L566,126l-2.28-7.31,12.36-7.6-2.9-3.59c-10.13.66-18.9,7.38-18.9,7.38-2.63,4.92-2.36,17.22-2.36,17.22L506.1,162.18c-.4,4,7.79,14.14,11.75,14.59L560,139s9,2.3,14.37.78C574.36,139.79,582.8,132.65,585.61,122.89Z" transform="translate(-179.25 -24.38)"/><path class="cls-200" d="M574.36,139.79l2,1.82a33.36,33.36,0,0,0,7.25-8.44l-1.82-2A65.67,65.67,0,0,1,574.36,139.79Z" transform="translate(-179.25 -24.38)"/><path class="cls-201" d="M580.79,132.45,552,125.61l-.1,6.45-6.07,4.21,12.67,4.06L560,139s8.68,2.56,14.37.78A51.49,51.49,0,0,0,580.79,132.45Z" transform="translate(-179.25 -24.38)"/><path class="cls-31" d="M572.52,140.22l3.19-1.7s-.38,1.42-1.05,1.76A4.11,4.11,0,0,1,572.52,140.22Z" transform="translate(-179.25 -24.38)"/><polygon class="cls-202" points="380.74 114.63 372.72 104.67 372.66 107.67 379.26 115.95 382.71 116.44 380.74 114.63"/><path class="cls-203" d="M512.28,162.9l37.85-26.54,2.94,3.65-34.5,29.85S514.82,168.79,512.28,162.9Z" transform="translate(-179.25 -24.38)"/><path class="cls-204" d="M518.57,169.86s-3.48-2.32-4.55-5.62l36.11-26.12,2.94,1.89-2.94-3.65L512.28,162.9A11.05,11.05,0,0,0,518.57,169.86Z" transform="translate(-179.25 -24.38)"/><g id="Layer_2" data-name="Layer 2"><g id="OBJECTS"><circle class="cls-205" cx="433.12" cy="144.14" r="22.04"/><path class="cls-206" d="M631.36,152.12a25.1,25.1,0,0,1-28.55,39.62" transform="translate(-179.25 -24.38)"/><path class="cls-206" d="M595.38,187a25.1,25.1,0,0,1,17-43.6" transform="translate(-179.25 -24.38)"/><path class="cls-207" d="M599.14,168.42a5,5,0,0,1,5-5h.23a5,5,0,0,1,3.85,1.61l-1.17,1.1a3.46,3.46,0,0,0-2.6-1.1,3.42,3.42,0,0,0,0,6.84h0a3.37,3.37,0,0,0,2.6-1.15l1.17,1.11a5.28,5.28,0,0,1-9.07-3.17Z" transform="translate(-179.25 -24.38)"/><path class="cls-207" d="M609.07,172.26l.63-1.41a5.38,5.38,0,0,0,3.17,1.07c1.51,0,2.15-.54,2.15-1.26,0-2.1-5.78-.72-5.78-4.34,0-1.57,1.25-2.9,3.92-2.9a6.15,6.15,0,0,1,3.24.86l-.53,1.4a5.5,5.5,0,0,0-2.68-.76c-1.5,0-2.12.58-2.12,1.32,0,2.07,5.77.72,5.77,4.29,0,1.56-1.26,2.9-3.93,2.9A6.27,6.27,0,0,1,609.07,172.26Z" transform="translate(-179.25 -24.38)"/><path class="cls-207" d="M617.87,172.26l.63-1.41a5.36,5.36,0,0,0,3.21,1.07c1.51,0,2.15-.54,2.15-1.26,0-2.1-5.78-.72-5.78-4.34,0-1.57,1.25-2.9,3.92-2.9a6.15,6.15,0,0,1,3.24.86l-.57,1.4a5.54,5.54,0,0,0-2.69-.76c-1.5,0-2.11.58-2.11,1.32,0,2.07,5.77.72,5.77,4.29,0,1.56-1.27,2.9-3.93,2.9A6.27,6.27,0,0,1,617.87,172.26Z" transform="translate(-179.25 -24.38)"/></g></g><g id="Layer_2-2" data-name="Layer 2"><g id="OBJECTS-2" data-name="OBJECTS"><circle class="cls-205" cx="525.14" cy="119.2" r="28.78"/><path class="cls-208" d="M729.2,122.15a32.79,32.79,0,0,1-37.29,51.75" transform="translate(-179.25 -24.38)"/><path class="cls-208" d="M682.21,167.72a32.78,32.78,0,0,1,22.18-56.92" transform="translate(-179.25 -24.38)"/><path class="cls-209" d="M692.27,149l1.74-2.09a4,4,0,0,0,3.28,1.88c1.69,0,2.56-1,2.56-3V137.2H694v-2.57h8.92v10.93c0,3.88-1.93,5.79-5.55,5.79A6.19,6.19,0,0,1,692.27,149Z" transform="translate(-179.25 -24.38)"/><path class="cls-209" d="M705.49,149.86l1.12-2.23a8.46,8.46,0,0,0,4.38,1.25c1.86,0,2.64-.52,2.64-1.39,0-2.4-7.77-.14-7.77-5.16,0-2.38,2.14-3.93,5.54-3.93a10.16,10.16,0,0,1,4.69,1.08L715,141.72a6.9,6.9,0,0,0-3.6-.94c-1.79,0-2.64.59-2.64,1.41,0,2.54,7.77.28,7.77,5.2,0,2.36-2.16,3.89-5.7,3.89A9.8,9.8,0,0,1,705.49,149.86Z" transform="translate(-179.25 -24.38)"/></g></g><g id="Layer_2-3" data-name="Layer 2"><g id="Layer_3" data-name="Layer 3"><circle class="cls-205" cx="372.65" cy="48.58" r="33.46"/><path class="cls-210" d="M580.73,48.05a38.12,38.12,0,0,1-43.34,60.2" transform="translate(-179.25 -24.38)"/><path class="cls-210" d="M526.11,101A38.11,38.11,0,0,1,551.9,34.85" transform="translate(-179.25 -24.38)"/><path class="cls-50" d="M539.89,68.4V78.79H538V74.34h-5.38v4.45h-1.93V68.4h1.93v4.29H538V68.4Z" transform="translate(-179.25 -24.38)"/><path class="cls-50" d="M544.78,70h-3.44V68.4h8.85V70h-3.48v8.76h-1.93Z" transform="translate(-179.25 -24.38)"/><path class="cls-50" d="M561.19,78.79V71.9l-3.41,5.7h-.87L553.5,72v6.8h-1.89V68.4h1.58l4.13,6.85,4.06-6.89H563V78.79Z" transform="translate(-179.25 -24.38)"/><path class="cls-50" d="M565.78,68.4h1.93v8.76h5.48v1.63h-7.41Z" transform="translate(-179.25 -24.38)"/></g></g><g id="Layer_2-4" data-name="Layer 2"><g id="OBJECTS-3" data-name="OBJECTS"><circle class="cls-205" cx="23.8" cy="304.74" r="20.6"/><path class="cls-211" d="M220.81,313.78a23.48,23.48,0,0,1-26.7,37.05" transform="translate(-179.25 -24.38)"/><path class="cls-211" d="M187.21,346.4a23.47,23.47,0,0,1,15.84-40.75" transform="translate(-179.25 -24.38)"/><path class="cls-212" d="M191,330.28V324h1.47l3.46,4.19h-.72V324H197v6.32h-1.43l-3.48-4.2h.69v4.2Z" transform="translate(-179.25 -24.38)"/><path class="cls-212" d="M200,328.87h3.29v1.41h-5.09V324h5v1.38H200Zm-.13-2.47h2.93v1.32h-2.93Z" transform="translate(-179.25 -24.38)"/><path class="cls-212" d="M203.59,330.28l2.75-3.84v1.27L203.7,324h2l1.69,2.44h-.85l1.67-2.46h1.9l-2.63,3.67v-1.26l2.79,3.91h-2.06l-1.72-2.57h.82l-1.69,2.57Z" transform="translate(-179.25 -24.38)"/><path class="cls-212" d="M211.94,330.28v-4.91H210V324h5.64v1.41h-1.93v4.91Z" transform="translate(-179.25 -24.38)"/></g></g><g id="Layer_2-5" data-name="Layer 2"><g id="OBJECTS-4" data-name="OBJECTS"><circle class="cls-205" cx="38.06" cy="150.78" r="32.5"/><path class="cls-213" d="M245.5,151.29a37,37,0,0,1-42.13,58.47" transform="translate(-179.25 -24.38)"/><path class="cls-213" d="M192.41,202.77a37,37,0,0,1,25.06-64.3" transform="translate(-179.25 -24.38)"/><path class="cls-214" d="M209.25,181.07a5.87,5.87,0,0,1-2.15-.37,5.17,5.17,0,0,1-1.71-1,4.63,4.63,0,0,1-1.14-1.62,5.51,5.51,0,0,1,0-4.11,5,5,0,0,1,1.15-1.62,5.53,5.53,0,0,1,1.72-1,6.82,6.82,0,0,1,4.67.09,4.66,4.66,0,0,1,1.8,1.33l-1.74,1.55a3.29,3.29,0,0,0-1.09-.83,3.14,3.14,0,0,0-1.29-.27,3.48,3.48,0,0,0-1.15.2,2.57,2.57,0,0,0-.88.57,2.72,2.72,0,0,0-.59.94,3.42,3.42,0,0,0-.2,1.14,3.38,3.38,0,0,0,.2,1.14,2.88,2.88,0,0,0,.57.89,2.39,2.39,0,0,0,.87.57,2.93,2.93,0,0,0,1.13.2,3.26,3.26,0,0,0,1.2-.2,3.78,3.78,0,0,0,1.23-.74l1.55,1.94a6.41,6.41,0,0,1-2,.93A7.46,7.46,0,0,1,209.25,181.07Zm1.65-1.6v-3.71h2.47v4.06Z" transform="translate(-179.25 -24.38)"/><path class="cls-214" d="M215.15,180.88v-9.8h2.77v9.8Z" transform="translate(-179.25 -24.38)"/><path class="cls-214" d="M222,180.88v-7.6h-3v-2.2h8.78v2.2h-3v7.6Z" transform="translate(-179.25 -24.38)"/></g></g></g></g></svg>