<svg id="Layer_1" data-name="Layer 1" xmlns="http://www.w3.org/2000/svg" xmlns:xlink="http://www.w3.org/1999/xlink" viewBox="0 0 266.76 216.2"><defs><style>.cls-1{fill:#fff;}.cls-2{mix-blend-mode:multiply;}.cls-3{mask:url(#mask);}.cls-4{fill:#00a79c;}</style><mask id="mask" x="-51.48" y="-47.85" width="363.29" height="313.86" maskUnits="userSpaceOnUse"><g transform="translate(-85.62 -35.41)"><rect class="cls-1" x="62.15" y="29.27" width="307.26" height="230.44" transform="translate(-34.01 73.47) rotate(-17.93)"/><path d="M122.16,258.44c3.11-.46,5.5.74,8.28,1.21,0,.47,0,.93.05,1.65l2.67-1.43a1.91,1.91,0,0,1,.06,2.45l-1.61-1c.13.7.19,1,.24,1.33-1.61.35-1.62-.9-2.8-1.43.21,2.08.73,2.85-2.78,2.13-.18-.57-.37-1.15-.55-1.73l-3,1.2c-.41-.64-1-1.11-1-1.65s.81-1,1.33-1.52C122.09,258.26,122.2,258.39,122.16,258.44Z"/><path d="M143.65,77.8c-1.14.19-2,.76-2.87.32-.12-.06-.64.2-.85.39-1.55,1.35.46.95-6.34,1.45-.13-.26-.3-.63-.49-1,1-.87.92-2.45,2.93-2.72.1.6.1.6-.43,1.16a3.53,3.53,0,0,0,3.71-.3c.9-.61,2.21-.43,3.11-1.31.28-.28,1.24-.19,1.3.45A11.45,11.45,0,0,1,143.65,77.8Z"/><path d="M173.4,195.28l1.31-1.4-1.71.06c0-.11,0-.23,0-.29.65-.55,1.31-.94,2.14-.46s1.46-.7,2.12,0c1.69,1.76.48,3.09-.28,4.52a1.34,1.34,0,0,1-1.73.58c-1.19-.46-2.83-.4-3.31-1.69-.1-.27-.7-.37-1.08-.55C171.46,194.88,172.49,195.42,173.4,195.28Zm1.92-1c-.12.54,0,1,1,1.48C175.67,193.85,175.92,194.1,175.32,194.28Z"/><path d="M240.35,239.07l1.5-1.5c-1.58.31-2.66.25-3.08-.94l2.18-1.49c.5,1,.64,1.47,1,1.4a2.3,2.3,0,0,1,1.93.35c.43.28,1.77-.12,2,.17.82,1.09,1.26.81,1.62,1.07.26,2-2.39,1-2.8,2.5C244.69,240.58,245,240.71,240.35,239.07Zm4.41-1.21c-.77,0-.54-.06-.79.4C244.71,238.32,244.55,238.43,244.76,237.86Z"/><path d="M215.33,197.17l2.07,1.24,1.71-.83-.17,1.56,2.82,1.17a1.47,1.47,0,0,1-1.76.84c-3.77-1-3.19-.65-6.28,0l.61-1.59C211.41,200,211.24,200.26,215.33,197.17Z"/><path d="M166.9,83.58c4-1.83,2.71-1.32,5-1.77.44,1.52-2,1.54-2.41,2.82l2,.72c.4-.3.73-.55,1.16-.89l.68,1.07-2.94,1.93C169.69,85.77,166.71,85.85,166.9,83.58Z"/><path d="M281.34,244.37l2.81-.9c.22-1.31.19-.92-1-1.69.81-.2,1.81-.68,1.73-1.55s-1.26-.72-2.19-.51c-.07-.46-.12-.83-.22-1.49l-1.4,1.32c.23,1,.93,2,.49,2.67A2.23,2.23,0,0,0,281.34,244.37Z"/><path d="M98.13,265.15c-.24-.15-.54-.52-.93-.53a4.68,4.68,0,0,0-1.37.5c-.77-1.26.92-1.95,1.78-3.1-1.87.56-3.49,1.07-5,.75l.47,1.47c2.07-.19,1.79-.23,1.89.1l-1.08.6c.43,1.9,1.46.53,2.52,1.33.85.64,2.06.11,3.07.17.32,0,1.8-.57,1.35-1.7Z"/><path d="M154.4,79.37c-2.39-.49-1-1.35.86-2.73,1.44-.51,1,.82,1.74,1s1.39.39,2.05.57c-.86,2-2.74,2.31-4.88,2.65C154.24,80.37,154.31,79.94,154.4,79.37Z"/><path d="M109.81,86.77c-1.88-1.06-2.51-1.18-1-2.2a9.48,9.48,0,0,1,2.19-2,1.47,1.47,0,0,1,1.13-.08c2,2,1.38,2.16,1.15,3.29C111.73,84.93,110.91,86,109.81,86.77Z"/><path d="M253.58,236.48c-1.59.35-1.59.35-2.07-1.22l-1.16.72c1.22,1.09,1.11.86.86,1.27-3.57-.37-2.53-.15-3.67-1.17.36-.69.65-1.26,1-1.84C252,233.7,252,233.7,253.58,236.48Z"/><path d="M251.05,241.9c1-1.29,1-1.29,2.21-1.52l.8-2.15c1.22,1.71.14,3.39,0,4.94-.09.89-1.36.93-2.35,1.14.53-.84,1-1.56,1.49-2.35a2.23,2.23,0,0,0-2.54,1.19l-2.8-.05C248.23,241.87,248.23,241.87,251.05,241.9Z"/><path d="M180,264.17c1.13-.67.76-.11.2-2.31-.26-1,3.56.52,4.79,3.47-4.93,2.52-3,1.78-2.89.48.05-.73-.08-1.37-1.25-1.38C180.47,264.43,180.08,264.08,180,264.17Z"/><path d="M141.24,65.52c2.88-1.28,4.39.1,6.06,1.47-.06.11-.11.6-.41.78-.62.35-.79-.09-1.15-.39a6.75,6.75,0,0,0-2.12-.6l.26,1.57-2.62.21A2.9,2.9,0,0,0,141.24,65.52Z"/><path d="M282.09,198.67c.53,1.64.35,1.49.7,1l2.49,1.3c-1.58,1.09.66.64.54,1.15a2.31,2.31,0,0,1-3.67-.25c-1.57.17-.95.11-2.43.25C280.69,201,280.29,199.7,282.09,198.67Z"/><path d="M250.35,250l1,.43c-1.12.93-3.06,1.16-2.78,2.66l-2.24.64c-.46-.37-1.26-.91-1.19-1,.89-.92-.34-2.13,1.38-3l.33,1.47C246.94,251.22,250.92,250.1,250.35,250Z"/><path d="M303.85,210.92c-1.55.38-1.55.38-3.28,2.31-1.39-.19-.7-1.2-.9-1.95l1.68-.84c-.69-.38,0-.45-2.7.22-.12-1.59,0-1.69,1.54-1.49C300.86,209.26,302.87,208.6,303.85,210.92Z"/><path d="M158.29,248.32c.86.47,1.9.71,2,1.16.1.75-.69,1.49-1.76,1.88-1.45-1-1.77-2.43-2.39-3.92a8.18,8.18,0,0,1,1.81-1C159.64,246,158.82,247.31,158.29,248.32Z"/><path d="M294.59,207.65c2.73-2.11,3.06-2.19,1.6-3.06-.21-.12-.18-.48-.31-.86,1.83.29,4.16-.27,3.93,2.17-1.65.58-3.23,1.54-5,2.2Z"/><path d="M198.93,224c5.25.67-.52-.72,1.08-1.87,1-.69,2.63-.05,3.14.07-1.12.75-1.12.7-.59,2.07.41,1.07-1,2.16-2.67,1.24C199.49,225.27,199.38,224.74,198.93,224Z"/><path d="M296,223.5l1.95.76.51-1.66c.86.05.6-.3,1.24,2.3-1.65,0-1.73,2-3.6,1.53C295.36,225.69,295.45,224.74,296,223.5Z"/><path d="M186,264.46c1.2-.84,2.81-1.17,4-2.28,1,2.38-.48,2.5-2.06,2.86.14,1.56.43,1.08-1.48,2.14C186.3,266.28,186.16,265.45,186,264.46Z"/><path d="M248.94,249.66c0-.37.07-.85.15-1.7.6-.72,2.57-1.45,1.91-3,1.27-.18,1.42.51,1.73.88a9.55,9.55,0,0,1-.63,1.46,14,14,0,0,0-1,1.38c-.2.47.3,1.05-.7,1.36C250.41,250,250.69,250.07,248.94,249.66Z"/><path d="M98.73,237.41c1.23,0,1.68.41,1.51,1.2l-3.74.12c1.71-2.55,1.61-1.95.73-2.81a8.26,8.26,0,0,1,1.18-1c.34-.2,1-.4,1.18-.28C100.57,235.17,99.45,236.34,98.73,237.41Z"/><path d="M153.69,63.1c2.5,1.37,2.16.76,1.07,2.2-.42.56-.91,1.2-1.77,1s-1.32-.73-1.09-1.57c.36-1.29-.09-.89,1.83-1.58Z"/><path d="M169.65,88.35c-4.27,2.6.07,5.72-5.27,6C167.22,92.65,164.43,89.89,169.65,88.35Z"/><path d="M283.82,189.72c.59,1-.29,2.16,1.76,2.17-.82.43-1.12.7-1.4.72a32.59,32.59,0,0,1-4.31.06,5.7,5.7,0,0,0,2.36-1.84A7.84,7.84,0,0,1,283.82,189.72Z"/><path d="M345.3,198.35c-1.42,1.26-1.71,1.24-2.45-.15-.41-.76-1.65-1.62-.68-2.24.26-.17,1-.24,1.09-.1C344,196.6,345.56,196.82,345.3,198.35Z"/><path d="M157.82,179.34c-.51,1.13-1.19,1.55-1.9,1-1.51-1-3.08,1.35-1.56-1.07l-3.21-.94c1.17-1.43,2.1-.1,3.77.38C155.85,179,156.85,179.15,157.82,179.34Z"/><path d="M148,251.46c-.12-.72-.22-1.32-.34-2.11l1.84.48,1-1.36c.31,1.28,2.09,1.6,1.7,3.17-.31-.09-.6-.1-.69-.21-.4-.57-.89-.7-1.78-.28A6.54,6.54,0,0,1,148,251.46Z"/><path d="M175.57,180.33c-1.85.15-3.36.45-3.51-.29-.11-.5,1.67-1.63,2.58-2.29C175.66,178.1,176,178.76,175.57,180.33Z"/><path d="M334.06,187.76l3-.6-1.27,3.54-2.1.25C335,188.28,334.94,189,334.06,187.76Z"/><path d="M139.86,85.37c-.19,1.43-.36,2.65-.55,4.08a7.2,7.2,0,0,1-1.05-.63C135.76,86.42,136.56,86.6,139.86,85.37Z"/><path d="M162.92,253.52c-.16,2.17.6,2.56-3.16,2.26.12-1.55.12-1.55,2-1.92A7.75,7.75,0,0,0,162.92,253.52Z"/><path d="M288.76,203.37l-.83-1.27,1.51-.56c-.1.72-.63,1.44.74,1.44a9.54,9.54,0,0,1,2.37.56c-1,.71-2.12,1.31-3.48.67-.34-.17-1,0-1.49,0C287.55,203.81,287.31,204,288.76,203.37Z"/><path d="M100.78,92.6l.69,1.24c-1.43.67-1.64-.55-2.56-.49,2.93-6.53,1.07-2.9,2.75-2.18C102.78,91.65,101.16,92.07,100.78,92.6Z"/><path d="M155.15,57c.25.35.35.68.62.82s.87.23.36.85c-.15.18.6.73,1,1.18a3.27,3.27,0,0,1-2.87.86C155,59.44,153.54,58.39,155.15,57Z"/><path d="M189.9,197.44l2.85.42c-6.91,2.95-5.28,2.45-6.65,2C188.69,197.64,188.61,199.77,189.9,197.44Z"/><path d="M81.32,220c.11-1,.18-1.69.27-2.49l2.53-.5c0,.68,0,1.18,0,1.79Z"/><path d="M196.24,184.08c2.13,2.34,1.06,1.95,4.67,2l.06.42c-1.51.72-.36.57-4.11.8C197.35,186.17,195.82,185.59,196.24,184.08Z"/><path d="M77.14,113.9a1.51,1.51,0,0,1,1.76-1.07A12.15,12.15,0,0,0,82,112l-.81,1.56c-3.6,1-2.56.73-3.92.87Z"/><path d="M207.17,215.66l-1.46,2.69c-.15-1.63-2.26-1.51-3.37-2.2C202.76,215.8,202.11,215.91,207.17,215.66Z"/><path d="M88.25,92.67l-1.14,1.79c-.52-.92-2.23-.69-2.43-1.92C87.38,91.66,86.59,91.58,88.25,92.67Z"/><path d="M118.14,247.21l2.17.14c-.35,1.83-.73,2.17-2.88,2.71Z"/><path d="M193.85,222.87,189.23,226c-.59-1,.59-1.84,1.19-2.8Z"/><path d="M160.24,73.49c1.16.93.45.68,2.66,1.08-1.86,1.44-2.78,1.61-4.24.91.14-.75,2-.92.76-2.14Z"/><path d="M173.11,272.79l-2.23-.57,1-2.9c.37.2.93.38.89.51C172.45,270.84,173.69,271.46,173.11,272.79Z"/><path d="M136.43,131l-.93-.66c.23-1.19,1.56-1.15,2.4-1.54a5,5,0,0,1,1.83,0C139.83,129.25,140.31,128.84,136.43,131Z"/><path d="M289.34,231.9l3.19-2.34c.32.77.85,1.37,0,2.13S291,232.45,289.34,231.9Z"/><path d="M92.78,232.69a2.88,2.88,0,0,1,3-.23c1.9,1,2,1.09,1.61,2.91C95.76,233.14,96.75,233.77,92.78,232.69Z"/><path d="M92.52,261.23c-.28-.57-.59-1.2-1-2.07,2.75.12,3.18,0,3.13.71S93.74,261.37,92.52,261.23Z"/><path d="M153.6,72.2c1.63-1,4.88-3.73,4.41-.93A6.23,6.23,0,0,1,153.6,72.2Z"/><path d="M263.08,245.44l1.36-2.31a13.72,13.72,0,0,1,1.54,1.76c.22.36-.63.94-1.24.87S263.75,245.57,263.08,245.44Z"/><path d="M179.84,193.51l-2-1.43c2.33-1.26,2.33-1.26,3.37-1.09C180.84,191.72,180.43,192.44,179.84,193.51Z"/><path d="M272.6,234c2-1.47,3.47-.85,3.43.18a1.13,1.13,0,0,1-.64.74A8,8,0,0,1,272.6,234Z"/><path d="M311.87,218.49l3.64-3.13c.15.47.46.88.36,1.28C315.5,218.12,314.15,218,311.87,218.49Z"/><path d="M96.83,249.15l2.42-1.32c1.23.44-.29,1.23,0,1.85-1.93-.17-.84-.17-1.21.68-.09.21-.36.4-.55.6C96.74,250.44,96.83,251,96.83,249.15Z"/><path d="M292.3,199.73c1.84-.3,1.84-.3,2.7,1.36l-3,.6C292.12,200.94,292.21,200.32,292.3,199.73Z"/><path d="M83.53,84.85c0,.58,0,.92-.08,1.42l2.83-.91c.9.51.36,1-.16,1.36l-2.82.16C82.55,85.88,82.55,85.88,83.53,84.85Z"/><path d="M127.09,92c-.35.5-.7,1-1.18,1.69-.77-.1-.42-1.38-.84-2.3C128.74,92.26,128.19,92.09,127.09,92Z"/><path d="M81.28,95.23c1.21-2.66,1-2.85,2.6-3C83.35,93.81,82.91,96.49,81.28,95.23Z"/><path d="M253.38,177.09c.65-.26.23-1.71,1.85-1.22a2.66,2.66,0,0,1-2.18,2.26c-.85.21-1.6.45-2-.3C251.68,177,252.63,177.49,253.38,177.09Z"/><path d="M195.87,201.44c2.61-2.25,2.83-2.77,4-2.11C198.47,200.44,195.84,202.86,195.87,201.44Z"/><path d="M297,189.37a13,13,0,0,1-1.46.29c-.18,0-.52-.24-.48-.36.71-2.66.85-2.17,1.74-2.64C296.85,187.53,296.91,188.33,297,189.37Z"/><path d="M187.26,90.57c.7.46,1,1,.14,1.79-.67.18-1.12-.66-1.94-.08,0,0-.59-.29-.56-.46C185.12,90.54,187.65,90.75,187.26,90.57Z"/><path d="M233,241.25c2.11-.46,2.27-.25,1.56,2C233,243.14,233.27,242.08,233,241.25Z"/><path d="M244,245.57c.23-1.53.69-1.68,3.46-1.11C247.65,245.5,247.09,245.34,244,245.57Z"/><path d="M198.79,246.67c.22-1.12.41-2,.65-3.22.63.3,1.17.38,1.24.61C201,245.08,200.16,245.82,198.79,246.67Z"/><path d="M296.33,230.2c-.82-2.53-1-1.81.61-3.28,1,.32-.38,1.21.49,1.65C297.79,228.75,297.5,229.77,296.33,230.2Z"/><path d="M165.92,77.8c.42,1.17.19,1.75-.71,2s-1.16-.15-1.21-.67C163.91,78,164.92,78,165.92,77.8Z"/><path d="M77.29,114.44a1.87,1.87,0,0,1-2.37.44c.06-.43.13-.9.23-1.62C77.44,114,77.1,113.76,77.29,114.44Z"/><path d="M278.8,96.15c-.42,1.39-1,1.77-2.92,2C276.17,96.87,276.79,96.46,278.8,96.15Z"/><path d="M182.94,272.19c.36-.92-.25-1.77.93-2.51C185.15,271.52,185,271.93,182.94,272.19Z"/><path d="M110.1,197.34l1.79,1-1.1,1.25C109.31,198.88,109.31,198.88,110.1,197.34Z"/><path d="M113,129.1c-1.54-.86-1.56-.9-1-2.28C113.51,127,113.84,127.72,113,129.1Z"/><path d="M207,199.94l.63,1.95C205.7,203.94,205.28,200.46,207,199.94Z"/><path d="M241.9,166.9c2.52-.33,2.64-.32,4.46.33-.05.38.21.1-.89,1l-1.14-1.07C242.47,167.64,243.12,167.63,241.9,166.9Z"/><path d="M212.51,195.38c-1,.23-2,.44-2.23-.44-.16-.54.51-1,1.94-1.31C212.32,194.2,212.41,194.77,212.51,195.38Z"/><path d="M162.61,90.43c-3,1.75-2.19,1.5-3.2.87.56-.56,1-1,1.55-1.59Z"/><path d="M333.14,187c.87-1.79.92-1.17-.39-2.81,2.35-.79,2.19,1.68.83,2.92Z"/><path d="M287.87,189.11c-1.19.12-2-.53-2-1.43,0-.5,0-.5,1.27-.74C287.4,187.65,287.63,188.37,287.87,189.11Z"/><path d="M172.88,264.05c-.38,3.23,0,2.22-1.59,3.53C171.67,263.87,171.33,264.71,172.88,264.05Z"/><path d="M187.29,90.59c.94-2.9.5-2.44,1.88-2.71,0,.81-.08,1.53-.13,2.4C187.06,90.61,187.24,90.56,187.29,90.59Z"/><path d="M143,242.37l2.35.19c-.12,1.42-.26,1.5-2.18,1.34C143.07,243.48,143,243,143,242.37Z"/><path d="M119.18,197.8a1.85,1.85,0,0,1-2.54-.16l1.77-1.69Z"/><path d="M152.94,70.34c2.18-.85,2.11-.68,2.1-1.36,0-1,1.56-.86,1.3.06-.42,1.46-1.3,1.77-3.37,1.27Z"/><path d="M156.91,64.87c1.41-1.37,2-1.35,3.16,0C158.85,65.53,158,65,156.91,64.87Z"/><path d="M214,196.32c1.39-1.21,2.31-2.33,3.32-1.13C214.91,197.32,214.2,196,214,196.32Z"/><path d="M292.75,207.79l-.92-2.22c1.79-1,1.39.84,2.64.85Z"/><path d="M96.05,250c-.3.75-.74,1.46.24,1.9-1.05.53-1.05.53-2,.21A2.89,2.89,0,0,1,96.05,250Z"/><path d="M196.73,192.19l1.86.19c-.42,1.32-.42,1.32-2.19,1.5C196.5,193.41,196.58,193,196.73,192.19Z"/><path d="M98.77,257.3c1.46.56.16,1.89.91,2.85l-1.69.18Z"/><path d="M202.76,211c1.23.5,1.83.92,1.67,1.93l-2,.29C202.56,212.52,202.64,211.93,202.76,211Z"/><path d="M102.87,249l1.39-1.28c1.44-.07,1.6,1.47-.32,2.1C104,249.79,104.11,249.89,102.87,249Z"/><path d="M240.66,244c1-.66,1.59-1.4,2.76-1.07C242.56,244.47,242.27,244.6,240.66,244Z"/><path d="M118,265.08c-.47,1.08-1,1.25-2.7.93C115.41,264.58,115.48,264.84,118,265.08Z"/><path d="M247.51,241.5a8.7,8.7,0,0,1-1,.54c-.48-.25.66-1.29-1.88-1.43a29.27,29.27,0,0,0,3.53-1.21C248.88,239.71,247,240.57,247.51,241.5Z"/><path d="M327.77,184.8c1.46-1.49,1-1.2,2.07-1.24a8.1,8.1,0,0,1-.46,1.82C328,185.42,328.3,185.31,327.77,184.8Z"/><path d="M190,268.38a3.41,3.41,0,0,1-3.53,1.29C187.48,269,188.39,268.14,190,268.38Z"/><path d="M215.51,61.79l-1.37,1.15c.31-1-.26-1.9.15-3Z"/><path d="M185.16,242.43l-2.22-.33,1.32-1.48C185.43,240.77,185.2,241.59,185.16,242.43Z"/><path d="M243.63,246.85l1.64-1,1.17,1.47C242.86,247.51,243.38,247.67,243.63,246.85Z"/><path d="M113.46,249.35c-.9-.13-.9-.13-1.26-2C112.75,247.4,114.21,247.09,113.46,249.35Z"/><path d="M166,189.14l1.24-.52,1.31,1.63C167.49,190.51,167.08,190.33,166,189.14Z"/><path d="M153,70.31c-.33-.14-.87-.22-.93-.44-.25-.9-.9-1.26-2.2-1,2.44-1.15,3.31-.7,3.1,1.47Z"/><path d="M183.71,244.16l-.89,1.22a1.67,1.67,0,0,1-1.49-1.88Z"/><path d="M151.78,198.11l2.47-1.8C154.13,198.4,153.74,198.66,151.78,198.11Z"/><path d="M120.37,258.62c.13-.52.25-1,.43-1.78.69.57,1.86.53,1.36,1.6C122.06,258.37,121.72,259.46,120.37,258.62Z"/><path d="M141.25,234.2a1.82,1.82,0,0,1-1.59,1.49,2.49,2.49,0,0,1-1-.25C139.36,234.49,138.62,234.77,141.25,234.2Z"/><path d="M178.56,89.7c1.85-.22,1.26,1.07,1.92,1.48.19.11-.1.7-.18,1.07C179.7,92.23,180,92.62,178.56,89.7Z"/><path d="M102.55,257c.37-.95.7-1.79,1.07-2.71C104.91,255.42,104.8,255.7,102.55,257Z"/><path d="M363.23,189.23c1-1.24,1.3-2.25,3.12-.62Z"/><path d="M188.74,124.36c-.64-.42-1.2-.59-1.26-.89-.2-1,1.45-1.89,1.71-.4C189.23,123.35,189,123.7,188.74,124.36Z"/><path d="M243.59,253.77c-1.51-1.49-1.46-1-.48-2.15C244.36,252,244.57,252.64,243.59,253.77Z"/><path d="M186.18,210c-.24,1.06-1.48,1.48-.9,2.31.19.28-.6.8-1.49.75C184.39,212,184.29,210.83,186.18,210Z"/><path d="M189.58,97l-1,1.8c-.64-.22-1.25-.34-.84-1S188.47,96.58,189.58,97Z"/><path d="M142,203.06c-.3-.89-.6-1.61.75-2.14C143.36,202.1,143.36,202.1,142,203.06Z"/><path d="M113.69,268.54c1.31-.84,1.84-2,3.53-1.74A4.43,4.43,0,0,1,113.69,268.54Z"/><path d="M93.21,254.34c-.14,1.48-.28,1.57-2.16,1.48C91.26,254.9,92.08,254.59,93.21,254.34Z"/><path d="M185.48,101.86l2.86-.59C189.43,102.37,186.35,103.11,185.48,101.86Z"/><path d="M278.9,175.9c-1.93.8-1.93.8-2.28-.7C278.07,174.42,277.78,175.81,278.9,175.9Z"/><path d="M207.25,66.93l-.75,1-2.25-.81C205.14,66.57,205.14,66.57,207.25,66.93Z"/><path d="M166.09,77.91c1.48-1.87,3-1.39,2.77-1C168.49,77.82,168.47,77.65,166.09,77.91Z"/><path d="M115.34,265.38c-.07.79.15.3-1.07,2.25C113.18,266.59,113.52,266,115.34,265.38Z"/><path d="M244.83,160.16c.14,1.36.14,1.36-1.29,2C243.23,161.35,243.74,160.79,244.83,160.16Z"/><path d="M181.68,94.51l-2.23.92c0-.4.05-.67.06-.94,1.22.08,1.2-.58,1-1.33C181.07,93.2,180.84,93,181.68,94.51Z"/><path d="M227,188.82c-1,.93.14,1.87-1.42,2.42C225,190,225.06,189.88,227,188.82Z"/><path d="M102.45,247,101,245.65a1.29,1.29,0,0,1,1.74-.07C103.14,246,103.38,246.41,102.45,247Z"/><path d="M125.92,253.75c1.54-1.22,1.45-.64,1.66,1.27C127,255.17,127.34,255.35,125.92,253.75Z"/><path d="M174.8,251.77c-.13.85.09.33-.77,2l-1.59-1.37Z"/><path d="M110.92,194.52l2.72-1.32C113.05,194.89,112.29,195.26,110.92,194.52Z"/><path d="M241.65,251.46l-2.05,0c.22-1-.15-.67,1.17-1.38Z"/><path d="M134.49,225.59c.77-.89,1.44-1.32,2.51-.84-.26.39-.5.77-.77,1.19Z"/><path d="M88.05,117c.11,1.14-1.29,1.8-2.56.27Z"/><path d="M176.6,275.19c1.13.13,1.74.48,1.63,1.37C176.75,276.81,176.75,276.81,176.6,275.19Z"/><path d="M244.12,234.56l-1-1.58c1.55,0,1-.16,2.33.54Z"/><path d="M208.61,189.13c-.48,1.1-.48,1.1-2.42,1.24.19-1.43,1.61-.92,2.47-1.23Z"/><path d="M100,274.13c-.06-.53-.36-1,.49-1.72a.83.83,0,0,1,.67.07c.59.83.09,1-.72,1.8Z"/><path d="M202.35,247.47l1.31-1.52,1.09,1.81Z"/><path d="M110,281a10.82,10.82,0,0,1-1.4,1.22,1.55,1.55,0,0,1-.8-.4C108.66,280.37,108.92,280.83,110,281Z"/><path d="M212.82,197.75a2.79,2.79,0,0,1,.92-2.73C214.09,196.64,214.32,195.94,212.82,197.75Z"/><path d="M246.54,242c0,.56.11,1.15-1.13,1.62-.06-.64-.11-1.19-.19-1.95C246.59,242,246.27,241.9,246.54,242Z"/><path d="M142.9,147.11c-.91-.14-1.84.07-1.62-.82a1.49,1.49,0,0,1,1-.58C143.46,145.66,143,146.35,142.9,147.11Z"/><path d="M205.09,187.35c-.27.48-.54,1-.84,1.51C203.06,188.1,203.06,188.1,205.09,187.35Z"/><path d="M108.92,263.06c-1.29-.76-.86-1.63-.67-2.53C109.42,262.26,109.31,261.66,108.92,263.06Z"/><path d="M172.08,252.72c-.67.69-.65,1.8-2.28,2.24A2.74,2.74,0,0,1,172.08,252.72Z"/><path d="M87.31,70.6c1.22,1.17,1.18,1.26-.54,1.91C86.31,71.82,87.26,71.38,87.31,70.6Z"/><path d="M173.6,81.58c-.87,0-1.45-.13-1.15-.92C172.65,80.12,174.79,80,173.6,81.58Z"/><path d="M83.1,110.48c1-1.26,1-1.26,2.89-1.19A4.5,4.5,0,0,1,83.1,110.48Z"/><path d="M91.68,230l-1.52,1.54C89.44,230.24,89.55,230.1,91.68,230Z"/><path d="M163,253.53l-.9-.62c1.77-1,1.19-1,2.57-.37C162.72,253.63,162.9,253.51,163,253.53Z"/><path d="M225.62,232.57c.38-2.11.2-2.14,1.76-.2Z"/><path d="M198.43,221c-.31,1.09-.73,1.59-1.77,1.76C196.23,221.72,197.23,221.53,198.43,221Z"/><path d="M184,97.71c-.44.46-.66.86-.87.88a1.51,1.51,0,0,1-1.08-.25c-.12-.1.22-.77.35-.78A7.48,7.48,0,0,1,184,97.71Z"/><path d="M248.63,169.68c0,.46-.08.75-.11,1.13C245.43,170.55,245.81,170.59,248.63,169.68Z"/><path d="M225.58,195.06c-.37-.79-.88-.26-1.7.29.9-2.44.7-2.23,2.14-.58Z"/><path d="M234.18,245.33c.4.16.18-.11.84,1-.28.17-.58.48-.81.48C233,246.78,232.93,245.54,234.18,245.33Z"/><path d="M177.37,245.32l-1.81,1.45c-.25-.55-.43-1-.74-1.66Z"/><path d="M146.31,91.7c.22-.66.31-1.08,1.15-1.15.57,0,1.24-.42,1.37.34Z"/><path d="M178.94,272.87c.79.23,2.25-.7,2.18.78C180.27,273.53,179.15,274,178.94,272.87Z"/><path d="M302.55,216.28l2.45-.4C304,217.28,303.75,217.34,302.55,216.28Z"/><path d="M195.83,246c.57-1.58.57-1.58,2.2-1.73C197.13,244.82,197.28,245.8,195.83,246Z"/><path d="M164.91,85.31c-.31-.69-1.41-1.13-.6-2.39A2.2,2.2,0,0,1,164.91,85.31Z"/><path d="M249.12,72c-1.17,1.5-1.17,1.5-2.3.91Z"/><path d="M272.6,212.15l-1.69.78c0-.41-.19-.77,0-1C271.48,211.34,272,211.49,272.6,212.15Z"/><path d="M96.92,268c1.53.5.42,1.26.34,1.93l-1-.48C96.19,269.53,96.14,269.66,96.92,268Z"/><path d="M87,214c-.84-1.15-.84-1.15,1.33-1.86Z"/><path d="M226.72,229.86c-.94-.5-1.35-.84-.68-1.63C226.89,228.45,226.73,229,226.72,229.86Z"/><path d="M63.73,142.53c2-.84,1.87.85,1.14,1C63.93,143.69,63.86,143.15,63.73,142.53Z"/><path d="M303.32,213.54c.2.62.53.75-.28,1.63,0,.05-.62,0-.64-.13C302.22,214.2,302.93,213.87,303.32,213.54Z"/><path d="M255.13,165.54l-2.39.19C253.85,164.56,253.85,164.56,255.13,165.54Z"/><path d="M188,188.33c.27-.53.44-.88.74-1.46l1.23,1C189.65,188.31,190,188.2,188,188.33Z"/><path d="M192,193.13l1.51-1.12.49.77C193,193.3,190.94,194.55,192,193.13Z"/><path d="M130,187.05l-1.89.16c-.07-.21-.15-.36-.12-.39C129.48,185.91,129.05,186.1,130,187.05Z"/><path d="M156.36,194.12c.57.45,1.08.78.39,1.38C156.4,195.82,154.89,195.57,156.36,194.12Z"/><path d="M200.11,208.21c.59-.66,1.14-1.43,2.45-1.25C201.81,207.75,201.81,207.75,200.11,208.21Z"/><path d="M153.34,83.33V81.5l1.73.39Z"/><path d="M262.7,72.83a2.42,2.42,0,0,1,2.5-.43C265.05,73,265.53,72.88,262.7,72.83Z"/><path d="M82.13,71.77c-.73-.65-.43-1.4-.32-2.13C82.5,69.61,82.37,69.23,82.13,71.77Z"/><path d="M170.92,92.31c.24.94.12,1.4-.71,1.48-.22,0-.64-.49-.58-.56A8.7,8.7,0,0,1,170.92,92.31Z"/><path d="M165.21,55.6c1.1-.91,1.55-.34,2.23.11C166.27,56.51,165.83,55.93,165.21,55.6Z"/><path d="M122.45,73.61l-.58,1.49C120.69,74.32,120.69,74.32,122.45,73.61Z"/><path d="M146.91,68.67c-.4.8-1,1-1.92.85A1.67,1.67,0,0,1,146.91,68.67Z"/><path d="M157.12,253.79c2,.71.31,1.57-.06,1.4C156.32,254.85,156.87,254.34,157.12,253.79Z"/><path d="M243.91,172.72c-1.88,2.05-1.5,1.8-2,1.7C242.47,173.12,242.54,172.34,243.91,172.72Z"/><path d="M102.2,253.81l.1-1.58,1.34-.27C102.38,254.31,102.69,254,102.2,253.81Z"/><path d="M144.72,79c-.53-.25-1.14-.43-.41-1.05S146,78.31,144.72,79Z"/><path d="M219.06,197.17c-1.12-.34-.78-1-.44-1.8C219.49,196.09,219.49,196.09,219.06,197.17Z"/><path d="M134.5,183.36l-.89-1,2.27-.44Z"/><path d="M342.49,201.86c-2.53,1.48-2.12,1.38-2.45,1,.45-.76,1.53-.76,2.24-1.22Z"/><path d="M378.44,196.08c.61-.48,1.23-1,1.92-.13C378.21,196.49,378.57,196.52,378.44,196.08Z"/><path d="M54.25,105.26c-1-.13-1.51-.39-1.24-1.26C54.27,103.84,54.39,104.37,54.25,105.26Z"/><path d="M117.69,85.73c-.07-.27-.11-.33-.09-.37.28-.41.39-1,1.2-.91.16,0,.34.43.3.46C118.67,85.19,118.21,85.44,117.69,85.73Z"/><path d="M166.44,70.15c-.43,1-.88,1.28-1.55,1.12-.17,0-.16-.4-.24-.61Z"/><path d="M202.23,167.85l1.71-.83C203.54,168.42,203.45,168.46,202.23,167.85Z"/><path d="M174,95.48l-1.22.78-.43-1.76Z"/><path d="M121.61,191.38l.31-1.53,1.33.65C121.82,191.66,122.11,191.54,121.61,191.38Z"/><path d="M189.53,99c2.34-.87,2.34-.87,2.21.43Z"/><path d="M243,164.05c-.79-.26-.82,0-.06-1.28C243.83,163,243.78,162.68,243,164.05Z"/><path d="M140.58,97.27l-2.05,1.44c.24-.75-.3-1.23.59-1.57C139.43,97,139.86,97.2,140.58,97.27Z"/><path d="M180,264.14l-2.52,1,1-1.44C180.1,264.19,180.06,264.19,180,264.14Z"/><path d="M103.94,249.77c.44,1.17.4.78-.24,1.49-.9-.59-1-.23.27-1.48Z"/><path d="M115.19,199.21c-1.48,1.12-1.48,1.12-1.94.11C113.86,199.15,114.48,198.68,115.19,199.21Z"/><path d="M93.85,255.59c.24-.51.44-.92.63-1.34,1.32.1.64.88.75,1.35C95.27,255.54,95.41,255.57,93.85,255.59Z"/><path d="M85.28,112.66c-1-1.38-1-.94.29-1.69C86,111.32,86,111,85.28,112.66Z"/><path d="M259.12,66.69c-1,.22-1,.22-1.53-.27C258.49,66.19,258.49,66.19,259.12,66.69Z"/><path d="M343,213.76c1.34.87,1.46.41.22,1.69C342.66,215.3,342.74,215.58,343,213.76Z"/><path d="M91.16,191.81c1,1,.87.63.17,1.33C90.38,192.48,90.55,192.79,91.16,191.81Z"/><path d="M71.07,168.86c-1.17.52-1.62.43-1.7-.1,0-.16.33-.4.51-.6C70.22,168.35,70.55,168.55,71.07,168.86Z"/><path d="M168.09,258.81c-.71-.83-.71-.83.32-1.63C169,257.33,169,257,168.09,258.81Z"/><path d="M98.48,84.46c-.89-1-.89-1,.41-1.75C98.76,83.29,98.66,83.69,98.48,84.46Z"/><path d="M136.76,198.49c-1.77.23-1.77.23-1.52-1.1A11,11,0,0,1,136.76,198.49Z"/><path d="M99.11,279c-.61-1.24-.74-.82.73-1.51C99.65,279.08,99.83,278.77,99.11,279Z"/><path d="M340.05,200.74a2.12,2.12,0,0,1,.45,0c.31.35.69.71.05,1.18a1.28,1.28,0,0,1-.67,0A9.47,9.47,0,0,1,340.05,200.74Z"/><path d="M181,242.53l-2.46,1.16C179.47,242.4,179.47,242.4,181,242.53Z"/><path d="M169.63,90.69c1.13,1,1.32.59-.08,1.75C169.13,92.27,169.16,92.55,169.63,90.69Z"/><path d="M252.68,159.41l-1.52,1.37C251,159.92,251,159.92,252.68,159.41Z"/><path d="M172.14,179.11l-1.85.28c.2-.4.23-.72.43-.85C171.63,178,171.78,178.5,172.14,179.11Z"/><path d="M219.21,185.2c-.25,1.05-.75,1.24-1.4,1.12-.13,0-.19-.49-.14-.51C218.08,185.6,218.53,185.46,219.21,185.2Z"/><path d="M238.85,251.37c-.91-.26-1.35-.58-1-1.45C238.86,250,239,250.53,238.85,251.37Z"/><path d="M102.86,240.71c-1.22-.9-1.22-.9.28-1.67C103.05,239.56,103,240,102.86,240.71Z"/><path d="M195.39,257.09l-1-.73c.73-.5,1.3-.81,1.94-.4C196.33,255.88,196.39,255.82,195.39,257.09Z"/><path d="M110.64,284.61c-2,.23-1.36-1-.71-1C110.92,283.45,110.57,284.1,110.64,284.61Z"/><path d="M78.33,200.79c-.1-.07-.17-.09-.18-.12-.1-.42-.58-.84.2-1.27C78.88,199.11,79.63,200,78.33,200.79Z"/><path d="M58.46,110.64c-1.41-.64-1.13-.35-.87-1.2C58.87,109.62,58.62,109.32,58.46,110.64Z"/><path d="M114.22,158.05c-.38-.31-.72-.46-.8-.69s.34-.62.47-.62C115.33,156.73,114.52,157.5,114.22,158.05Z"/><path d="M44.23,107.19c.07.78-.29,1.33-1.46,1.59C42.73,107.88,43.67,107.63,44.23,107.19Z"/><path d="M105.59,86.7c-1.44,1.66-2.29.67-2.06.28S105,86.69,105.59,86.7Z"/><path d="M237.41,240.45l1.18-1.32c.19.56.32,1,.49,1.51Z"/><path d="M273.36,198.91c1.18.18.71.91,1.06,1.42C273.18,200.17,273.18,200.17,273.36,198.91Z"/><path d="M263.86,205.19c-.48.35-1,1.09-1.7.25-.07-.07.26-.51.48-.58S263.13,205,263.86,205.19Z"/><path d="M198.68,252.15c-.74,1.18-1.27,1.14-2.14.49Z"/><path d="M250.41,225.24c-.75.78-.3.72-1.61.42C249.27,225,248.82,225.08,250.41,225.24Z"/><path d="M124.36,255.49c-1-.78-.38-1.36-.3-1.89C124.85,253.61,124.74,253.24,124.36,255.49Z"/><path d="M237.51,238.94c-.37.87-1.16,1.24-2.47,1.4C236,238.94,238,239.13,237.51,238.94Z"/><path d="M195.33,231.25l-1.4-.36c.22-.24.31-.42.46-.48C195.27,230,195.44,230.37,195.33,231.25Z"/><path d="M313.59,193.73c-.11-.35-.22-.7-.4-1.22.43.08.89.06,1,.21C314.4,193.09,314.45,193.54,313.59,193.73Z"/><path d="M153.73,63.11l-.13-1.26,1.17-.21c.09.75-.23,1.2-1.08,1.46Z"/><path d="M153.45,71.52a3,3,0,0,1-2.46.77C150.92,71.74,150.48,71.94,153.45,71.52Z"/><path d="M163.47,71.62l-2.34.12A1.67,1.67,0,0,1,163.47,71.62Z"/><path d="M132.64,83.18c-.68-.15-1.52-.21-.74-1.4C133.21,83.11,133.13,82.82,132.64,83.18Z"/><path d="M134.24,85l1.11-.74c.16.2.3.31.27.35C135.3,85.07,135.29,85.07,134.24,85Z"/><path d="M175.72,206.63c-.35,1.5-1.19.88-1.89.72Z"/><path d="M163,208.2c-.87.17-.46.31-1.57-.37l1.37-.79C162.92,207.52,163,207.84,163,208.2Z"/><path d="M145.37,85.35c1.38-.81.65-.8,2.65-.3C147.72,85.63,148.23,85.51,145.37,85.35Z"/><path d="M306.53,197.42c-1.33.41-1.33.41-2.09-.21C305.79,196.59,306.41,197.58,306.53,197.42Z"/><path d="M183.25,74.47c.05,1-.5,1.18-1.23,1.2C181.7,75.24,181.46,75.5,183.25,74.47Z"/><path d="M91.57,236.3l2,.59C92.77,237.11,91.93,237.52,91.57,236.3Z"/><path d="M218.21,184.56c-.64.88-1.27.8-1.89.26Z"/><path d="M306.51,197.45l2-.34c-1,1.18-1.1,1.19-2,.31Z"/><path d="M202,191c-.73.36-1.44,1.26-2.55.25Z"/><path d="M152.92,271.19c-1.23-.42-.78-1.2-1.16-1.67C152.65,269.27,152.38,269,152.92,271.19Z"/><path d="M235.54,71.51c-1.33,1.71-1,1.49-1.57,1.27C235.32,71,235,71.23,235.54,71.51Z"/><path d="M71.74,132.36c-.07-1.22,1.49-1.14,1.33-.55S72.42,132.51,71.74,132.36Z"/><path d="M95.77,137.65c.25.6,1,.9.08,1.55C95.06,138.88,95.05,138.44,95.77,137.65Z"/><path d="M148.73,125.23c-1.38-.34-1.24-.77-.27-1.67C148.56,124.23,148.63,124.61,148.73,125.23Z"/><path d="M100.43,270.08c.67-.07,1.36-.93,2.35.07C100.15,270.48,100.52,270.53,100.43,270.08Z"/><path d="M99.28,271.29c-.09.47.66,1.08-1.06,1.48C98.78,270.94,98.53,271.23,99.28,271.29Z"/><path d="M100.6,249.9c-.2.7-.62,1-1.79.53C100.56,249.36,100.18,249.44,100.6,249.9Z"/><path d="M197.17,270.3c-1,.86-1.54.65-1.95,0Z"/><path d="M110.52,257.42c-.06-.84-.08-1.36,1-1.57C111.87,256.48,111.39,256.84,110.52,257.42Z"/><path d="M179.78,176.87a1.3,1.3,0,0,1,1.72-.82C181.64,176.54,181.93,176.34,179.78,176.87Z"/><path d="M108.46,266c0-.63,0-1,0-1.39C109.5,264.81,109.78,265.09,108.46,266Z"/><path d="M105.07,203.37c-.68,1.08-.38.85-1.2.73C104.32,203.16,104,203.39,105.07,203.37Z"/><path d="M187.21,99.86l2-.09C188.36,100.64,187.89,100.44,187.21,99.86Z"/><path d="M170.06,183.83c.48-1.06.26-.85,1.05-.76C170.45,184.13,170.69,184,170.06,183.83Z"/><path d="M271.61,65.68c-.06.5-.12,1-.19,1.62C270.8,66.57,270.8,66.57,271.61,65.68Z"/><path d="M154.44,97.21l-.06-1.33C155.42,95.86,155.42,95.86,154.44,97.21Z"/><path d="M356.3,170c-.94-.37-.74-.19-.48-.87C357,169.41,356.89,169.2,356.3,170Z"/><path d="M320.35,219.41c.83-1.94.51-1.71,1-.79C321.63,219.17,321.28,219.35,320.35,219.41Z"/><path d="M301.68,186.36c1.13-.51,1.13-.51,1.39.47Z"/><path d="M288.71,238.74c.26-.39.47-.71.8-1.19.24.27.48.4.47.55C290,238.62,289.81,239.11,288.71,238.74Z"/><path d="M208.66,189.14c-.18-.27-.61-.58-.5-.78.27-.5.82-.53,1.49-.17C208.49,189.24,208.59,189.12,208.66,189.14Z"/><path d="M132.89,166.2l1.43-.9C134.27,166.32,134.27,166.32,132.89,166.2Z"/><path d="M249.93,176.22l-1.71-.07C249,175.42,249,175.42,249.93,176.22Z"/><path d="M133,200c.86-.77,1.31-.76,1.93,0Z"/><path d="M100.79,175.92c.18-1.3,1.46-1.07,1.36-.68S101.54,176,100.79,175.92Z"/><path d="M273.4,169.35c.9.41.86.1.5,1.05C273.11,170.2,273.19,170.5,273.4,169.35Z"/><path d="M186.74,68.52c1.7-.37,1.43-.45,1.37.24C186.48,68.86,186.73,69,186.74,68.52Z"/><path d="M46.24,109c1.23-.69,1.54-.31,1.84.1C47.57,109.7,48,109.69,46.24,109Z"/><path d="M143.74,131.65c-1.45.87-1.12.84-1.54.44C143.53,131.09,143.2,131.16,143.74,131.65Z"/><path d="M44.2,102.68l1.8-.31c0,.23,0,.43-.12.51C45.34,103.28,45.33,103.27,44.2,102.68Z"/><path d="M101.92,273.82c1,.55.49,1.05.06,1.63C101.63,274.79,101.63,274.79,101.92,273.82Z"/><path d="M178.54,244.25c.86-.15.86-.15,1.28.38C179,244.79,179,244.79,178.54,244.25Z"/><path d="M288.78,234.61c.65.79.65.79-.17,1.72C288.67,235.68,288.73,235.15,288.78,234.61Z"/><path d="M74.27,174.21c.3.21.56.32.63.5s-.34.45-.43.43a1,1,0,0,1-.65-.31C73.77,174.77,74.05,174.51,74.27,174.21Z"/><path d="M299.36,222.16c-1.4-.46-.35-.91-.21-1.31C299.71,220.82,299.64,220.58,299.36,222.16Z"/><path d="M133.11,152.47c0-.48-.15-1,1.18-1.41C133.41,152.85,133.69,152.61,133.11,152.47Z"/><path d="M154.62,143.24c-.76.56-1.25.76-1.64.33-.09-.1.11-.37.17-.57Z"/><path d="M181.91,267.45c2-.48,1.67-.49,1.75-.07C181.66,267.9,182,267.93,181.91,267.45Z"/><path d="M243.63,246.85c-.24.8.09.59-1.6.83A1.3,1.3,0,0,1,243.63,246.85Z"/><path d="M109.22,262c.83-1.23,1-.43,1.43-.15l-.18.43C109.19,262,109.24,261.92,109.22,262Z"/><path d="M312.53,196.2l-1.26-.33C312.35,195.25,312.35,195.25,312.53,196.2Z"/><path d="M111.29,257.88c-.58,1.16-1.35.74-1.87,1.06C109.24,258.52,108.92,258.76,111.29,257.88Z"/><path d="M116.69,255.51c1.06.23.71.7.67,1.08C116.74,256.74,116.93,256.91,116.69,255.51Z"/><path d="M190,229.57c.82-.37,1.27-.15,1.58.48C190.05,230.75,190.11,229.4,190,229.57Z"/><path d="M144,282.11c-1,.86-.6.77-1.47.63C142.59,282.29,142.29,282.44,144,282.11Z"/><path d="M281.14,198.5c-1.63.63-1.31.66-1.57.16C281.21,197.91,280.88,197.91,281.14,198.5Z"/><path d="M141.27,65.49l-1.49,0a1.35,1.35,0,0,1,1.7-.59l-.24.64Z"/><path d="M134.43,284.92c.63-.08.52-.26.61.73C134.27,285.79,134.43,285.93,134.43,284.92Z"/><path d="M74.77,89.83c-1.37.33-1.14.42-1.15-.26C75,89.48,74.76,89.38,74.77,89.83Z"/><path d="M105.75,243.51l.81,1.12C105.19,244.65,105.19,244.65,105.75,243.51Z"/><path d="M102.85,236.89l-1.32.24c0-.14-.1-.32,0-.42C101.92,236.25,102.3,236.31,102.85,236.89Z"/><path d="M271,178.12l-1-.54C270.82,177.37,270.82,177.37,271,178.12Z"/><path d="M89.18,237c-.15-.79.33-1.14,1-1.38C90.58,236,90.71,235.73,89.18,237Z"/><path d="M57.77,107.8c1-.93,1.67-.08,1.22.22C58.36,108.42,58.08,108.13,57.77,107.8Z"/><path d="M168.47,72.4c-.6.87-1.07.91-2,.52Z"/><path d="M211.87,67.48c.2-.52.47-1,1.66-.83C212,67.94,212.3,67.8,211.87,67.48Z"/><path d="M179,87.6c.9.47.9.47-.24,1.11C178.87,88.28,178.94,88,179,87.6Z"/><path d="M127.07,106.83c.74-.55,1.16-.49,1.54,0A.93.93,0,0,1,127.07,106.83Z"/><path d="M249.78,68.4c-.39-.88.2-1.1.82-1.31C251,67.42,251.11,67.14,249.78,68.4Z"/><path d="M140.53,148.23c.6.92.35,1.25-.77,1.61C140,149.26,140.2,148.91,140.53,148.23Z"/><path d="M77.82,191.06l-2,.64C76.66,190.89,77.21,190.87,77.82,191.06Z"/><path d="M108.74,190.89c-.61.8-.3.67-1.16.56C108,190.55,107.76,190.74,108.74,190.89Z"/><path d="M235.5,161.26c-.91-.13-1-.51-.38-1.15C235.94,160.29,236,160.67,235.5,161.26Z"/><path d="M162.49,189.51c-1.09-.12-1.09-.12-1.17-.94.71.14,1.51.08,1.14,1Z"/><path d="M248.91,162.53c1.84-.67,1.5-.65,1.74-.34-.75.56-.33.42-1.59.68Z"/><path d="M164.34,193.32l-1.88-.36C163.46,192.42,163.9,192.51,164.34,193.32Z"/><path d="M202.21,182.74c-.57-.84-.83-1.31.62-1.66C202.62,181.62,202.48,182,202.21,182.74Z"/><path d="M112,215.35c-1.21.82-.82.68-1.5.37C111.4,214.93,111,215.1,112,215.35Z"/><path d="M161,201.62c0-.57,0-.91-.07-1.52C162,200.58,161.84,200.94,161,201.62Z"/><path d="M164.9,204c.74-.47,1.18-.5,1.38.19C165.59,204.52,165.2,204.45,164.9,204Z"/><path d="M254.6,178.27l-1.12.71C253.37,178.3,253.37,178.3,254.6,178.27Z"/><path d="M364.49,214.38c1.76-.21,1.49-.32,1.47.24C364.21,214.82,364.48,214.91,364.49,214.38Z"/><path d="M204.23,269.32c-1.21.18-1,.22-1-.29C204.45,268.84,204.25,268.75,204.23,269.32Z"/><path d="M197.92,255c-.31,1.13-.31,1.13-1.62.91C196.27,256,196.07,256.09,197.92,255Z"/><path d="M153.94,267.12c-1-.4-.44-.81.12-1.22C154,266.25,154,266.6,153.94,267.12Z"/><path d="M103.88,283c-.13-.91.43-1,1-1.12C105.19,282.32,105.37,282.08,103.88,283Z"/><path d="M205.47,248.71l.95-1.05c.22.21.37.27.36.35C206.7,248.52,206.4,248.83,205.47,248.71Z"/><path d="M168.67,260c1-.47,1-.47.75.71Z"/><path d="M174.2,257.56l-1.71-.26c.12-.2.15-.33.23-.37C173.32,256.65,173.73,256.76,174.2,257.56Z"/><path d="M239.87,233.14l-1.18,1.1C238.55,233.4,238.55,233.4,239.87,233.14Z"/><path d="M351.59,193.45c1.9-.62,1.58-.6,1.68-.28C351.43,193.77,351.75,193.75,351.59,193.45Z"/><path d="M130.27,258.57c-1.26.26-1.35-.25-1.5-.71C129.33,257.5,129,257.37,130.27,258.57Z"/><path d="M66.93,162.74c-.65.37-.94.74-1.46.08C67,162.31,66.74,162.27,66.93,162.74Z"/><path d="M164.05,81.11c.42-.91.9-.83,1.42-.67C165.52,81,165.8,80.8,164.05,81.11Z"/><path d="M116.44,98.66c.91.46.87.26.3.85C115.89,99,116,99.23,116.44,98.66Z"/><path d="M184.19,77.79a2.89,2.89,0,0,1,.67.3s-.17.38-.21.37C183.73,78.41,184,78.26,184.19,77.79Z"/><path d="M79.16,81.88c.49.37.55.15,0,.81C78.77,82.26,78.83,82.45,79.16,81.88Z"/><path d="M99,76.82l-1.18,1.3C97.59,77.15,97.85,76.79,99,76.82Z"/><path d="M116.58,73.2c.64.14.61,0,.22.64C116.25,73.59,116.35,73.73,116.58,73.2Z"/><path d="M86.61,221.88c-.37-.07-.74-.13-1.09-.22a1.46,1.46,0,0,1,.16-.39c.4,0,.78.08,1.17.12Z"/><path d="M220.85,196.9l1.68-.85C222.06,196.86,221.82,197.18,220.85,196.9Z"/><path d="M96,86.86c.24-1.11,0-.94.89-.88C96.41,87.09,96.61,86.91,96,86.86Z"/><path d="M181.68,167.59c-.43,1.2-1,1-2.12,1Z"/><path d="M201.46,184.53c.07-.6.1-.93.15-1.32C202.42,183.49,202.74,183.78,201.46,184.53Z"/><path d="M96.24,269.47c-.84.1-1.16-.17-.67-1C96.28,269.61,96.2,269.52,96.24,269.47Z"/><path d="M161.57,217.91c-1.3-.38-1.17-.2-.9-.67C162.07,217.48,161.91,217.32,161.57,217.91Z"/><path d="M136.16,151.6c-.28.42-.16,1-1.48,1.25C135.81,151.17,135.47,151.39,136.16,151.6Z"/><path d="M237.55,239c0-.93,0-.93,1.59-.66C237.31,239,237.49,238.93,237.55,239Z"/><path d="M95.23,255.6c1.15-.38,1.27.08.83,1C95.16,255.45,95.27,255.54,95.23,255.6Z"/><path d="M167.71,193.21c-1.26.41-1,.42-1.18.09C167.76,192.78,167.51,192.78,167.71,193.21Z"/><path d="M121.31,259.76c-.47.63,0,.51-1.7.5C119.83,259.59,119.48,259.72,121.31,259.76Z"/><path d="M188.86,209.79c-1.61.66-1.31.66-1.53.24C189.05,209.33,188.76,209.32,188.86,209.79Z"/><path d="M232.75,78.73c-1.21.39-1,.41-1.13.09C232.77,78.3,232.53,78.3,232.75,78.73Z"/><path d="M139.22,229c-.79-.47-.82-.16,0-1.14C139.78,228.29,139.83,228,139.22,229Z"/><path d="M218,176.52c-.06.84-.58.9-1.61.91C217.45,176.49,217,176.74,218,176.52Z"/><path d="M103.58,213.19c1.45-.33,1.2-.36,1.28,0C103.41,213.63,103.65,213.68,103.58,213.19Z"/><path d="M77,129.64c-.67.56-.43.54-1,0C76.46,129.27,76.19,129.2,77,129.64Z"/><path d="M84.31,229.68c.35,0,.7-.05,1-.05a1.15,1.15,0,0,1,0,.26C84.09,230.17,84.3,230.14,84.31,229.68Z"/><path d="M141.5,115c1.87-.61,1.53-.6,1.7-.23C141.36,115.54,141.71,115.52,141.5,115Z"/><path d="M107.47,244.78c-.22-1.25-.35-1,.31-1.18C108.05,244.85,108.19,244.62,107.47,244.78Z"/><path d="M183,219.53c1.94.1,1.68-.07,1.51.53C182.59,220,182.87,220.1,183,219.53Z"/><path d="M230.83,104.7l1.74-.73C232.37,104.76,232,105,230.83,104.7Z"/><path d="M249.92,165.53c-.59-.65-.54-.5-.39-.81,1.16.25,1.12.06.35.8Z"/><path d="M91.87,233.24c.19.66.19.66-.92,1.2Z"/><path d="M127.25,180.82c-.42-.42-.6-.81.49-1.22C127.52,180.13,127.39,180.47,127.25,180.82Z"/><path d="M118,92.83c-.65.77-.35.67-1.17.5C117.22,92.59,117,92.77,118,92.83Z"/><path d="M169.61,252.05a3.81,3.81,0,0,1,.61.48s-.29.34-.32.33a4.69,4.69,0,0,1-.72-.33Z"/><path d="M166.23,227.85c-1.19-.32-1-.17-.87-.58C166.67,227.4,166.51,227.26,166.23,227.85Z"/><path d="M272.88,175.73c1.38.64,1.23.45,1,.8C272.33,176.13,272.5,176.32,272.88,175.73Z"/><path d="M179.35,223c1.2-.39,1-.4,1.14,0C179.28,223.52,179.52,223.53,179.35,223Z"/><path d="M226.29,192.79c-1.34-.37-1.19-.21-1-.65C226.79,192.28,226.61,192.12,226.29,192.79Z"/><path d="M272.88,197.66c-1.15.9-.87.84-1.29.5C272.76,197.25,272.48,197.33,272.88,197.66Z"/><path d="M185.5,269.35c-1-.43-.88-.31-.79-.59.69,0,.46-.16,1,.39Z"/><path d="M106.78,252.92h-1.06s0-.26,0-.27C107.05,252.4,106.84,252.44,106.78,252.92Z"/><path d="M99,101c.57-.22,1.66-.89,1.28.36C98.86,100.94,99,101,99,101Z"/><path d="M163.89,189.18c-1.53,1.23-1.25,1.21-1.4.33C163.78,189.09,163.59,188.89,163.89,189.18Z"/><path d="M253.67,71.46c.64.33.65.09.19.83C253.34,72.11,253.34,72.35,253.67,71.46Z"/><path d="M252.36,65.43c-.61.77-.37.61-.94.54C251.79,65.25,251.57,65.43,252.36,65.43Z"/><path d="M174.32,88.82c.39-.13.79-.26,1.18-.37a.7.7,0,0,1,.13.24C174.32,89.35,174.56,89.27,174.32,88.82Z"/><path d="M209.87,48.55l-1.67.38C209.55,47.5,209.71,48.73,209.87,48.55Z"/><path d="M224.83,43.48l-1.2.58C223.44,43.26,223.94,43.44,224.83,43.48Z"/><path d="M209.84,48.59c.59,0,1.19,0,.82.73C209.41,49.44,210.15,48.24,209.84,48.59Z"/><path d="M114.54,85.87c.89-.75.66-.68,1-.42C114.7,86.21,114.92,86.14,114.54,85.87Z"/><path d="M86.12,95.58c-.77-.15-.7.06-.53-.66C86.19,95,86.1,94.75,86.12,95.58Z"/><path d="M114.51,87.78c-.4.62-.09.53-1.11.39C113.73,87.71,113.42,87.78,114.51,87.78Z"/><path d="M126.44,102.43c-.48-.79-.5-.61-.11-.81C126.87,102.45,126.9,102.28,126.44,102.43Z"/><path d="M86.77,113.85c-.38-.52-.33-.33,0-.78.64.29.57.06.5.85Z"/><path d="M166.52,87.2c-.58.76-.34.59-1,.43C166,87,165.78,87.11,166.52,87.2Z"/><path d="M85.75,113.32a3.61,3.61,0,0,1-.56.48c-.06,0-.4-.14-.38-.18a1.69,1.69,0,0,1,.39-.51A3.86,3.86,0,0,1,85.75,113.32Z"/><path d="M149.9,92.67c-.46-.37-.53-.15,0-.81C150.62,92.21,150.59,92,149.9,92.67Z"/><path d="M175.57,211.64c-1.72.16-1.44.23-1.44-.21C175.86,211.16,175.6,211.06,175.57,211.64Z"/><path d="M189.91,205.54l1.1.21C190.1,206.64,190.19,205.73,189.91,205.54Z"/><path d="M71.65,115.14c-.75.77-.43.67-1.22.42C71,114.83,70.69,115,71.65,115.14Z"/><path d="M264.28,247.13c-.85-.6-.74-.44-.46-.75C264.78,246.88,264.71,246.72,264.28,247.13Z"/><path d="M108.81,97.78c0-.48-.2-.38,1-.52C109.8,97.62,110,97.5,108.81,97.78Z"/><path d="M174.06,76.25l-.64.51c-.13-.15-.32-.27-.37-.44s.25-.35.33-.35A2.37,2.37,0,0,1,174.06,76.25Z"/><path d="M207.47,198.1a1.3,1.3,0,0,1,.34,0,8.69,8.69,0,0,1,.05.89C207.14,199,207.15,199.18,207.47,198.1Z"/><path d="M99.14,100c0-.29-.31-.74.57-.93.13,0,.73.18,0,.73C99.5,99.89,99.05,99.93,99.14,100Z"/><path d="M118.64,268.41c-.7-1.19-.7-1-.25-1.17C119.2,268.37,119.21,268.12,118.64,268.41Z"/><path d="M206.08,64.91c0-.29.09-.58.17-.87a1,1,0,0,1,.34,0c.09.27.15.55.22.83Z"/><path d="M182.7,246.49c-1.18-.25-1-.12-.85-.55C183.15,246,183,245.89,182.7,246.49Z"/><path d="M88.89,235.17c-.92.71-.56.63-1.37.4C88.17,234.9,87.85,235.06,88.89,235.17Z"/><path d="M117.91,89.48c1.46,0,1.24-.08,1.14.45C117.53,90,117.75,90.13,117.91,89.48Z"/><path d="M346.83,205.13c-1.35.44-1.11.45-1.27.17C346.85,204.61,346.59,204.62,346.83,205.13Z"/><path d="M181.06,259.62c.72.53.66.39.38.67C180.52,259.85,180.58,260,181.06,259.62Z"/><path d="M212.29,255.27c1,.41.86.18.48.85C212.2,255.94,212.31,256.17,212.29,255.27Z"/><path d="M183.88,240.13c-.63-.24-.64,0-.22-.71C184.25,239.7,184.14,239.55,183.88,240.13Z"/><path d="M344.37,222.61a4.4,4.4,0,0,1,.81.39s-.15.35-.22.36C343.82,223.43,344.17,223.21,344.37,222.61Z"/><path d="M93.66,231.59c1-.73.81-.69,1.11-.4C93.71,231.91,93.94,231.85,93.66,231.59Z"/><path d="M184.71,195.81c1.15-.75.89-.7,1.2-.43C184.84,196.24,185.1,196.17,184.71,195.81Z"/><path d="M89.64,226.82a3,3,0,0,1-.57.46c-.08,0-.4-.16-.38-.21a2.52,2.52,0,0,1,.42-.52Z"/><path d="M174.64,240.53c-.2-.21-.4-.42-.59-.64.1-.06.28-.2.3-.18C175.26,240.32,175.11,240.22,174.64,240.53Z"/><path d="M149.06,204c.89-.61.64-.53,1.05-.23C149.2,204.38,149.42,204.35,149.06,204Z"/><path d="M186.88,191.41c-1.23.65-1,.62-1.25.31C186.81,190.9,186.55,191,186.88,191.41Z"/><path d="M185.6,236.3c-.69-.72-.7-.53-.09-.84C186,236.27,186,236.09,185.6,236.3Z"/><path d="M166.61,196.06c.61.32.61.09.2.8C166.28,196.65,166.28,196.88,166.61,196.06Z"/><path d="M274.9,159.83c-.7-.31-.68-.09-.25-.77C275,159.18,275,159,274.9,159.83Z"/><path d="M151.2,198.9c.37,1.16.42.94,0,1.1C150.82,198.83,150.78,199.05,151.2,198.9Z"/><path d="M274.12,158.41c1.22-.75,1-.7,1.25-.34C274.12,158.75,274.38,158.72,274.12,158.41Z"/><path d="M136.31,202.5c.33.13.65.17.67.29s-.17.39-.35.48a.63.63,0,0,1-.54-.12C136,203,136.2,202.8,136.31,202.5Z"/><path d="M160,194.56c-1.34.53-1.08.51-1.28.17C160,194.06,159.78,194.07,160,194.56Z"/><path d="M108.82,209.34c-.23.24-.42.58-.71.69s-.44-.35,0-.63a3.26,3.26,0,0,1,.5-.2Z"/><path d="M144.68,196l.85,1C144.74,196.87,144.74,196.87,144.68,196Z"/><path d="M247,162.55c1.24-.61,1-.59,1.19-.25C246.89,162.8,247.11,162.78,247,162.55Z"/><path d="M190,229.54c-1,0-1.18-.32-.6-1.14C190.47,228.84,189.73,229.8,190,229.54Z"/><path d="M107.16,186.25c-.26-.13-.52-.26-.77-.4,0,0,.13-.23.19-.23.36,0,.72,0,1.07,0Z"/><path d="M272.29,196.61c-1.14.07-.94.11-.92-.24C272.52,196.3,272.33,196.23,272.29,196.61Z"/><path d="M158.83,154.07c-.61.88-.4.73-1,.59C158.47,153.76,158.25,153.88,158.83,154.07Z"/><path d="M63.7,171.06c1.28-.52,1-.53,1.26-.16C63.7,171.61,64,171.6,63.7,171.06Z"/><path d="M275.58,193a5.64,5.64,0,0,1,.9-.72c.07,0,.38.18.36.22C276.52,193.05,276.12,192.93,275.58,193Z"/><path d="M102.84,147.77c-.67.85-.35.71-1.19.61C102.06,147.68,101.8,147.88,102.84,147.77Z"/><path d="M259.75,83.42a3.88,3.88,0,0,1-.71.41c-.08,0-.32-.16-.3-.22C259,83.06,259.43,83.34,259.75,83.42Z"/><path d="M262.7,76.34,264,76c-.24.79-.78.67-1.25.67C262.48,76.68,262.64,76.48,262.7,76.34Z"/><path d="M256.57,74.34c.1.49.31.68-.53.92C256.24,74.21,256.09,74.39,256.57,74.34Z"/><path d="M156.82,106.67c-1.13.71-.87.66-1.22.34C156.62,106.19,156.35,106.23,156.82,106.67Z"/><path d="M257,72.24c.86-.47.67-.47.9-.07C257,72.52,257.18,72.52,257,72.24Z"/><path d="M200.87,211.52l.67.38a2.38,2.38,0,0,1-.53.43c-.12,0-.45-.07-.45-.14S200.71,211.84,200.87,211.52Z"/><path d="M124.5,69.14c.16,1,.27.8-.26.92C124.07,69.06,124,69.25,124.5,69.14Z"/><path d="M146.15,71.28c-.83.57-.54.52-1.13.18C145.8,70.93,145.51,71,146.15,71.28Z"/><path d="M168.23,66.16c.42.13.44,0-.14.51C167.84,66.44,167.78,66.58,168.23,66.16Z"/><path d="M134.14,80.73c.31.36.42.16-.36.77C133.43,81.18,133.37,81.35,134.14,80.73Z"/><path d="M118.25,86.55l.94.68C118.45,87.26,118.45,87.26,118.25,86.55Z"/><path d="M67,104.66c-.21.47,0,.42-1,.32C66.24,104.51,66,104.59,67,104.66Z"/><path d="M113.78,270.29c.51-.39.25-.3,1-.46C114.33,270.77,114.1,270.46,113.78,270.29Z"/><path d="M299.82,219.19c-.8.29-.56.31-.92-.07C299.57,218.79,299.33,218.83,299.82,219.19Z"/><path d="M319.4,226.3c-.19.77-.07.65-.51.63C319.12,226.16,319,226.29,319.4,226.3Z"/><path d="M64.31,172l.59.14a3.82,3.82,0,0,1-.34.48.49.49,0,0,1-.32,0A3.85,3.85,0,0,1,64.31,172Z"/><path d="M243.64,231.29c-.69.48-.41.46-1.1.29C242.84,231.13,242.54,231.18,243.64,231.29Z"/><path d="M295.08,186c-.48.53-.29.41-.81.31C294.83,185.8,294.62,185.91,295.08,186Z"/><path d="M126.74,200.46c-1.18.39-1,.38-1.06.15C126.87,200.23,126.67,200.23,126.74,200.46Z"/><path d="M308,194.9c.29.23.35.07,0,.57C307.58,195.19,307.55,195.32,308,194.9Z"/><path d="M116.71,243.51c-.42.51-.26.39-.67.35C116.32,243.32,116.15,243.43,116.71,243.51Z"/><path d="M170.1,196.62c-.55.6-.24.56-1.1.33C169.33,196.5,169,196.55,170.1,196.62Z"/><path d="M181.81,194.74c-.44.47-.28.39-.65.28C181.48,194.54,181.32,194.64,181.81,194.74Z"/><path d="M148.33,205.72c.49.74.49.58.1.81C147.79,205.82,147.79,206,148.33,205.72Z"/><path d="M170.68,199.52c-.92-.58-.87-.28-.4-1C171,198.75,170.88,198.46,170.68,199.52Z"/><path d="M190.27,192.82c1.21-.36,1.48-.06,1.69.31C191.75,193.43,192,193.44,190.27,192.82Z"/><path d="M205.65,221.6c-.78.4-.49.45-1.17,0C205,221.25,204.7,221.21,205.65,221.6Z"/><path d="M70.93,143.55c-.59.45-.34.48-1,.06C70.6,143.23,70.35,143.29,70.93,143.55Z"/><path d="M319.5,193.66a.89.89,0,0,1-.29-.09c.1-.25.23-.5.35-.74C320.11,193,320.19,192.83,319.5,193.66Z"/><path d="M250.59,227.1c-1.13.27-.93.32-1-.17C250.75,226.81,250.56,226.74,250.59,227.1Z"/><path d="M226.09,204.71c-.16.39,0,.34-.62.28C225.6,204.65,225.42,204.71,226.09,204.71Z"/><path d="M113.44,119.91c-.26-.22-.46-.32-.51-.47s.21-.34.32-.35a2,2,0,0,1,.62.13Z"/><path d="M156,192a2.71,2.71,0,0,1-.45.52c-.05,0-.4-.09-.39-.15a1.8,1.8,0,0,1,.27-.51Z"/><path d="M181.58,218.3c.81.74.74.5.32.94C181.18,218.86,181.34,219.07,181.58,218.3Z"/><path d="M115.76,192.26l-.59-.17a3.12,3.12,0,0,1,.43-.53c.05-.05.44.05.43.08A3.77,3.77,0,0,1,115.76,192.26Z"/><path d="M88.83,233.38c-.31-1-.48-.69.3-1.27C89.5,232.27,89.51,232.05,88.83,233.38Z"/><path d="M356.62,217.24c-.47-.09-.41,0-.32-.48C356.69,216.82,356.64,216.67,356.62,217.24Z"/><path d="M363.41,210.39c.56.66.45.43.25.9C363,211.18,362.61,211.28,363.41,210.39Z"/><path d="M118.9,233.88c.36.07.62.07.64.14s-.1.38-.17.39C118.47,234.55,118.82,234.15,118.9,233.88Z"/><path d="M126.12,257.53c.35-.62.19-.47.66-.5C127,257.34,127.08,257.22,126.12,257.53Z"/><path d="M164.07,191.26c.6-.65.39-.5.83-.48C164.64,191.52,164.84,191.43,164.07,191.26Z"/><path d="M243.88,165.74c.3,0,.61,0,.9.09,0,0,0,.27,0,.27C243.56,166.22,243.75,166.23,243.88,165.74Z"/><path d="M176.57,215.1c-1.36.27-1.14.31-1.18,0C176.76,214.76,176.52,214.75,176.57,215.1Z"/><path d="M102.89,237.77c.85.4.67.24.5.69C102.54,238.24,102.73,238.4,102.89,237.77Z"/><path d="M222.4,149.93c1.16.11,1,0,.89.37C222.1,150.2,222.27,150.3,222.4,149.93Z"/><path d="M177.43,241.67c-.71.27-.49.34-1-.08C177.11,241.26,176.85,241.25,177.43,241.67Z"/><path d="M295.48,191.22a2.94,2.94,0,0,1-.62-.12,1.42,1.42,0,0,1,.23-.56s.46,0,.48.05A1.81,1.81,0,0,1,295.48,191.22Z"/><path d="M111.44,204.32a2.66,2.66,0,0,1-.55.45c-.08,0-.4-.15-.38-.2a2.24,2.24,0,0,1,.39-.51Z"/><path d="M100.73,252.48c.38-.29.6-.61.84-.2,0,.07,0,.19-.09.29Z"/><path d="M86.81,191.55c-.39.3-.46.56-.83.11,0,0,.17-.22.25-.23A2.38,2.38,0,0,1,86.81,191.55Z"/><path d="M104.31,107.56c-.78-.53-.66-.33-.33-.79C104.75,107.11,104.6,106.92,104.31,107.56Z"/><path d="M182.47,79.53c-.53.57-.24.53-1,.34C181.75,79.43,181.46,79.48,182.47,79.53Z"/><path d="M139.39,170.11c.47.23.81.17.17.79,0,0-.43-.07-.43-.14A2.39,2.39,0,0,1,139.39,170.11Z"/><path d="M202.6,258.56l1-.08a1.43,1.43,0,0,1-.05.28C202.39,259,202.58,258.89,202.6,258.56Z"/><path d="M251.18,156.18c.33.35.48.17-.53.84C250.29,156.68,250.2,156.86,251.18,156.18Z"/><path d="M278.37,147c1.07.11.91,0,.81.35C278.14,147.32,278.3,147.42,278.37,147Z"/><path d="M128.35,204.22c.73.54.63.34.24.8C127.84,204.65,128,204.84,128.35,204.22Z"/><path d="M99.11,100c0,.35-.09.71-.13,1.06l0,0-.87,0a2.35,2.35,0,0,1,.34-.67C98.68,100.11,99.21,100,99.11,100Z"/><path d="M170.2,77.6c-.82-.25-.82-.25-.16-.92C170,76.66,170,76.56,170.2,77.6Z"/><path d="M102.64,251c-1,.58-.69.49-1.13.22C102.1,250.78,101.82,250.9,102.64,251Z"/><path d="M200.18,219c-.39.63-.09.53-1,.55C199.41,219.05,199.12,219.16,200.18,219Z"/><path d="M248.19,239.4c1.59-1.06,1.26-1,1.58-.6C248.16,239.59,248.44,239.52,248.19,239.4Z"/><path d="M169.38,229.71l-1.27-.18C168.71,228.8,169,228.86,169.38,229.71Z"/><path d="M91.79,206.84c.41.85.45.67,0,.86C91.38,206.86,91.33,207,91.79,206.84Z"/><path d="M170,76.68c-.07-.27-.26-.15.46-.87,0,0,.27.1.26.13a2.92,2.92,0,0,1-.39.62C170.29,76.66,169.92,76.64,170,76.68Z"/><path d="M249.88,165.52c.47.85.72.7-1,.56,0-.29-.19-.16,1-.55Z"/><path d="M119.86,249.88c1-.32.8-.32.94-.07C119.83,250.31,120,250.31,119.86,249.88Z"/><path d="M240.61,205.1c-.4.8-.27.68-.58.66C240.22,204.93,240.08,205.06,240.61,205.1Z"/><path d="M122.89,87.76l0,.73a1.53,1.53,0,0,1-.34,0C122.43,87.65,122.51,87.79,122.89,87.76Z"/><path d="M254.25,154.9c.61.26.55.1.29.6C254,155.33,254.08,155.46,254.25,154.9Z"/><g class="cls-2"><rect class="cls-1" x="62.15" y="29.27" width="307.26" height="230.44" transform="translate(-34.01 73.47) rotate(-17.93)"/><path d="M336.32,71.82c-.22-1-.69-1.84.75-2.55.74.87.32,1.84.09,2.75,3.39.42,1.62-.15,3.32,2.66.24.41.53.69.27,1.29-.13.3.41.71.7,1.15-.74,1.13-1.53,2.31-2.35,3.54-1.63.07-2.67.06-2.8.31a.78.78,0,0,1-1.16.36c-.9-.64-1.75-.33-2.68.26a1.39,1.39,0,0,1-.53.1c-.13-.72-.25-1.4-.38-2.14,1.35-.9,1.54.31,2.31.84.66-.81,1.22-1.53,1.81-2.23.82-1-.79-1.25-.36-2-9.09.23-5.93.39-6.53-.76-.15-.3-.57-.49-.88-.73,1.17-2.78,2.92-1.18,4.26-2.56S333.06,71,336.32,71.82ZM330.4,73.2c.21,1.16.24,1.19,1.42,1.68Zm8,5.4a2.51,2.51,0,0,0-2.29.93Zm-5.31-3.46c.49-.12.41.08.17-1C333,74.22,333,74.06,333.08,75.14Zm5.12-1.93c0-.45.25-.38-1.15-.23C337,73.32,336.79,73.25,338.2,73.21Z"/><path d="M320.52,60.31l1.6-.2a15.78,15.78,0,0,0,1.68-1.69c1.79-2.38-.7-3.07,4,1.08.2.18.75.1,1.31.16.05-.65.09-1.24.16-2.23L331,60.14l-1.31.53L331,62.06c.36-.49.61-1.44,1.76-.87-.78,3.17-.94,3.36-3.51,4.15.08-.39.15-.73.25-1.16l-1.46.27c.11-1.22.21-2.38-.69-3.23-2.5,1.48-1.5,1.07-4,1.36.69.72,1.78,1,1.2,2.06-1.08.41-2.22.71-2.12,1.52,0,.18-.42.46-.65.7-.41-.34-1.06-.44-.45-1.53A3.79,3.79,0,0,0,320.52,60.31Z"/><path d="M327,66.08l.55-.86c1.22.74,1.08,1-1.19,2.17,1.62,1.94,1.45,1.1.6,3.9,1.54-.46,2.33-.06,2.78.78l-1.39.9-6.66-1.18c-.06-.38-.13-.92-.2-1.44,1.47-1,1.21,1.32,2.69.5-1.43-.19-.76-.88-.37-1.51-.37-.48-.74-1-1.24-1.61l1.66-.14c-.08-.68-.17-1.38-.28-2.32Z"/><path d="M324,.2c-2.23,1.73-.13,1.68-2.82,3.63-1.73,1.25-.37,1-1,2-.48.72-1,1.44-1.62,2.35l-1.63-1.9,1.92-.71c-1.15-.65-1.07-.1-.16-2.65l-1.41-.12,3.48-4.87C322.1-.67,320.85.23,324,.2Z"/><path d="M284.44,45.54c-3,1.38-2.62,1.1-2.51,1.52l.92-.05c.32.49-1.23.92-.43,1.52.34.24.16.92.23,1.51-1.37.14-2.16.55-2.25,1.6,0,.3-.53.63-1,1.15-1.47-1.57-.16-3.38-.37-5,2.56.25.07-.45,6.45-6.89A7.2,7.2,0,0,1,284.44,45.54Z"/><path d="M356.14,220.17a14.18,14.18,0,0,0-1.72-1.45c-1.06-.72-1.26-1.91-2.37-3-.19,1.32-.33,2.26-.46,3.18.3.56,1.76.48,1.08,1.5-.7.14-1.62.11-2,.44-.76.71-1.53.59-2.58.56-.06.57-.1,1-.14,1.45Z"/><path d="M370.35,210c-.62.64-1.8,1.17-1,2.07a4.77,4.77,0,0,1-3,.89c1.11-1.92,1.65-2.32.27-2.39,0,.82-1.67,1.59-.25,2.37.3,1.16-1.23,1.22-1.75,1.81l-2.78-.26c.78-.9,1.52-1.73,1.49-2.84,0-.53.9-1.21,1.5-2,1.09.75,2.89-.46,3.78.79.32-.41.43-.23-.41-1.06-.58-.58-.58-.57.68-1.32.57.27.2,1.29,1.3,1.21C370.33,209.35,370.29,210.13,370.35,210Z"/><path d="M311.65,130.88c4.33-1.81,3.91-1.93,2.09-.12l1.34,0c-.11.35-.11.52-.19.55-1.21.57-2.4,1.1-2.82,2.32-.12.35-.76.65-1.24,1,.36.59.73,1.19,1.1,1.81-.7.73-1.33.75-1.9.1-.81.42-.66,1.61-2.17,1.55.39-.58.73-1.11,1.13-1.71-1.11-.14-2-.4-1.73-1.52-.21.29,1.36-1.58,1.58-1.81C311.42,131.83,311.82,130.71,311.65,130.88Zm-.33,1.7c-.17-.28.05-.36-1.07.44C310.45,133.22,310.24,133.28,311.32,132.58Z"/><path d="M293.12,213.32c1.68-2.49,2.3.84,3.9-1l-1.34-.87,1.21-.73c1.65.82,3.49,1.35,4.56,2.68.52.64.6.59.12,1.75C298,216,296,214.14,293.12,213.32Z"/><path d="M327.1,93.23c-2.48.6-1.66.1-3.5,2.39l1.3,1.21c-1.77.73-2.45-.22-3.87-.3l1.66-1.31-1.58-1.58c1.13-.63,2.21-.85,2.93-1.69.32-.37,1.36-.4,1.9-.54l1.95-2.66,1.17.29c-.26.94-1.27,1.55-2.1,2.87C326.74,92.26,327,92.76,327.1,93.23Z"/><path d="M301.05,116.56c.16-.37.28-.63.45-1-1.3,0-1.67-.67-1.09-1.79-1.9.57-2.17-.72-3-1.23-.24-.15.29-1.06.47-1.64,3.3-.25,4.43-.56,3.35,2a5.5,5.5,0,0,1,.8.9c1.13,2.11,1.15,2.5.81,3S301.27,116.62,301.05,116.56Z"/><path d="M279.06,64.91c-.85-2.57,3.56-4,4.63-1A2,2,0,0,1,282.42,66C281.16,66.48,279.39,65.89,279.06,64.91Z"/><path d="M311.92,18.79l1.8-2.61,1.46.31c-.41.7-.74,1.34.53,1.44l1.89-2.15c2.46,2.22-.19,4.46-3,3.73C313.21,19.13,314.31,19.48,311.92,18.79Z"/><path d="M324,49.06l1.72-1.72c5.32-1.72,5.13-1.8,3.15.38l2.95-.67c-.22.8-.22.8-4.54,2.71Z"/><path d="M307.42,125.69c1.19,1.3-.3,2.11-1.48,2.78.75.22,2,.16,2.35,1.77.15.66-.67,1.47-1.69,1.83-.43-.8-.17-2-1.94-2-.78,0-.93-1.41-.13-1.91C306.49,126.92,306.77,125.41,307.42,125.69Z"/><path d="M354.56,214c3.1-.48,3.82.68,2.05,3.6-1-.06-2.24.38-2.73-.55C353.09,215.55,354.28,214.44,354.56,214Z"/><path d="M324.65,53.93c.36.11.78.4,1.08.3,2.29-.72,2.29-.74,2.94.64l2.81-.42c0,.45,0,.74,0,1-1,.4-1.76.21-3.08.54a6.85,6.85,0,0,1-4-.27c-.41-.13-.62-.68-.69-1.09C323.67,54.44,324.78,54,324.65,53.93Z"/><path d="M329.71,42.21c-.85,1.42-.41,3-2.5,4-1.36-1.94-1.53-2.53-2.78-2.61a1.78,1.78,0,0,1-1.71-1.73C324.67,43.21,327.21,42.44,329.71,42.21Zm-2,.51c-.32,1-.36.76.36,1C328.58,42.81,328.57,43.1,327.69,42.72Z"/><path d="M293.2,31.09c-1.64,1.21-1.39.65-1.11,2.72-6.82,1.66-6.1,2-6-.48l3.2.38c1.85-1.16-1-1.82.35-2.7Z"/><path d="M355,134c-1.89.31-1.37.5-2.32-1l3.08-1L353,130.53l1.55-1.31C358.37,131.32,355,134.08,355,134Z"/><path d="M369.53,156.82c1.61-.1,3.34-1.72,4.82-.22-.8.74-1,1.88-2.41,2S369.92,157.89,369.53,156.82Z"/><path d="M316.91-8.94c.47.69.47.69-.16,1.79,1.47.44,1.14-.13,1.32,2.78-.27-.08-.81-.1-.88-.28-.47-1.32-1.73-1.66-3.53-1.41C315.15-8.09,314.38-7.38,316.91-8.94Z"/><path d="M329.3,41.36l-1-1.27c-1.36.14-1,.49-1.69-1.78a4,4,0,0,1,.43-.19c1.64,1.84,6,.2,5.3,1.67-.11.22-1,.29-1.47.42C330.51,40.07,330.79,39.91,329.3,41.36Z"/><path d="M362.39,208.62c1.08,0,1.84.1,1.66.94-.25,1.23-1.18,1.83-3.45,2.22Z"/><path d="M318.67,80.33c3.69-.8,2.48-.9,3.23.71.27.59,0,.94-.75.93-1.23,0-2.35-.21-2.79-1.2Z"/><path d="M304.84,90.5c-2.38,1.1-2.46.36-3.46-2.41,0-.1.32-.33.5-.5C303.87,87.92,303.17,89.83,304.84,90.5Z"/><path d="M330,212.64c.69-2.64.69-2.64-.6-4l1.92-.11.9-1.47c.15,1,.42,1.61-.4,2.38S332,212,330,212.64Z"/><path d="M313.23,129.06a13.06,13.06,0,0,1-1.36.51c-.63-.89-2.62.06-3-1.08s1.33-2.18,1.51,0C313.07,128.32,312.24,128.22,313.23,129.06Z"/><path d="M373,190c1.11.45,2.79,0,3.67,1.1-.24.18-.49.52-.72.54C373.68,191.83,371.51,191.84,373,190Z"/><path d="M327.38,2c.54-1.37.58-1.38,2-.56-1.12,1.87.29,1.8-5.64.78C324,1.39,324.37,1.65,327.38,2Z"/><path d="M316.8,95c0-1.65,2.08-1.51,2.46-2.59.51.09.42-.38.14,3C317.73,94.22,318.32,94.27,316.8,95Z"/><path d="M234.59,68.68c.41-.25-.18-.21,2.49-.17l.95,1.26C236.26,70.33,235,70.08,234.59,68.68Z"/><path d="M308.86,133.08c-.73.14-1-.18-.89-.67.17-.77,2.3-2.2,3.22-2.15.21,0,.31.4.46.62l0,0C309.06,131.61,308.82,133.13,308.86,133.08Z"/><path d="M367.19,198.38c-1.56-1.19-1.83-1.8-1.29-2.39s1.13-.49,2.52.14C367.57,196.68,366.56,197.18,367.19,198.38Z"/><path d="M283.21,50.43c.76,1.93.06,2.56-2.79,2.73Z"/><path d="M321.11,78.32c.09-.36.13-.56.2-.85l-1.76.09,2.29-1.38,2,1.94Z"/><path d="M306.53,163.66c1.17-.36,2.15-1,3.28-.11-.51.41-.93,1-1.44,1.12C307.42,164.89,307.12,164.19,306.53,163.66Z"/><path d="M334.81,17.13c-1.6,1.52-.57,3-.84,4.45a1.68,1.68,0,0,1-.88-2.14C333.28,18.61,333,17.51,334.81,17.13Z"/><path d="M320.37,84.37c1.12-.54.95-2.12,2.88-2.15l.65,1.31Z"/><path d="M286.43,27a1.28,1.28,0,0,1-1.61.88c-1.82-.4-4.74-.77-2.32-1.93C283.32,27,284.71,27.18,286.43,27Z"/><path d="M392.22,200.36l-.83,3.26C389.65,202.66,389.78,201.73,392.22,200.36Z"/><path d="M82.67,111.39c1.78-1.38,2.21.48,3.07,2.07C83.24,112.63,83.92,113.11,82.67,111.39Z"/><path d="M320-4.45c-.42,2.9-.42,2.9-2.1,2.57.06-.17-.11-.07.65-.4-.08-.49-.38-1-.16-1.4S319.33-4.16,320-4.45Z"/><path d="M349.29,71.34c.37-.87-1.83-1.31,0-2.44C351.19,70.1,351.21,70.62,349.29,71.34Z"/><path d="M120.94,129.45c-1.73-.75-1.75-.79-1.26-2.17C121.21,127.67,121.46,128.06,120.94,129.45Z"/><path d="M319.65,88.33l-1.56-1.13C322.65,86.53,323.21,86.19,319.65,88.33Z"/><path d="M148.21,140.75c-.31-1.29-.55-2.26-.79-3.23a3,3,0,0,1,1.76,2.26C149.22,140,148.7,140.27,148.21,140.75Z"/><path d="M166.22,269.09c-1.2-.72-1.09-1.09.49-2.35C168.27,267.53,166.26,268.3,166.22,269.09Z"/><path d="M212.16,85c.15-1.57,1.2-2.35,2.36-3.09C214.12,82.89,214.13,84,212.16,85Z"/><path d="M347.91,220.38c-.23-1.6,2.81-2.23,2.28-.2Z"/><path d="M231,112.3a3.34,3.34,0,0,1,1.37,3C231.12,114.74,230.88,114.18,231,112.3Z"/><path d="M294.66,117.74,292,119.2c.1-.54,0-.87.21-1a3.69,3.69,0,0,0,1.11-1.58Z"/><path d="M319.44,100.75l-1.05-.83c1.14-.43,1.15-1.8,2.78-1.81Z"/><path d="M344.18,80l-1.7.55-.78-1.46C343.25,78.42,343.15,80.06,344.18,80Z"/><path d="M323.55-6.22c-1.52.5-1.95-1.15-3.75-.31C321.36-7.77,322.71-7.56,323.55-6.22Z"/><path d="M290.6,45.14c2.27-1.16,2.2,1.06,1.37,1.27C290.51,46.8,291,45.73,290.6,45.14Z"/><path d="M350.73,213.47c-.68-1.55-.31-2.06,1.8-2.62C352.48,210.82,352.7,210.54,350.73,213.47Z"/><path d="M291.84,107.74l-1.29,1.3c-1.23-.08-.74-.87-1.11-1.43C291.92,107.35,291.53,107.29,291.84,107.74Z"/><path d="M322.47,80.86l2.09-1.45c.65.13.72.45.27.92A1.87,1.87,0,0,1,322.47,80.86Z"/><path d="M287.89,110.4c-1.2-.57-1.2-.57-.33-1.83C288.89,109.29,288.89,109.29,287.89,110.4Z"/><path d="M276.87,19.79a3.9,3.9,0,0,1,2.76-1c-.13.38-.15.84-.32.9C278.53,20,277.65,20.4,276.87,19.79Z"/><path d="M318.67,80.33l-.31.44c-1.34.75-1.32-.22-1.71-1.42C318.13,78.73,318.2,79.77,318.67,80.33Z"/><path d="M316.27,10c.82-.21,1.44,0,1.31.64-.2,1-1.26.55-2.22,1.07C316.3,9.84,316.14,10.11,316.27,10Z"/><path d="M327.3,82.5c-.72-.29-.8-.78-.49-1.54A3.79,3.79,0,0,1,329,82.3,15.23,15.23,0,0,0,327.3,82.5Z"/><path d="M322.79,74.06,326,73.4C323.48,75.86,323.06,73.65,322.79,74.06Z"/><path d="M252.22,113.43c-2.87.93-1.86.84-.89-.64.22-.34.38-.69.59-1.08,1.4.34.06,1.22.29,1.75Z"/><path d="M258.53,108.71l-2.42.78C256.74,108,257,107.91,258.53,108.71Z"/><path d="M330.14,90.86c.05.58,1.05.93,0,1.56-.17.1-.74,0-.82-.1C329,91.83,328.65,91.26,330.14,90.86Z"/><path d="M284.67,40.58c-.1-.5-.19-1-.33-1.73l1.71.26C285.14,40.83,285.45,40.54,284.67,40.58Z"/><path d="M365.41,122.75c.23.68.4,1.22.62,1.91C364.27,124,364.2,123.72,365.41,122.75Z"/><path d="M309.85,117.64l.81-1.34c.7.27,1.27.48.71,1.17A1,1,0,0,1,309.85,117.64Z"/><path d="M331.92,85.2c.53-.71.37-1.8,2.15-2A3.21,3.21,0,0,1,331.92,85.2Z"/><path d="M368.94,176.7c-.4-.8-.62-1.34.36-2C370,175.34,370,175.9,368.94,176.7Z"/><path d="M371.43,195.92c-1.06.58-1.06.58-2.06-.24C370.54,195.18,370.54,195.18,371.43,195.92Z"/><path d="M332.07,11.19c1.63.2,1.66.43.09,2.08C332.12,12.45,332.1,11.85,332.07,11.19Z"/><path d="M324.69,53.94c-.4-1,.87-1.36,1.31-2.29.63.8.67,1.28-.26,1.72A7.54,7.54,0,0,0,324.69,53.94Z"/><path d="M288.32,28.14l1.07.9-2,1.05Z"/><path d="M336.89,125.29c.58-.52,1.15-1.05,1.8-1.65C339,124.62,339,124.62,336.89,125.29Z"/><path d="M302.24,139.76l.14-.39c2.6-.05,2-.18,2.23.61C303.83,140.91,302.72,140,302.24,139.76Z"/><path d="M365.32,204.22c1.51-1,1.56-1,1.79.31Z"/><path d="M305.43,118.51c1.08-1.18,2.55.7,1,1.5C306.45,120,306.55,120.21,305.43,118.51Z"/><path d="M302.32,128.73c-2.17.21-.7-1.38-.17-1.26C303.06,127.67,302.65,128.21,302.32,128.73Z"/><path d="M252.21,113.46c1.39-1.15.87-.9,2.15-.6-.84,1-.25,1-2.14.57Z"/><path d="M268.91,28.38c2.32-.06,2.54.1,1.78,1.26Z"/><path d="M332.55,34c-1.63-1.21.31-1.71.62-1.41C333.67,33.09,333.42,33.56,332.55,34Z"/><path d="M330.58,2.77c-.24,1.38-.38,1.51-2,1.79C328.66,3.42,331,2.89,330.58,2.77Z"/><path d="M307.31,125.65c-.25-.81.07-1.4,1.45-1.81-.21.82-.14,1.53-1.34,1.85Z"/><path d="M367.91,200.71l.61-1.3c.31.14.62.18.7.32C369.6,200.46,368.84,200.62,367.91,200.71Z"/><path d="M367.13,200.11c-.51,1.48-.2,1.26-1.27,1.1C366.56,199.79,366.27,200,367.13,200.11Z"/><path d="M122.12,73.44c.3-1.06.3-1.06,1.34-1.41C123.66,72.86,123.05,73.11,122.12,73.44Z"/><path d="M309.32,111.18c-.32-1.45-.32-1.45,1.07-1.84C310.68,110,309.82,110.35,309.32,111.18Z"/><path d="M301.89,132.21c-.63-1.51-.63-1.51.9-2.05Z"/><path d="M181.41,131.83c.72-1.24.72-1.24,1.88-.45Z"/><path d="M306.56,112.42c-.66-.32-1.52-.56-.72-1.56A1.06,1.06,0,0,1,306.56,112.42Z"/><path d="M326.89,95.07l1.9.86C327.22,96.41,327.11,96.36,326.89,95.07Z"/><path d="M303.93,127.29a1.32,1.32,0,0,1,0-2.12Z"/><path d="M344.54,158.74c.69-.59,1.2-.49,1.9.33C344.15,159.21,344.5,159.33,344.54,158.74Z"/><path d="M289,61.79c.86-.08,1.86-.38,2.12.58C289.94,63,289.62,62.12,289,61.79Z"/><path d="M304.61,140c.74,0,1.64-.46,2.3.32-1,.13-1.9.88-2.55,0Z"/><path d="M322-2.78c-1.39-.18-1.39-.18-1.3-1.13C321.25-4.13,321-4.31,322-2.78Z"/><path d="M252.37,126.4c-.19-.12-.28-.14-.28-.17.06-.5-.14-1.07.72-1.39.14,0,.45,0,.49.13C253.58,125.66,252.81,126,252.37,126.4Z"/><path d="M264.6,158c.33.43.54.16-1,1.18C263.13,158.69,263,159,264.6,158Z"/><path d="M364.1,112.79c0-.56-.23-1.18,1.33-1.4C364.34,113.19,364.64,113,364.1,112.79Z"/><path d="M350.19,142c0-1.09,0-1.09.82-1.69C351.37,140.89,351.3,141.38,350.19,142Z"/><path d="M318.42,14.4a2.2,2.2,0,0,1-1.77,1.51C316.26,15.33,316,15.66,318.42,14.4Z"/><path d="M331.18,8.63c-.61-.37-1.54.29-1.52-.54,0-.15.27-.43.46-.48C331,7.36,331.1,7.79,331.18,8.63Z"/><path d="M323.72,49.87c2.17,0,1.86-.1,1.73.4C324.86,50.49,324.2,51,323.72,49.87Z"/><path d="M304.42,113.27c.86.35,1.15.66.42,1.3C304,114.44,303.93,114.05,304.42,113.27Z"/><path d="M357.8,211l.88,1.48a5.91,5.91,0,0,1-1.44-.36C356.6,211.76,357.25,211.51,357.8,211Z"/><path d="M333.71,70.26c1.48-1.12,2.2,0,1.66.34C334.58,71.07,334.17,70.74,333.71,70.26Z"/><path d="M358.84,183.77c-1.62.88-1.62.88-1.94-.35Z"/><path d="M352.53,210.85c.72-.72.67-.92,1.75-.93.08,0,.21.32.16.36a3.17,3.17,0,0,1-.95.56C353.14,210.94,352.42,210.78,352.53,210.85Z"/><path d="M326.83,36.78c-.58.41-1.14,1-2,.59C325.38,36.49,326.14,36.73,326.83,36.78Z"/><path d="M296.84,127.36c-.13-.69-.21-1.1-.29-1.54C298,125.94,298,125.94,296.84,127.36Z"/><path d="M341.28,72.44c-.35-.08-.54-.07-.58-.13-.39-.71,0-1,.86-1.18C342.32,71.49,342.34,71.21,341.28,72.44Z"/><path d="M349.88,142.89c.93.43.89.17-.05,1.2C349.18,143.72,349.11,144.05,349.88,142.89Z"/><path d="M330,77.58l1.77-.3c-.26.41-.32.64-.5.75C330.58,78.54,330.26,78.29,330,77.58Z"/><path d="M111.45,246.21c-.61-.84-.46-1.27.14-1.61.12-.07.62.12.61.15C112,245.15,111.81,245.54,111.45,246.21Z"/><path d="M306.67-5.48c.43,1,.43,1-1.39,1.41Z"/><path d="M318-1.27c.47,1.27.47,1.27-1.08,1.36Z"/><path d="M105.53,252.55a5.8,5.8,0,0,1-.91.65c-.15.07-.62,0-.61-.11.1-1.11.45-.82,1.1-.8Z"/><path d="M355,134.06c1-.46,1.85-.7,2,.43C354.7,135,355.18,133.71,355,134.06Z"/><path d="M204.08,92.69c-.36.43-.52.75-.8.9s-.73,0-.75-.17a.83.83,0,0,1,.29-.78C203.07,92.51,203.49,92.65,204.08,92.69Z"/><path d="M361.82,206.31l1.53.44c-.57.41-1,.7-1.68,1.22C361.73,207.29,361.77,206.89,361.82,206.31Z"/><path d="M314.85,68l1.2-2C316.26,67.19,316.26,67.19,314.85,68Z"/><path d="M325.85,42.32l-1.32-.92C325.59,41.19,326.28,41,325.85,42.32Z"/><path d="M110.14,244.73l-.46-1.43C110.6,243.39,110.43,243.86,110.14,244.73Z"/><path d="M331,82c-1.08.74-1.08.74-2.05.3C328.94,82.32,328.82,82.33,331,82Z"/><path d="M348.69,217.64c-1.33.73-1.77-.31-1.29-.5C348.11,216.85,348.48,217.08,348.69,217.64Z"/><path d="M328.2,86.06l1.09,1C328.33,87.4,328.33,87.4,328.2,86.06Z"/><path d="M83.64,112.76c0,.37.8.62,0,1.1-.68-.68-.68-.68,0-1.08Z"/><path d="M322.92,90.25c-.67.76-.24.69-1.54.44C321.74,90.05,321.33,90.15,322.92,90.25Z"/><path d="M320,74.94c.91,0,.64.53.44,1.11l-1.11-.29C320,75,320.07,74.84,320,74.94Z"/><path d="M336.35,29.7c-.23.36-.32.68-.55.8a.86.86,0,0,1-.73-.16.7.7,0,0,1,.27-.68C335.51,29.55,335.9,29.67,336.35,29.7Z"/><path d="M289.18,39c.41.79,0,1.07-1.11,1Z"/><path d="M282.51,30.85c-1.34.76-1.34.76-1.35-.55Z"/><path d="M277,26.9l-.81,1C275.63,27.07,275.63,27.07,277,26.9Z"/><path d="M306.4,120c0,.48.09,1,.14,1.55-1.13,0-1-.63-1.41-1.12C306,120.17,306.57,120,306.4,120Z"/><path d="M263.72,219.73c-.29.69-.86,1.11-2.27,1.32C263.68,219.16,263.21,219.37,263.72,219.73Z"/><path d="M327.08,5.5c.6-1.1,1.82-.4,1.29,0A.8.8,0,0,1,327.08,5.5Z"/><path d="M373.32,214c-.77.73-.43.63-1.27.45C372.68,213.63,372.37,213.81,373.32,214Z"/><path d="M325.34,97.32c.72.59.46,1-.22,1.38C324.57,98.54,324.57,98.82,325.34,97.32Z"/><path d="M257,118.31c1.73-1.15,1.37-1,1.74-.71C257.05,118.81,257.42,118.71,257,118.31Z"/><path d="M141.65,61.14c-1.42,1.18-1,1-1.75.76C140.72,61,140.31,61.22,141.65,61.14Z"/><path d="M250.57,53c-1.71-.18-1.5-.08-1.44-.38C251,52.46,250.72,52.36,250.57,53Z"/><path d="M130.28,96l-1.16,1.49C128.83,96.64,128.83,96.64,130.28,96Z"/><path d="M201.54,76c1.26-.74.84-.63,1.61-.37C202.44,76.43,202.85,76.31,201.54,76Z"/><path d="M327.24,49.76c.69.81.69.81-.48,1.12C326.19,50.24,327.51,49.82,327.24,49.76Z"/><path d="M302.34,85.68c-.44.85-.11.73-1.18.57C301.69,85.55,301.43,85.74,302.34,85.68Z"/><path d="M334.74,83.17c.09-1,.57-1.13,1.66-.76Z"/><path d="M374.85,195.92c-.9.4-1.32.31-1.54-.29A1,1,0,0,1,374.85,195.92Z"/><path d="M377.76,182c-.59-.79-.55-.59,0-.91C378.34,181.88,378.36,181.69,377.76,182Z"/><path d="M368.42,153.15l1.08-.27c0,.1.07.27.05.27C368.28,153.63,368.5,153.55,368.42,153.15Z"/><path d="M355.49,128.52c1.25.08,1,0,.93.5C355.12,128.94,355.3,129.06,355.49,128.52Z"/><path d="M334.87,52.83c-.6.55-1,.67-1.61.27C333.81,52.49,334.26,52.64,334.87,52.83Z"/><path d="M307.56,106.35c.67.58.62.32.23,1C306.92,106.92,307.07,107.13,307.56,106.35Z"/><path d="M322.49,58.43l-.82.8C321.49,58.35,321.49,58.35,322.49,58.43Z"/><path d="M292.11,114.22c-.72-.5-.95-.8,0-1.43Z"/><path d="M338.2,29c-.85-.41-.83-.15-.45-.91C338.63,28.35,338.43,28.17,338.2,29Z"/><path d="M241.1,214.12c.07-.35.14-.7.25-1.23C242.05,213.34,242.15,213.68,241.1,214.12Z"/><path d="M241.35,59.8c1.39-1.07,1.06-1,1.52-.62C241.57,60.32,241.9,60.21,241.35,59.8Z"/><path d="M323.47,86.73c.57-.48,1.06-.54,1.67.23C323.15,87.19,323.46,87.29,323.47,86.73Z"/><path d="M101.55,258.06l1.76-.67C103.06,258.18,103.06,258.18,101.55,258.06Z"/><path d="M285.83,47c.05,1.26.19,1-.4,1.15C285.26,46.88,285.15,47.12,285.83,47Z"/><path d="M117.06,104c-1,.83-.78.75-1.18.45C116.93,103.66,116.68,103.74,117.06,104Z"/><path d="M300.09,90.62l-1.38.37C299.08,90.23,299.46,90,300.09,90.62Z"/><path d="M264.24,15.57c.58.76.58.76-.64,1.12Z"/><path d="M316.17,10.09c-.36-.07-.7.09-.68-.77a.54.54,0,0,1,.92.22A.78.78,0,0,1,316.17,10.09Z"/><path d="M252.34,33.76c-.18-1.17-.24-.92.41-1.09C252.91,33.83,253,33.61,252.34,33.76Z"/><path d="M272,147.74c.38.85,0,1.2-1.08,1.77Z"/><path d="M323.86,39.62l1.86-.6C325.23,39.84,324.79,39.85,323.86,39.62Z"/><path d="M294.86,118.35c.7-.72,1.12-.78,1.55-.49C296.35,118.39,296.66,118.27,294.86,118.35Z"/><path d="M98.59,253.8c-.23.29-.34.57-.5.61a.73.73,0,0,1-.64-.16c-.06-.09.12-.43.28-.5S98.19,253.77,98.59,253.8Z"/><path d="M285.69,58.4c.21-.93,0-.79.67-.7C286,58.6,286.14,58.46,285.69,58.4Z"/><path d="M326.94,79.7c.23-.86.23-.86,1.59-1.06Z"/><path d="M348.59,215.34c.13.49.34.34-.81.72C347.61,215.6,347.46,215.76,348.59,215.34Z"/><path d="M376.49,208.61l-.65,1c-.2-.09-.35-.11-.38-.18C375.26,208.9,375.44,208.57,376.49,208.61Z"/><path d="M286.37,110.92c-.19.23-.31.46-.4.47a1.14,1.14,0,0,1-.62-.15c-.05,0,.13-.4.2-.41A3.91,3.91,0,0,1,286.37,110.92Z"/><path d="M266.75,116c.13,1.27.29,1.07-.43,1.09C266.75,115.91,266.69,116,266.75,116Z"/><path d="M349.26,126c.87-.55.66-.49,1-.17C349.39,126.31,349.6,126.29,349.26,126Z"/><path d="M258.29,155.38c-.72.78-.4.67-1.19.49C257.54,155.19,257.28,155.36,258.29,155.38Z"/><path d="M97.23,259.92c1.29-.28,1.06-.32,1.12.11C97.06,260.3,97.29,260.34,97.23,259.92Z"/><path d="M374,179.63c.11-.13.2-.32.34-.36a2.3,2.3,0,0,1,1.23-.08C373.94,180,374.25,179.91,374,179.63Z"/><path d="M269.27,158.23c-.92.73-.59.6-1.24.29C268.64,157.86,268.35,158,269.27,158.23Z"/><path d="M311.58,95.73l-1.16,1C310.62,96,310.62,96,311.58,95.73Z"/><path d="M330.48,88.31c-1,.1-.79.13-.8-.21C330.7,88,330.54,88,330.48,88.31Z"/><path d="M96.54,220c.25-.22.5-.44.77-.65a1,1,0,0,1,.25.15C96.88,220.38,97,220.23,96.54,220Z"/><path d="M114.7,244c1.49-.09,1.28-.13,1.35.08a2.2,2.2,0,0,1-1.39.19A2.51,2.51,0,0,0,114.7,244Z"/><path d="M348.64,132.31c.34-.18.68-.37,1-.52a1.31,1.31,0,0,1,.27.31c-.32.22-.66.43-1,.64Z"/><path d="M307.26,134.92c-1.3,0-1.18.12-.67-.52C307.31,135,307.22,135,307.26,134.92Z"/><path d="M374.17,210.55c-.86.54-.57.45-1.12.28C373.8,210.1,373.54,210.2,374.17,210.55Z"/><path d="M197.25,195.14c-1.38.72-1.09.67-1.36.37C197.12,194.61,196.83,194.66,197.25,195.14Z"/><path d="M370.61,146c.72.66.65.39.17,1C370,146.56,370.17,146.78,370.61,146Z"/><path d="M99.66,234c-.83-.68-.81-.49-.37-.82C100.07,233.94,100,233.76,99.66,234Z"/><path d="M315.89,127.88c1.35.05,1.15-.06,1.08.36C315.57,128.27,315.78,128.36,315.89,127.88Z"/><path d="M151.16,138.36a4,4,0,0,1-.76.48.67.67,0,0,1-.45-.13C150.24,137.92,150.39,138.19,151.16,138.36Z"/><path d="M175.74,127.94c.68-.7.42-.56,1-.45C176.29,128.19,176.54,128,175.74,127.94Z"/><path d="M321.57,79.08c-1.37.35-1.14.39-1.22,0C321.75,78.74,321.5,78.72,321.57,79.08Z"/><path d="M327.74,76.14c-1.24.31-1,.33-1.14,0C327.85,75.63,327.61,75.6,327.74,76.14Z"/><path d="M320,74.91c-.65.34-1.31.69-1.7-.5C320.2,75,320,75,320,74.91Z"/><path d="M177.72,116.37c.9.76.85.56.42.88C177.27,116.46,177.34,116.65,177.72,116.37Z"/><path d="M144.07,120.59c-1,.46-.83.47-1,0C144.14,120.26,143.93,120.25,144.07,120.59Z"/><path d="M343.28,55c0-.81-.13-.6.52-.76C343.79,55,343.92,54.88,343.28,55Z"/><path d="M287,153.23c.72.19.67,0,.3.72C286.47,153.8,286.57,154,287,153.23Z"/><path d="M324.37,46.25c.86-.42,1.29-.4,1.4.49Z"/><path d="M235.39,70.45c-.13.48.11.42-1,.4C234.43,70.5,234.22,70.6,235.39,70.45Z"/><path d="M332.77,27.79c.31,0,.62.08.92.14a.84.84,0,0,1-.09.25C332.39,28.24,332.59,28.25,332.77,27.79Z"/><path d="M324,25.12c-1.19.44-.95.44-1.15.08C324,24.63,323.75,24.63,324,25.12Z"/><path d="M289.69,120.94c1-.82.77-.74,1.06-.53C289.88,121.23,290.11,121.13,289.69,120.94Z"/><path d="M205.12,57.15c1.31.1,1.11,0,1,.45C204.71,57.68,204.92,57.8,205.12,57.15Z"/><path d="M355,189c-.1-1.17-.18-1,.3-1.08C355.69,189.06,355.78,188.84,355,189Z"/><path d="M275.13,27c-1.35.19-1.12.25-1.14-.21C275.34,26.52,275.11,26.46,275.13,27Z"/><path d="M270.63,13.46c.06.82,0,1.22-1.18,1.4Z"/><path d="M293.77,208.05c.35-.28.78-.9,1.11-.18,0,.07-.2.36-.3.37A3.29,3.29,0,0,1,293.77,208.05Z"/><path d="M290.22,167.76c-.9.66-1.25.55-1.52-.26Z"/><path d="M327,104.27l1.21-.1C327.67,104.82,327.67,104.82,327,104.27Z"/><path d="M325.85,134.52c-1,1.06-.75.94-1.29.65C325.6,134.16,325.32,134.28,325.85,134.52Z"/><path d="M291.77,154.49a2.43,2.43,0,0,1-.58.4c-.08,0-.37-.18-.34-.23a2.15,2.15,0,0,1,.43-.48Z"/><path d="M308.44,139.32c1-.26.81-.32.83.18C308.28,139.59,308.46,139.63,308.44,139.32Z"/><path d="M83.62,209.69c-.47.46-.25.44-.86.27C83.14,209.43,83,209.54,83.62,209.69Z"/><path d="M359.63,210.53c-.6.45-.32.47-1.06.08C359.29,210.23,359,210.29,359.63,210.53Z"/><path d="M186.93,107.73c-.48.61-.21.56-1,.34C186.25,107.62,186,107.68,186.93,107.73Z"/><path d="M322,21.41a7,7,0,0,1-.89.21c-.06,0-.18-.28-.12-.35a.76.76,0,0,1,.5-.19C321.62,21.08,321.72,21.23,322,21.41Z"/><path d="M284.84,128.37a5.11,5.11,0,0,1-.71.43c-.06,0-.3-.17-.28-.25a.72.72,0,0,1,.39-.33C284.35,128.18,284.52,128.28,284.84,128.37Z"/><path d="M314.55,14.22l-.59-.54c.11-.06.3-.2.31-.18C315,14.08,314.86,14,314.55,14.22Z"/><path d="M226.65,101.51c-.24-.06-.47-.06-.54-.15s.07-.33.18-.37a.58.58,0,0,1,.49.05C226.84,101.12,226.71,101.31,226.65,101.51Z"/><path d="M333.38,78.67c.34-.91.93-.81,1.39-.92C335,78.19,335.21,78,333.38,78.67Z"/><path d="M260.92,30.57c-1.55.32-1.3.36-1.34,0C261.14,30.31,260.9,30.27,260.92,30.57Z"/><path d="M331.7,5.37c-.22,0-.49,0-.51-.11a.48.48,0,0,1,.2-.4c.1-.06.32,0,.49,0Z"/><path d="M264.69,80.29c-.86.63-.58.54-1.06.25C264.29,79.9,264,80,264.69,80.29Z"/><path d="M257.81,79.94c-.11-.32-.3-.17.77-.71C258.8,79.74,259,79.57,257.81,79.94Z"/><path d="M298,132.8c-.63.72-.31.66-1.21.51C297.2,132.7,296.88,132.83,298,132.8Z"/><path d="M68.89,73.53c.7-.72.49-.61,1-.36C69.13,73.86,69.34,73.8,68.89,73.53Z"/><path d="M346.18,75.69c-1.14.52-.91.51-1.11.13C346.21,75.34,346,75.33,346.18,75.69Z"/><path d="M314.86-7.69c-1.61-.12-1.59.13.28-.94C314.78-7.51,314.82-7.65,314.86-7.69Z"/><path d="M303.9,123.38c-1.16.77-.83.69-1.3.45C303.1,123.38,302.77,123.52,303.9,123.38Z"/><path d="M283.65,152.38c-.68.71-.4.61-1.1.34C283.2,152.1,282.92,152.24,283.65,152.38Z"/><path d="M327.26,82.49c.19.88.35.72-.56.75C327.37,82.41,327.32,82.5,327.26,82.49Z"/><path d="M368.18,144.64l.56.11a1.92,1.92,0,0,1-.36.44.51.51,0,0,1-.4-.14C367.93,145,368.09,144.81,368.18,144.64Z"/><path d="M287.93,98c-.35.6-.06.51-1,.47C287.15,98,286.86,98.08,287.93,98Z"/><path d="M325.72,88.14c-.07.41.08.32-.57.38C325.2,88.19,325,88.28,325.72,88.14Z"/><path d="M248.3,129.57c.64.17.58,0,.17.62C248,130,248,130.18,248.3,129.57Z"/><path d="M306,95.72c-.79-.59-.73-.43-.45-.69C306.42,95.55,306.38,95.39,306,95.72Z"/><path d="M229,84.81c1.2-.71,1-.66,1.19-.4C229,85.17,229.26,85.13,229,84.81Z"/><path d="M175.12,100c-.79-.51-.72-.36-.43-.65C175.52,99.79,175.45,99.64,175.12,100Z"/><path d="M195.27,91.75c-.85.62-.65.56-.92.41C195.06,91.37,194.86,91.44,195.27,91.75Z"/><path d="M322.79,98.91c1-.7.71-.57,1.25-.38C323.4,99.28,323.69,99.22,322.79,98.91Z"/><path d="M322.81,74c-.54.26-1,.37-1.2-.24C322.85,73,322.69,74.21,322.81,74Z"/><path d="M319.75,121.06c-.32.56-.06.49-.94.4C319.24,120.93,319,121.07,319.75,121.06Z"/><path d="M351.44,156.86c-.63-.35-.64-.13-.11-.78C351.8,156.29,351.82,156.07,351.44,156.86Z"/><path d="M283.72,110.76c-.84-.41-.71-.22-.27-.8C284.14,110.37,284,110.18,283.72,110.76Z"/><path d="M323.91,48.31l-.93.14a1,1,0,0,1,0-.27C324.07,47.93,323.89,48,323.91,48.31Z"/><path d="M266.73,116c0-.39-.27-.83.55-1.1C267.91,115.57,266.82,116,266.73,116Z"/><path d="M332.63,43.67c1.14,0,.9-.09,1,.23C332.39,44.12,332.59,44.19,332.63,43.67Z"/><path d="M301.62,80.74c.68.1.6,0,.27.58C301.23,81.14,301.37,81.26,301.62,80.74Z"/><path d="M201.32,84.68c-.53.42-.28.45-1,0C200.84,84.25,200.59,84.3,201.32,84.68Z"/><path d="M116.94,238.74c-1,1-.65.84-1.3.49C116.35,238.59,116,238.76,116.94,238.74Z"/><path d="M304.49,233.44c-1.21.75-.94.7-1.26.34C304.44,233,304.18,233.08,304.49,233.44Z"/><path d="M224,258.6a4.83,4.83,0,0,1,.74.41,1.78,1.78,0,0,1-.44.47s-.37-.07-.39-.16A2.43,2.43,0,0,1,224,258.6Z"/><path d="M367.3,157.67a4.37,4.37,0,0,1,.73.38s-.24.37-.27.36C366.74,158.22,367,158.15,367.3,157.67Z"/><path d="M334.73,33.42c.26.13.52.26.76.41a.91.91,0,0,1-.2.24C334.2,33.8,334.38,33.85,334.73,33.42Z"/><path d="M395.31,202.6c.67.2.64,0,.35.71C395,203,395.19,203.16,395.31,202.6Z"/><path d="M360.33,213.47c.22.2.48.33.44.42a.91.91,0,0,1-.51.43c-.13,0-.47-.15-.46-.24S360.06,213.76,360.33,213.47Z"/><path d="M193.33,77.51c1-.78.78-.71,1.13-.42C193.45,77.88,193.69,77.81,193.33,77.51Z"/><path d="M370.33,210.07l1.12-.27c0,.32-.08.57-.16,1.12C370.24,209.94,370.36,210,370.33,210.07Z"/><path d="M220.23,180c.68.32.68.08.26.8C220,180.58,220,180.81,220.23,180Z"/><path d="M330.86,89.71c-1,.15-.81.16-.87-.1C331,89.38,330.85,89.35,330.86,89.71Z"/><path d="M112.38,246.71c-1,.57-.71.52-1.23.08C111.89,246.27,111.59,246.36,112.38,246.71Z"/><path d="M210.58,215.15c-.49.63-.16.56-1.22.34C209.65,215,209.33,215.07,210.58,215.15Z"/><path d="M355,213c-.5.59-.2.53-1.08.41C354.16,213,353.84,213,355,213Z"/><path d="M251.28,55.09l-1.2-.51C251,54.47,251,54.47,251.28,55.09Z"/><path d="M249.73,247c1.19-.21,1-.24,1,0C249.59,247.35,249.78,247.39,249.73,247Z"/><path d="M73.38,111.52c-.55.49-.3.51-1,.15C72.93,111.11,72.7,111.17,73.38,111.52Z"/><path d="M202,169.3c.15.12.36.2.34.29a.57.57,0,0,1-.36.3c-.13,0-.26-.12-.39-.19Z"/></g></g></mask></defs><g class="cls-3"><path class="cls-4" d="M184.07,46A102.65,102.65,0,0,1,301.73,88l5.53-1.79a108.09,108.09,0,0,0-199.49,64.56L113.3,149A102.65,102.65,0,0,1,184.07,46ZM243.92,231a92.06,92.06,0,0,1-102.68-33.48l-2.82.92a94.72,94.72,0,0,0,171.92-55.64l-2.82.91A92.08,92.08,0,0,1,243.92,231Zm3.25,10a102.63,102.63,0,0,1-116.43-40.12l-5.56,1.8a108.07,108.07,0,0,0,198.4-64.21l-5.56,1.8A102.64,102.64,0,0,1,247.17,241ZM186.45,53.39A94.88,94.88,0,0,0,121,146.49l2.78-.91A91.9,91.9,0,0,1,291.29,91.36l2.78-.9A94.87,94.87,0,0,0,186.45,53.39Z" transform="translate(-85.62 -35.41)"/><polygon class="cls-4" points="104.42 34.23 108.67 38.72 114.74 37.6 111.79 43.03 114.73 48.47 108.66 47.33 104.4 51.81 103.6 45.68 98.02 43.02 103.6 40.36 104.42 34.23"/><polygon class="cls-4" points="122.85 32.51 125.86 35.7 130.18 34.9 128.08 38.76 130.17 42.61 125.86 41.81 122.83 44.98 122.27 40.64 118.31 38.74 122.27 36.86 122.85 32.51"/><polygon class="cls-4" points="88.47 43.64 91.49 46.82 95.8 46.03 93.7 49.88 95.79 53.74 91.48 52.93 88.46 56.11 87.89 51.76 83.94 49.87 87.9 47.99 88.47 43.64"/><polygon class="cls-4" points="153.29 185.24 149.04 180.75 142.96 181.87 145.92 176.44 142.98 171.01 149.05 172.14 153.31 167.66 154.11 173.79 159.69 176.46 154.11 179.11 153.29 185.24"/><polygon class="cls-4" points="134.86 186.96 131.84 183.78 127.53 184.57 129.63 180.72 127.54 176.86 131.85 177.67 134.88 174.49 135.44 178.84 139.4 180.73 135.44 182.61 134.86 186.96"/><polygon class="cls-4" points="169.23 175.83 166.22 172.65 161.91 173.44 164 169.59 161.92 165.74 166.23 166.54 169.25 163.37 169.82 167.71 173.77 169.6 169.81 171.49 169.23 175.83"/><rect class="cls-4" x="136.78" y="115.67" width="136.79" height="2.79" transform="translate(-111.7 33.46) rotate(-17.93)"/><rect class="cls-4" x="154.79" y="171.32" width="136.79" height="2.79" transform="translate(-127.96 41.71) rotate(-17.93)"/><path class="cls-4" d="M98.74,165.82q6.7-2.23,11.49.43t7.14,9.71q2.32,7,.11,12c-1.49,3.35-4.46,5.77-8.94,7.26l-13.12,4.37-9.8-29.43ZM105.25,189c2.13-.71,3.4-1.87,3.79-3.47s.14-3.77-.77-6.5-2-4.63-3.28-5.67-3-1.21-5.12-.5l-3.2,1.07L102,190Z" transform="translate(-85.62 -35.41)"/><path class="cls-4" d="M126.47,189.28l-9.81-29.43,23-7.68L142,159l-14.2,4.73,1.59,4.77,11.34-3.78,2.11,6.33-11.34,3.78,1.56,4.68,14.76-4.92,2.27,6.83Z" transform="translate(-85.62 -35.41)"/><path class="cls-4" d="M171.39,141.62l-.07,32.71-10.48,3.49-19.67-26.14,9.22-3.07L160.61,164l3.39,5.26-.5-6.12-1-18.53Z" transform="translate(-85.62 -35.41)"/><path class="cls-4" d="M183.79,170.18,174,140.75l23-7.67,2.27,6.82-14.2,4.73,1.59,4.77L198,145.62l2.1,6.34-11.34,3.77,1.56,4.69,14.76-4.92,2.28,6.82Z" transform="translate(-85.62 -35.41)"/><path class="cls-4" d="M217.54,151.36l13.59-4.53,2.28,6.82L211,161.12l-9.8-29.43,8.83-2.94Z" transform="translate(-85.62 -35.41)"/><path class="cls-4" d="M239.52,118.43a16,16,0,0,1,8.24-.74,12.65,12.65,0,0,1,6.62,3.56,21.42,21.42,0,0,1,5.44,16.32,12.75,12.75,0,0,1-3.16,6.83,18,18,0,0,1-15.28,5.09,12.73,12.73,0,0,1-6.69-3.55,21.19,21.19,0,0,1-5.44-16.32,12.77,12.77,0,0,1,3.23-6.84A16.19,16.19,0,0,1,239.52,118.43Zm2.31,6.95a4.83,4.83,0,0,0-2.61,1.89,5.82,5.82,0,0,0-.84,3.27,16.11,16.11,0,0,0,1,4.79,15.83,15.83,0,0,0,2.11,4.38,5.85,5.85,0,0,0,2.63,2.14,4.73,4.73,0,0,0,3.23-.06,4.79,4.79,0,0,0,2.6-1.88,5.67,5.67,0,0,0,.82-3.3,20,20,0,0,0-3.05-9.16,5.66,5.66,0,0,0-2.63-2.12A4.85,4.85,0,0,0,241.83,125.38Z" transform="translate(-85.62 -35.41)"/><path class="cls-4" d="M272.35,108a15.82,15.82,0,0,1,6.65-.9,9.22,9.22,0,0,1,5.09,2.12,12.43,12.43,0,0,1,3.67,11A9.17,9.17,0,0,1,285,125a15.76,15.76,0,0,1-5.86,3.27L273.73,130l3.06,9.18L268,142.14l-9.81-29.43Zm3.12,14.12a5,5,0,0,0,2.74-1.88,4,4,0,0,0-1.77-5.3,5,5,0,0,0-3.32.14l-3.94,1.31,2.35,7Z" transform="translate(-85.62 -35.41)"/><path class="cls-4" d="M297.74,132.22l-9.8-29.43,23-7.67,2.28,6.82-14.2,4.73,1.58,4.77L312,107.66l2.11,6.34-11.35,3.77,1.56,4.69,14.77-4.92,2.27,6.82Z" transform="translate(-85.62 -35.41)"/><path class="cls-4" d="M329.76,88.86c3.56-1.18,6.58-1.26,9.09-.23A8.86,8.86,0,0,1,344,94.37q1.56,4.68-.5,8t-7.42,5.15l-.7.78-5.2,1.73,3.4,10.21-8.66,2.88-9.8-29.43Zm2.91,13.5a4.74,4.74,0,0,0,2.55-1.67,3.05,3.05,0,0,0,.12-2.74,3.13,3.13,0,0,0-1.75-2.14,4.59,4.59,0,0,0-3,.17L326,97.49l2.13,6.38Zm5.88.17L352.38,114l-9.65,3.22-11.27-10.57Z" transform="translate(-85.62 -35.41)"/><path class="cls-4" d="M159.5,116.37l-6.14,2,.64,2,4.92-1.6.84,2.61-4.91,1.6,1.32,4.08-3.83,1.24L148.69,117l10-3.23Z" transform="translate(-85.62 -35.41)"/><path class="cls-4" d="M166.54,111.2a6.15,6.15,0,0,1,3.89-.19,3.24,3.24,0,0,1,2.1,2.16,3.31,3.31,0,0,1-.36,3.11,6.17,6.17,0,0,1-3.27,2.08l-.31.31-2.26.73,1.27,3.91-3.75,1.22-3.66-11.27Zm1,5.19a2.19,2.19,0,0,0,1.12-.67,1.1,1.1,0,0,0,.11-1.06,1.11,1.11,0,0,0-.71-.81,2.12,2.12,0,0,0-1.31.1l-2,.64.79,2.44Zm2.52,0,5.7,4.28L171.56,122l-4.62-4Z" transform="translate(-85.62 -35.41)"/><path class="cls-4" d="M178.85,107a7.72,7.72,0,0,1,3.54-.38,5.21,5.21,0,0,1,2.77,1.3,6.57,6.57,0,0,1,1.75,2.88,6.42,6.42,0,0,1,.27,3.37,5.17,5.17,0,0,1-1.47,2.68,8.72,8.72,0,0,1-6.63,2.14,5.08,5.08,0,0,1-2.79-1.29,7.2,7.2,0,0,1-2-6.25,5.22,5.22,0,0,1,1.5-2.68A7.88,7.88,0,0,1,178.85,107Zm.87,2.67a2,2,0,0,0-1.57,2,5.43,5.43,0,0,0,.31,1.84,5.64,5.64,0,0,0,.82,1.67,2.28,2.28,0,0,0,1.09.8,2.2,2.2,0,0,0,1.38-.06,2.25,2.25,0,0,0,1.15-.76,2.13,2.13,0,0,0,.41-1.28,5.6,5.6,0,0,0-.32-1.83,5.47,5.47,0,0,0-.82-1.68,2.14,2.14,0,0,0-1.08-.79A2.17,2.17,0,0,0,179.72,109.69Z" transform="translate(-85.62 -35.41)"/><path class="cls-4" d="M198.6,100.81l3.65,11.27-4.2,1.36L192.86,109l-1.28-1.26h0l.8,2.19,1.58,4.89-3.34,1.08-3.66-11.27,4.19-1.35,5.19,4.48,1.3,1.26h0l-.8-2.19-1.58-4.88Z" transform="translate(-85.62 -35.41)"/><path class="cls-4" d="M211.91,96.49l.85,2.61-3.95,1.28,2.81,8.66-3.83,1.24L205,101.62l-4,1.29-.85-2.61Z" transform="translate(-85.62 -35.41)"/><path class="cls-4" d="M217.14,107.25,213.49,96l10-3.24.85,2.61-6.16,2,.59,1.83,4.92-1.6.79,2.43-4.92,1.59.58,1.79,6.4-2.07.85,2.61Z" transform="translate(-85.62 -35.41)"/><path class="cls-4" d="M237,88.37l3.65,11.27L236.4,101l-5.19-4.48-1.28-1.27h0l.8,2.2,1.58,4.88-3.34,1.09-3.66-11.27,4.19-1.36,5.19,4.49,1.3,1.25h0l-.8-2.2-1.58-4.88Z" transform="translate(-85.62 -35.41)"/><path class="cls-4" d="M244.93,85.78a6.43,6.43,0,0,1,4.9,0,6.77,6.77,0,0,1,2.7,8.33,6.42,6.42,0,0,1-3.95,2.91l-5.69,1.85-3.65-11.27Zm2.36,8.88A2.35,2.35,0,0,0,249,93.27a4.29,4.29,0,0,0-.22-2.5,4.23,4.23,0,0,0-1.3-2.16,2.33,2.33,0,0,0-2.18-.13l-1.39.45,2,6.18Z" transform="translate(-85.62 -35.41)"/><path class="cls-4" d="M208.16,186.13l2,6.29-1.94.62-2-6.28Zm3.87,1.4.47,1.46-4.11,1.31-.47-1.45Zm.12-2.67,2,6.29-1.95.62-2-6.29Z" transform="translate(-85.62 -35.41)"/><path class="cls-4" d="M215.26,183.87l2,6.28-2,.63-2-6.29Z" transform="translate(-85.62 -35.41)"/><path class="cls-4" d="M219.64,182.47a2.88,2.88,0,0,1,2-.05,1.89,1.89,0,0,1,1.11,1.23,2,2,0,0,1-.15,1.72,2.92,2.92,0,0,1-1.64,1.09l-.16.17-1.14.36.69,2.18-1.9.61-2-6.28Zm.57,2.88a1.14,1.14,0,0,0,.57-.35.8.8,0,0,0-.34-1.05,1,1,0,0,0-.66,0l-1,.32.43,1.36Zm1.29,0,3,2.46-2.13.68-2.41-2.26Z" transform="translate(-85.62 -35.41)"/><path class="cls-4" d="M225.08,187.66l-2-6.29,5.06-1.62.47,1.46-3.12,1,.32,1,2.5-.8.43,1.35-2.5.8.32,1,3.25-1,.47,1.46Z" transform="translate(-85.62 -35.41)"/><path class="cls-4" d="M239.3,176.18l2,6.29-1.72.55-.8-2.52-.61-2h0l.07,5-1.56.49-2.82-4.1h0l.68,2,.81,2.52-1.72.54-2-6.28,2.75-.88,1.8,2.71.71,1.15h0l-.09-1.35-.1-3.25Z" transform="translate(-85.62 -35.41)"/><path class="cls-4" d="M242.46,182.1l-2-6.28,5.07-1.62.46,1.45-3.12,1,.33,1,2.49-.79.43,1.35-2.49.79.32,1,3.25-1,.46,1.45Z" transform="translate(-85.62 -35.41)"/></g></svg>